M48
; DRILL file {KiCad 9.0.0} date 2025-04-02T16:35:01+0200
; FORMAT={-:-/ absolute / metric / decimal}
; #@! TF.CreationDate,2025-04-02T16:35:01+02:00
; #@! TF.GenerationSoftware,Kicad,Pcbnew,9.0.0
; #@! TF.FileFunction,Plated,1,4,PTH
FMAT,2
METRIC
; #@! TA.AperFunction,Plated,PTH,ViaDrill
T1C0.200
; #@! TA.AperFunction,Plated,PTH,ComponentDrill
T2C0.600
; #@! TA.AperFunction,Plated,PTH,ComponentDrill
T3C1.000
%
G90
G05
T1
X142.5Y-109.25
X142.5Y-112.6
X143.0Y-106.7
X143.0Y-107.45
X143.0Y-112.0
X143.1Y-105.75
X143.6Y-71.6
X143.6Y-77.55
X144.2Y-110.0
X144.85Y-112.8
X144.9Y-100.75
X145.675Y-115.9
X145.75Y-99.7
X145.8Y-94.75
X146.3Y-96.2
X146.3Y-107.15
X146.35Y-109.25
X146.4Y-98.5
X146.4Y-119.0
X146.8Y-99.6
X146.8Y-101.3
X147.25Y-96.2
X147.25Y-113.2
X147.5Y-80.5
X147.55Y-99.9
X147.75Y-97.8
X147.75Y-110.6
X148.2Y-106.2
X148.25Y-96.55
X148.25Y-100.8
X148.25Y-102.95
X148.75Y-81.75
X148.75Y-96.25
X148.95Y-113.2
X148.95Y-120.9
X149.25Y-96.9
X149.8Y-86.8
X149.8Y-105.7
X149.85Y-80.5
X150.35Y-101.75
X150.6Y-119.2
X150.6Y-120.9
X150.75Y-106.2
X151.0Y-86.15
X151.1Y-101.75
X151.2Y-100.1
X151.25Y-105.65
X151.25Y-109.9
X151.75Y-108.4
X151.9Y-80.5
X152.15Y-89.35
X152.2Y-101.25
X152.2Y-109.9
X152.3Y-114.125
X152.4Y-114.9
X152.6Y-101.8
X153.1Y-103.3
X153.15Y-109.85
X153.2Y-87.4
X153.25Y-100.25
X153.35Y-100.75
X153.9Y-99.4
X153.95Y-81.75
X154.125Y-109.85
X154.125Y-114.0
X154.125Y-118.0
X154.4Y-110.9
X154.5Y-84.737
X154.5Y-85.3
X154.5Y-85.9
X154.55Y-79.5
X154.6Y-107.4
X154.7Y-99.3
X155.2Y-96.45
X155.4Y-110.7
X155.5Y-79.05
X155.55Y-108.15
X155.7Y-101.1
X156.1Y-101.6
X156.6Y-77.9
X156.6Y-80.15
X156.75Y-100.25
X156.8Y-99.25
X157.1Y-84.5
X157.15Y-82.75
T3
X138.57Y-75.87
X138.57Y-78.41
X138.57Y-80.95
X138.57Y-83.49
X138.57Y-86.03
X138.57Y-88.57
X138.57Y-91.11
X138.57Y-93.65
X138.57Y-96.19
X138.57Y-98.73
X138.57Y-101.27
X138.57Y-103.81
X138.57Y-106.35
X138.57Y-108.89
X138.57Y-111.43
X138.57Y-113.97
X138.57Y-116.51
X138.57Y-119.05
X138.57Y-121.59
X138.57Y-124.13
X141.11Y-75.87
X141.11Y-78.41
X141.11Y-80.95
X141.11Y-83.49
X141.11Y-86.03
X141.11Y-88.57
X141.11Y-91.11
X141.11Y-93.65
X141.11Y-96.19
X141.11Y-98.73
X141.11Y-101.27
X141.11Y-103.81
X141.11Y-106.35
X141.11Y-108.89
X141.11Y-111.43
X141.11Y-113.97
X141.11Y-116.51
X141.11Y-119.05
X141.11Y-121.59
X141.11Y-124.13
X143.65Y-126.67
X143.65Y-129.21
X144.6Y-85.72
X144.6Y-88.26
X144.6Y-90.8
X146.19Y-126.67
X146.19Y-129.21
X148.2Y-85.72
X148.2Y-88.26
X148.2Y-90.8
X148.73Y-126.67
X148.73Y-129.21
X151.27Y-126.67
X151.27Y-129.21
X153.81Y-126.67
X153.81Y-129.21
X156.35Y-126.67
X156.35Y-129.21
X158.89Y-75.87
X158.89Y-78.41
X158.89Y-80.95
X158.89Y-83.49
X158.89Y-86.03
X158.89Y-88.57
X158.89Y-91.11
X158.89Y-93.65
X158.89Y-96.19
X158.89Y-98.73
X158.89Y-101.27
X158.89Y-103.81
X158.89Y-106.35
X158.89Y-108.89
X158.89Y-111.43
X158.89Y-113.97
X158.89Y-116.51
X158.89Y-119.05
X158.89Y-121.59
X158.89Y-124.13
X161.43Y-75.87
X161.43Y-78.41
X161.43Y-80.95
X161.43Y-83.49
X161.43Y-86.03
X161.43Y-88.57
X161.43Y-91.11
X161.43Y-93.65
X161.43Y-96.19
X161.43Y-98.73
X161.43Y-101.27
X161.43Y-103.81
X161.43Y-106.35
X161.43Y-108.89
X161.43Y-111.43
X161.43Y-113.97
X161.43Y-116.51
X161.43Y-119.05
X161.43Y-121.59
X161.43Y-124.13
T2
G00X145.68Y-73.375
M15
G01X145.68Y-72.575
M16
G05
G00X145.68Y-77.705
M15
G01X145.68Y-76.605
M16
G05
G00X154.32Y-73.375
M15
G01X154.32Y-72.575
M16
G05
G00X154.32Y-77.705
M15
G01X154.32Y-76.605
M16
G05
M30
