%TF.GenerationSoftware,KiCad,Pcbnew,9.0.0*%
%TF.CreationDate,2025-04-02T16:35:11+02:00*%
%TF.ProjectId,stm32f103-core-board,73746d33-3266-4313-9033-2d636f72652d,1*%
%TF.SameCoordinates,Original*%
%TF.FileFunction,Soldermask,Bot*%
%TF.FilePolarity,Negative*%
%FSLAX46Y46*%
G04 Gerber Fmt 4.6, Leading zero omitted, Abs format (unit mm)*
G04 Created by KiCad (PCBNEW 9.0.0) date 2025-04-02 16:35:11*
%MOMM*%
%LPD*%
G01*
G04 APERTURE LIST*
G04 Aperture macros list*
%AMFreePoly0*
4,1,43,0.009881,0.905907,0.083315,0.905907,0.095021,0.904754,0.258448,0.872246,0.269703,0.868832,0.423648,0.805066,0.434021,0.799521,0.572568,0.706947,0.581660,0.699485,0.699485,0.581660,0.706947,0.572568,0.799521,0.434021,0.805066,0.423648,0.868832,0.269703,0.872246,0.258448,0.904754,0.095021,0.905907,0.083315,0.905907,-0.083315,0.904754,-0.095021,0.872246,-0.258448,
0.868832,-0.269703,0.805066,-0.423648,0.799521,-0.434021,0.706947,-0.572568,0.699485,-0.581660,0.581660,-0.699485,0.572568,-0.706947,0.434021,-0.799521,0.423648,-0.805066,0.269703,-0.868832,0.258448,-0.872246,0.095021,-0.904754,0.083315,-0.905907,0.009881,-0.905907,0.000000,-0.910000,-2.540000,-0.910000,-2.582426,-0.892426,-2.600000,-0.850000,-2.600000,0.850000,-2.582426,0.892426,
-2.540000,0.910000,0.000000,0.910000,0.009881,0.905907,0.009881,0.905907,$1*%
G04 Aperture macros list end*
%ADD10O,1.700000X1.700000*%
%ADD11R,1.700000X1.700000*%
%ADD12FreePoly0,0.000000*%
%ADD13C,1.820000*%
%ADD14O,1.000000X1.800000*%
%ADD15O,1.000000X2.100000*%
%ADD16C,0.650000*%
%ADD17FreePoly0,90.000000*%
G04 APERTURE END LIST*
D10*
%TO.C,J1*%
X144600000Y-90800000D03*
X144600000Y-88260001D03*
D11*
X144600000Y-85720001D03*
%TD*%
D12*
%TO.C,J5*%
X161430000Y-124130000D03*
D13*
X158890000Y-124130000D03*
D12*
X161430000Y-121590000D03*
D13*
X158890000Y-121590000D03*
D12*
X161430000Y-119050000D03*
D13*
X158890000Y-119050000D03*
D12*
X161430000Y-116510001D03*
D13*
X158890000Y-116510000D03*
D12*
X161430000Y-113969999D03*
D13*
X158890000Y-113970000D03*
D12*
X161430000Y-111430000D03*
D13*
X158890000Y-111430000D03*
D12*
X161430000Y-108890000D03*
D13*
X158890000Y-108890000D03*
D12*
X161430000Y-106350000D03*
D13*
X158890000Y-106350000D03*
D12*
X161430000Y-103809999D03*
D13*
X158890000Y-103810000D03*
D12*
X161430000Y-101270000D03*
D13*
X158890000Y-101270000D03*
D12*
X161430000Y-98730000D03*
D13*
X158890000Y-98730000D03*
D12*
X161430000Y-96190000D03*
D13*
X158890000Y-96190000D03*
D12*
X161430000Y-93650001D03*
D13*
X158890000Y-93650000D03*
D12*
X161430000Y-91110000D03*
D13*
X158890000Y-91110000D03*
D12*
X161430000Y-88570000D03*
D13*
X158890000Y-88570000D03*
D12*
X161430000Y-86030000D03*
D13*
X158890000Y-86030000D03*
D12*
X161430000Y-83490000D03*
D13*
X158890000Y-83490000D03*
D12*
X161430000Y-80949999D03*
D13*
X158890000Y-80950000D03*
D12*
X161430000Y-78410000D03*
D13*
X158890000Y-78410000D03*
D12*
X161430000Y-75870000D03*
D13*
X158890000Y-75870000D03*
%TD*%
D10*
%TO.C,J2*%
X148200000Y-90800000D03*
X148200000Y-88260001D03*
D11*
X148200000Y-85720001D03*
%TD*%
D12*
%TO.C,J4*%
X141110000Y-124130000D03*
D13*
X138570000Y-124130000D03*
D12*
X141110000Y-121590000D03*
D13*
X138570000Y-121590000D03*
D12*
X141110000Y-119050000D03*
D13*
X138570000Y-119050000D03*
D12*
X141110000Y-116510001D03*
D13*
X138570000Y-116510000D03*
D12*
X141110000Y-113969999D03*
D13*
X138570000Y-113970000D03*
D12*
X141110000Y-111430000D03*
D13*
X138570000Y-111430000D03*
D12*
X141110000Y-108890000D03*
D13*
X138570000Y-108890000D03*
D12*
X141110000Y-106350000D03*
D13*
X138570000Y-106350000D03*
D12*
X141110000Y-103809999D03*
D13*
X138570000Y-103810000D03*
D12*
X141110000Y-101270000D03*
D13*
X138570000Y-101270000D03*
D12*
X141110000Y-98730000D03*
D13*
X138570000Y-98730000D03*
D12*
X141110000Y-96190000D03*
D13*
X138570000Y-96190000D03*
D12*
X141110000Y-93650001D03*
D13*
X138570000Y-93650000D03*
D12*
X141110000Y-91110000D03*
D13*
X138570000Y-91110000D03*
D12*
X141110000Y-88570000D03*
D13*
X138570000Y-88570000D03*
D12*
X141110000Y-86030000D03*
D13*
X138570000Y-86030000D03*
D12*
X141110000Y-83490000D03*
D13*
X138570000Y-83490000D03*
D12*
X141110000Y-80949999D03*
D13*
X138570000Y-80950000D03*
D12*
X141110000Y-78410000D03*
D13*
X138570000Y-78410000D03*
D12*
X141110000Y-75870000D03*
D13*
X138570000Y-75870000D03*
%TD*%
D14*
%TO.C,CN1*%
X154320000Y-72975000D03*
X145680000Y-72975000D03*
D15*
X145680000Y-77155000D03*
X154320000Y-77155000D03*
D16*
X147110000Y-76655000D03*
X152890000Y-76655000D03*
%TD*%
D17*
%TO.C,J3*%
X156350000Y-126670000D03*
D13*
X156350000Y-129210000D03*
D17*
X153810000Y-126670000D03*
D13*
X153810000Y-129210000D03*
D17*
X151270000Y-126670000D03*
D13*
X151270000Y-129210000D03*
D17*
X148729999Y-126670000D03*
D13*
X148730000Y-129210000D03*
D17*
X146190000Y-126670000D03*
D13*
X146190000Y-129210000D03*
D17*
X143650000Y-126670000D03*
D13*
X143650000Y-129210000D03*
%TD*%
M02*
