%TF.GenerationSoftware,KiCad,Pcbnew,9.0.0*%
%TF.CreationDate,2025-04-02T16:35:11+02:00*%
%TF.ProjectId,stm32f103-core-board,73746d33-3266-4313-9033-2d636f72652d,1*%
%TF.SameCoordinates,Original*%
%TF.FileFunction,Legend,Bot*%
%TF.FilePolarity,Positive*%
%FSLAX46Y46*%
G04 Gerber Fmt 4.6, Leading zero omitted, Abs format (unit mm)*
G04 Created by KiCad (PCBNEW 9.0.0) date 2025-04-02 16:35:11*
%MOMM*%
%LPD*%
G01*
G04 APERTURE LIST*
%ADD10C,0.125000*%
G04 APERTURE END LIST*
D10*
G36*
X155710153Y-88191067D02*
G01*
X155734798Y-88207278D01*
X155756500Y-88236830D01*
X155774889Y-88284904D01*
X155788142Y-88358650D01*
X155793349Y-88466761D01*
X155788315Y-88567952D01*
X155775478Y-88637227D01*
X155757601Y-88682625D01*
X155736380Y-88710734D01*
X155712102Y-88726281D01*
X155683488Y-88731472D01*
X155656015Y-88726296D01*
X155632499Y-88710666D01*
X155611731Y-88682082D01*
X155594095Y-88635451D01*
X155581367Y-88563776D01*
X155576363Y-88458555D01*
X155581299Y-88353028D01*
X155593841Y-88281274D01*
X155611189Y-88234715D01*
X155631558Y-88206280D01*
X155654535Y-88190798D01*
X155681290Y-88185687D01*
X155710153Y-88191067D01*
G37*
G36*
X157053751Y-88240774D02*
G01*
X157062630Y-88274933D01*
X157147919Y-88541695D01*
X156947347Y-88541695D01*
X157031513Y-88277082D01*
X157039177Y-88246037D01*
X157044605Y-88206594D01*
X157049001Y-88206594D01*
X157053751Y-88240774D01*
G37*
G36*
X157520960Y-88952594D02*
G01*
X155311522Y-88952594D01*
X155311522Y-88453133D01*
X155400411Y-88453133D01*
X155400646Y-88458555D01*
X155404006Y-88535918D01*
X155414066Y-88606199D01*
X155429665Y-88665644D01*
X155450116Y-88715747D01*
X155475002Y-88757801D01*
X155507548Y-88796041D01*
X155544475Y-88825222D01*
X155586333Y-88846195D01*
X155634070Y-88859173D01*
X155688959Y-88863705D01*
X155747156Y-88858950D01*
X155775575Y-88851200D01*
X156195812Y-88851200D01*
X156367954Y-88851200D01*
X156658799Y-88851200D01*
X156851164Y-88851200D01*
X156906900Y-88677250D01*
X157185630Y-88677250D01*
X157240780Y-88851200D01*
X157432071Y-88851200D01*
X157146796Y-88066496D01*
X156937480Y-88066496D01*
X156768717Y-88541695D01*
X156658799Y-88851200D01*
X156367954Y-88851200D01*
X156367954Y-88245233D01*
X156401562Y-88268973D01*
X156442839Y-88289197D01*
X156488171Y-88304486D01*
X156534626Y-88313474D01*
X156534626Y-88168101D01*
X156468980Y-88145603D01*
X156407864Y-88117934D01*
X156350451Y-88085465D01*
X156300201Y-88050865D01*
X156195812Y-88050865D01*
X156195812Y-88851200D01*
X155775575Y-88851200D01*
X155796517Y-88845489D01*
X155838663Y-88823976D01*
X155874794Y-88794292D01*
X155905590Y-88755562D01*
X155931145Y-88706230D01*
X155950965Y-88644170D01*
X155964009Y-88566789D01*
X155968764Y-88471109D01*
X155965094Y-88386110D01*
X155954846Y-88314254D01*
X155938994Y-88253764D01*
X155918263Y-88203048D01*
X155893097Y-88160725D01*
X155860131Y-88122338D01*
X155822497Y-88092947D01*
X155779601Y-88071751D01*
X155730438Y-88058596D01*
X155673670Y-88053991D01*
X155617425Y-88058719D01*
X155569574Y-88072133D01*
X155528549Y-88093651D01*
X155493210Y-88123479D01*
X155462943Y-88162595D01*
X155437719Y-88212661D01*
X155418089Y-88275910D01*
X155405138Y-88355039D01*
X155400411Y-88453133D01*
X155311522Y-88453133D01*
X155311522Y-87961976D01*
X157520960Y-87961976D01*
X157520960Y-88952594D01*
G37*
G36*
X157053751Y-80620774D02*
G01*
X157062630Y-80654933D01*
X157147919Y-80921695D01*
X156947347Y-80921695D01*
X157031513Y-80657082D01*
X157039177Y-80626037D01*
X157044605Y-80586594D01*
X157049001Y-80586594D01*
X157053751Y-80620774D01*
G37*
G36*
X157520960Y-81332594D02*
G01*
X155354166Y-81332594D01*
X155354166Y-81006008D01*
X155443055Y-81006008D01*
X155448343Y-81059328D01*
X155463503Y-81105122D01*
X155488265Y-81144935D01*
X155523411Y-81179762D01*
X155564771Y-81206405D01*
X155614406Y-81226353D01*
X155673914Y-81239131D01*
X155745233Y-81243705D01*
X155825510Y-81238739D01*
X155861309Y-81231200D01*
X156195812Y-81231200D01*
X156367954Y-81231200D01*
X156658799Y-81231200D01*
X156851164Y-81231200D01*
X156906900Y-81057250D01*
X157185630Y-81057250D01*
X157240780Y-81231200D01*
X157432071Y-81231200D01*
X157146796Y-80446496D01*
X156937480Y-80446496D01*
X156768717Y-80921695D01*
X156658799Y-81231200D01*
X156367954Y-81231200D01*
X156367954Y-80625233D01*
X156401562Y-80648973D01*
X156442839Y-80669197D01*
X156488171Y-80684486D01*
X156534626Y-80693474D01*
X156534626Y-80548101D01*
X156468980Y-80525603D01*
X156407864Y-80497934D01*
X156350451Y-80465465D01*
X156300201Y-80430865D01*
X156195812Y-80430865D01*
X156195812Y-81231200D01*
X155861309Y-81231200D01*
X155890365Y-81225081D01*
X155942532Y-81204137D01*
X155942532Y-81053000D01*
X155901819Y-81078440D01*
X155858062Y-81096603D01*
X155810670Y-81107677D01*
X155758910Y-81111472D01*
X155715628Y-81107887D01*
X155681971Y-81098108D01*
X155655889Y-81083042D01*
X155635521Y-81061780D01*
X155623299Y-81035865D01*
X155619008Y-81003809D01*
X155624134Y-80971340D01*
X155638996Y-80944889D01*
X155664633Y-80922916D01*
X155696358Y-80907969D01*
X155737392Y-80898117D01*
X155790076Y-80894486D01*
X155862762Y-80894486D01*
X155862762Y-80762253D01*
X155795547Y-80762253D01*
X155741581Y-80758387D01*
X155702882Y-80748248D01*
X155675772Y-80733403D01*
X155657475Y-80714428D01*
X155646421Y-80690798D01*
X155642504Y-80660990D01*
X155647257Y-80626508D01*
X155660334Y-80601199D01*
X155681708Y-80582685D01*
X155713598Y-80570387D01*
X155759985Y-80565687D01*
X155811034Y-80571003D01*
X155861743Y-80587208D01*
X155913027Y-80615317D01*
X155913027Y-80475268D01*
X155856638Y-80452837D01*
X155792952Y-80438867D01*
X155720662Y-80433991D01*
X155660009Y-80437877D01*
X155609700Y-80448705D01*
X155568010Y-80465561D01*
X155533523Y-80488017D01*
X155503914Y-80517401D01*
X155483302Y-80550026D01*
X155470847Y-80586583D01*
X155466552Y-80628164D01*
X155471176Y-80677593D01*
X155484176Y-80718334D01*
X155504950Y-80752152D01*
X155533882Y-80780221D01*
X155572287Y-80803004D01*
X155622281Y-80820188D01*
X155622281Y-80822923D01*
X155569083Y-80834811D01*
X155526007Y-80855040D01*
X155491171Y-80883300D01*
X155464492Y-80919072D01*
X155448545Y-80959489D01*
X155443055Y-81006008D01*
X155354166Y-81006008D01*
X155354166Y-80341976D01*
X157520960Y-80341976D01*
X157520960Y-81332594D01*
G37*
G36*
X156352040Y-93591518D02*
G01*
X156374011Y-93597857D01*
X156393912Y-93608172D01*
X156410599Y-93621939D01*
X156424172Y-93638839D01*
X156434633Y-93658869D01*
X156441143Y-93680880D01*
X156443376Y-93705324D01*
X156441242Y-93731252D01*
X156435170Y-93753488D01*
X156425092Y-93773317D01*
X156411674Y-93789587D01*
X156395071Y-93802562D01*
X156375330Y-93812302D01*
X156353435Y-93818161D01*
X156328045Y-93820216D01*
X156303652Y-93818110D01*
X156281883Y-93812009D01*
X156262134Y-93802080D01*
X156245540Y-93789050D01*
X156232002Y-93772798D01*
X156221506Y-93752951D01*
X156215019Y-93730754D01*
X156212762Y-93705324D01*
X156214827Y-93682292D01*
X156220969Y-93660481D01*
X156231013Y-93640471D01*
X156244465Y-93623551D01*
X156261080Y-93609623D01*
X156280808Y-93598687D01*
X156302770Y-93591764D01*
X156328045Y-93589357D01*
X156352040Y-93591518D01*
G37*
G36*
X156345984Y-93260100D02*
G01*
X156363900Y-93266029D01*
X156379945Y-93275362D01*
X156393404Y-93287327D01*
X156404223Y-93301801D01*
X156412504Y-93319029D01*
X156417607Y-93337822D01*
X156419343Y-93358157D01*
X156417476Y-93378426D01*
X156411967Y-93397236D01*
X156403209Y-93414471D01*
X156392037Y-93428987D01*
X156378329Y-93440913D01*
X156362239Y-93450041D01*
X156344560Y-93455750D01*
X156325896Y-93457661D01*
X156306765Y-93455730D01*
X156289259Y-93450041D01*
X156273350Y-93440881D01*
X156259462Y-93428694D01*
X156248028Y-93414001D01*
X156239238Y-93396992D01*
X156233734Y-93378391D01*
X156231862Y-93358157D01*
X156233681Y-93337368D01*
X156238994Y-93318492D01*
X156247587Y-93301297D01*
X156258924Y-93286789D01*
X156272845Y-93274827D01*
X156289015Y-93265735D01*
X156306732Y-93260004D01*
X156325896Y-93258066D01*
X156345984Y-93260100D01*
G37*
G36*
X157053751Y-93320774D02*
G01*
X157062630Y-93354933D01*
X157147919Y-93621695D01*
X156947347Y-93621695D01*
X157031513Y-93357082D01*
X157039177Y-93326037D01*
X157044605Y-93286594D01*
X157049001Y-93286594D01*
X157053751Y-93320774D01*
G37*
G36*
X157520960Y-94032594D02*
G01*
X155961550Y-94032594D01*
X155961550Y-93718415D01*
X156050439Y-93718415D01*
X156055607Y-93766979D01*
X156070662Y-93810006D01*
X156094942Y-93848279D01*
X156127766Y-93881081D01*
X156167528Y-93907178D01*
X156215742Y-93927292D01*
X156268522Y-93939456D01*
X156328631Y-93943705D01*
X156387724Y-93939551D01*
X156424450Y-93931200D01*
X156658799Y-93931200D01*
X156851164Y-93931200D01*
X156906900Y-93757250D01*
X157185630Y-93757250D01*
X157240780Y-93931200D01*
X157432071Y-93931200D01*
X157146796Y-93146496D01*
X156937480Y-93146496D01*
X156768717Y-93621695D01*
X156658799Y-93931200D01*
X156424450Y-93931200D01*
X156440348Y-93927585D01*
X156488582Y-93907765D01*
X156528373Y-93881960D01*
X156561303Y-93849378D01*
X156586014Y-93811130D01*
X156601492Y-93768109D01*
X156606775Y-93720076D01*
X156604363Y-93687753D01*
X156597201Y-93656915D01*
X156585269Y-93627713D01*
X156568526Y-93600592D01*
X156547251Y-93576233D01*
X156520704Y-93554137D01*
X156490092Y-93535779D01*
X156453195Y-93520481D01*
X156490891Y-93498281D01*
X156521386Y-93473060D01*
X156545568Y-93444765D01*
X156563844Y-93412689D01*
X156574686Y-93378761D01*
X156578345Y-93342281D01*
X156573573Y-93298831D01*
X156559489Y-93259190D01*
X156537073Y-93223574D01*
X156507319Y-93193049D01*
X156471311Y-93168538D01*
X156427794Y-93149574D01*
X156380221Y-93137998D01*
X156326970Y-93133991D01*
X156272740Y-93138012D01*
X156224779Y-93149574D01*
X156180948Y-93168479D01*
X156144716Y-93192756D01*
X156114765Y-93223027D01*
X156092546Y-93258115D01*
X156078646Y-93297207D01*
X156073935Y-93340083D01*
X156075880Y-93358157D01*
X156077811Y-93376106D01*
X156089339Y-93409673D01*
X156108910Y-93441541D01*
X156134414Y-93469441D01*
X156166347Y-93494484D01*
X156205630Y-93516671D01*
X156169158Y-93531928D01*
X156138415Y-93550327D01*
X156111550Y-93572470D01*
X156089810Y-93597075D01*
X156072572Y-93624517D01*
X156060306Y-93654228D01*
X156052922Y-93685605D01*
X156051430Y-93705324D01*
X156050439Y-93718415D01*
X155961550Y-93718415D01*
X155961550Y-93045102D01*
X157520960Y-93045102D01*
X157520960Y-94032594D01*
G37*
G36*
X157053751Y-85700774D02*
G01*
X157062630Y-85734933D01*
X157147919Y-86001695D01*
X156947347Y-86001695D01*
X157031513Y-85737082D01*
X157039177Y-85706037D01*
X157044605Y-85666594D01*
X157049001Y-85666594D01*
X157053751Y-85700774D01*
G37*
G36*
X157520960Y-86400089D02*
G01*
X155462903Y-86400089D01*
X155462903Y-86311200D01*
X155551792Y-86311200D01*
X155723935Y-86311200D01*
X156195812Y-86311200D01*
X156367954Y-86311200D01*
X156658799Y-86311200D01*
X156851164Y-86311200D01*
X156906900Y-86137250D01*
X157185630Y-86137250D01*
X157240780Y-86311200D01*
X157432071Y-86311200D01*
X157146796Y-85526496D01*
X156937480Y-85526496D01*
X156768717Y-86001695D01*
X156658799Y-86311200D01*
X156367954Y-86311200D01*
X156367954Y-85705233D01*
X156401562Y-85728973D01*
X156442839Y-85749197D01*
X156488171Y-85764486D01*
X156534626Y-85773474D01*
X156534626Y-85628101D01*
X156468980Y-85605603D01*
X156407864Y-85577934D01*
X156350451Y-85545465D01*
X156300201Y-85510865D01*
X156195812Y-85510865D01*
X156195812Y-86311200D01*
X155723935Y-86311200D01*
X155723935Y-85705233D01*
X155757543Y-85728973D01*
X155798820Y-85749197D01*
X155844151Y-85764486D01*
X155890606Y-85773474D01*
X155890606Y-85628101D01*
X155824961Y-85605603D01*
X155763844Y-85577934D01*
X155706431Y-85545465D01*
X155656182Y-85510865D01*
X155551792Y-85510865D01*
X155551792Y-86311200D01*
X155462903Y-86311200D01*
X155462903Y-85421976D01*
X157520960Y-85421976D01*
X157520960Y-86400089D01*
G37*
G36*
X157053751Y-106020774D02*
G01*
X157062630Y-106054933D01*
X157147919Y-106321695D01*
X156947347Y-106321695D01*
X157031513Y-106057082D01*
X157039177Y-106026037D01*
X157044605Y-105986594D01*
X157049001Y-105986594D01*
X157053751Y-106020774D01*
G37*
G36*
X157520960Y-106732594D02*
G01*
X155998186Y-106732594D01*
X155998186Y-106406008D01*
X156087075Y-106406008D01*
X156092363Y-106459328D01*
X156107522Y-106505122D01*
X156132284Y-106544935D01*
X156167431Y-106579762D01*
X156208790Y-106606405D01*
X156258425Y-106626353D01*
X156317933Y-106639131D01*
X156389252Y-106643705D01*
X156469530Y-106638739D01*
X156505329Y-106631200D01*
X156658799Y-106631200D01*
X156851164Y-106631200D01*
X156906900Y-106457250D01*
X157185630Y-106457250D01*
X157240780Y-106631200D01*
X157432071Y-106631200D01*
X157146796Y-105846496D01*
X156937480Y-105846496D01*
X156768717Y-106321695D01*
X156658799Y-106631200D01*
X156505329Y-106631200D01*
X156534385Y-106625081D01*
X156586552Y-106604137D01*
X156586552Y-106453000D01*
X156545839Y-106478440D01*
X156502081Y-106496603D01*
X156454690Y-106507677D01*
X156402930Y-106511472D01*
X156359648Y-106507887D01*
X156325990Y-106498108D01*
X156299908Y-106483042D01*
X156279541Y-106461780D01*
X156267319Y-106435865D01*
X156263027Y-106403809D01*
X156268153Y-106371340D01*
X156283015Y-106344889D01*
X156308652Y-106322916D01*
X156340378Y-106307969D01*
X156381411Y-106298117D01*
X156434095Y-106294486D01*
X156506782Y-106294486D01*
X156506782Y-106162253D01*
X156439566Y-106162253D01*
X156385601Y-106158387D01*
X156346902Y-106148248D01*
X156319791Y-106133403D01*
X156301495Y-106114428D01*
X156290440Y-106090798D01*
X156286524Y-106060990D01*
X156291276Y-106026508D01*
X156304353Y-106001199D01*
X156325728Y-105982685D01*
X156357617Y-105970387D01*
X156404004Y-105965687D01*
X156455053Y-105971003D01*
X156505762Y-105987208D01*
X156557047Y-106015317D01*
X156557047Y-105875268D01*
X156500658Y-105852837D01*
X156436972Y-105838867D01*
X156364681Y-105833991D01*
X156304029Y-105837877D01*
X156253719Y-105848705D01*
X156212030Y-105865561D01*
X156177543Y-105888017D01*
X156147933Y-105917401D01*
X156127322Y-105950026D01*
X156114867Y-105986583D01*
X156110571Y-106028164D01*
X156115196Y-106077593D01*
X156128195Y-106118334D01*
X156148970Y-106152152D01*
X156177901Y-106180221D01*
X156216307Y-106203004D01*
X156266300Y-106220188D01*
X156266300Y-106222923D01*
X156213103Y-106234811D01*
X156170026Y-106255040D01*
X156135191Y-106283300D01*
X156108512Y-106319072D01*
X156092565Y-106359489D01*
X156087075Y-106406008D01*
X155998186Y-106406008D01*
X155998186Y-105745102D01*
X157520960Y-105745102D01*
X157520960Y-106732594D01*
G37*
G36*
X157053751Y-95860774D02*
G01*
X157062630Y-95894933D01*
X157147919Y-96161695D01*
X156947347Y-96161695D01*
X157031513Y-95897082D01*
X157039177Y-95866037D01*
X157044605Y-95826594D01*
X157049001Y-95826594D01*
X157053751Y-95860774D01*
G37*
G36*
X157520960Y-96560089D02*
G01*
X155963748Y-96560089D01*
X155963748Y-95785952D01*
X156052637Y-95785952D01*
X156146621Y-95963565D01*
X156185999Y-96046619D01*
X156219845Y-96127208D01*
X156249239Y-96208673D01*
X156273970Y-96291437D01*
X156294015Y-96376685D01*
X156310557Y-96471200D01*
X156490906Y-96471200D01*
X156658799Y-96471200D01*
X156851164Y-96471200D01*
X156906900Y-96297250D01*
X157185630Y-96297250D01*
X157240780Y-96471200D01*
X157432071Y-96471200D01*
X157146796Y-95686496D01*
X156937480Y-95686496D01*
X156768717Y-96161695D01*
X156658799Y-96471200D01*
X156490906Y-96471200D01*
X156473048Y-96380944D01*
X156450508Y-96294954D01*
X156423281Y-96211152D01*
X156392281Y-96130481D01*
X156357402Y-96051768D01*
X156319057Y-95975289D01*
X156234060Y-95827473D01*
X156598031Y-95827473D01*
X156598031Y-95686496D01*
X156052637Y-95686496D01*
X156052637Y-95785952D01*
X155963748Y-95785952D01*
X155963748Y-95597607D01*
X157520960Y-95597607D01*
X157520960Y-96560089D01*
G37*
G36*
X156357911Y-90728197D02*
G01*
X156377529Y-90735603D01*
X156394979Y-90747265D01*
X156410013Y-90762763D01*
X156422000Y-90781376D01*
X156431360Y-90804186D01*
X156437028Y-90828960D01*
X156438980Y-90856308D01*
X156436974Y-90886075D01*
X156431360Y-90910969D01*
X156421928Y-90933346D01*
X156409769Y-90951318D01*
X156394363Y-90965803D01*
X156376161Y-90976280D01*
X156355695Y-90982594D01*
X156332441Y-90984779D01*
X156310310Y-90982461D01*
X156290920Y-90975742D01*
X156273582Y-90965068D01*
X156258924Y-90951318D01*
X156247145Y-90934743D01*
X156238164Y-90915072D01*
X156232672Y-90893628D01*
X156230787Y-90870034D01*
X156232745Y-90840440D01*
X156238457Y-90813223D01*
X156247807Y-90787996D01*
X156259755Y-90767403D01*
X156275014Y-90750124D01*
X156293118Y-90736971D01*
X156313622Y-90728533D01*
X156336252Y-90725687D01*
X156357911Y-90728197D01*
G37*
G36*
X157053751Y-90780774D02*
G01*
X157062630Y-90814933D01*
X157147919Y-91081695D01*
X156947347Y-91081695D01*
X157031513Y-90817082D01*
X157039177Y-90786037D01*
X157044605Y-90746594D01*
X157049001Y-90746594D01*
X157053751Y-90780774D01*
G37*
G36*
X157520960Y-91492594D02*
G01*
X155967558Y-91492594D01*
X155967558Y-90960892D01*
X156056447Y-90960892D01*
X156059180Y-91030231D01*
X156066997Y-91092120D01*
X156079406Y-91147347D01*
X156097653Y-91200779D01*
X156120047Y-91246812D01*
X156146377Y-91286322D01*
X156178028Y-91321399D01*
X156213694Y-91350298D01*
X156253746Y-91373419D01*
X156296965Y-91389971D01*
X156344611Y-91400177D01*
X156397459Y-91403705D01*
X156461046Y-91400015D01*
X156507334Y-91391200D01*
X156658799Y-91391200D01*
X156851164Y-91391200D01*
X156906900Y-91217250D01*
X157185630Y-91217250D01*
X157240780Y-91391200D01*
X157432071Y-91391200D01*
X157146796Y-90606496D01*
X156937480Y-90606496D01*
X156768717Y-91081695D01*
X156658799Y-91391200D01*
X156507334Y-91391200D01*
X156515820Y-91389584D01*
X156563055Y-91373126D01*
X156563055Y-91231025D01*
X156520229Y-91253057D01*
X156471142Y-91266699D01*
X156414409Y-91271472D01*
X156370838Y-91267423D01*
X156333892Y-91255906D01*
X156302271Y-91237306D01*
X156275093Y-91211241D01*
X156254295Y-91180135D01*
X156238499Y-91141778D01*
X156228167Y-91094672D01*
X156224242Y-91036999D01*
X156227515Y-91035924D01*
X156256514Y-91069429D01*
X156291577Y-91093198D01*
X156333902Y-91107962D01*
X156385442Y-91113202D01*
X156432087Y-91108600D01*
X156474249Y-91095128D01*
X156512290Y-91073509D01*
X156544737Y-91045010D01*
X156571024Y-91010258D01*
X156591192Y-90968611D01*
X156603567Y-90922747D01*
X156607850Y-90871109D01*
X156602640Y-90811116D01*
X156587626Y-90758317D01*
X156563167Y-90710616D01*
X156531060Y-90670683D01*
X156491393Y-90638328D01*
X156443914Y-90613970D01*
X156391188Y-90599137D01*
X156331318Y-90593991D01*
X156289272Y-90596877D01*
X156251228Y-90605245D01*
X156216573Y-90618855D01*
X156184501Y-90637755D01*
X156155722Y-90661563D01*
X156129964Y-90690662D01*
X156108561Y-90723281D01*
X156090278Y-90761425D01*
X156075302Y-90805847D01*
X156062718Y-90870034D01*
X156061411Y-90876698D01*
X156056447Y-90960892D01*
X155967558Y-90960892D01*
X155967558Y-90505102D01*
X157520960Y-90505102D01*
X157520960Y-91492594D01*
G37*
G36*
X155685149Y-78199783D02*
G01*
X155732141Y-78271786D01*
X155781869Y-78340467D01*
X155830522Y-78402798D01*
X155643579Y-78402798D01*
X155643579Y-78127536D01*
X155685149Y-78199783D01*
G37*
G36*
X157053751Y-78080774D02*
G01*
X157062630Y-78114933D01*
X157147919Y-78381695D01*
X156947347Y-78381695D01*
X157031513Y-78117082D01*
X157039177Y-78086037D01*
X157044605Y-78046594D01*
X157049001Y-78046594D01*
X157053751Y-78080774D01*
G37*
G36*
X157520960Y-78780089D02*
G01*
X155303315Y-78780089D01*
X155303315Y-78402798D01*
X155392204Y-78402798D01*
X155392204Y-78531758D01*
X155486189Y-78531758D01*
X155486189Y-78691200D01*
X155643579Y-78691200D01*
X156195812Y-78691200D01*
X156367954Y-78691200D01*
X156658799Y-78691200D01*
X156851164Y-78691200D01*
X156906900Y-78517250D01*
X157185630Y-78517250D01*
X157240780Y-78691200D01*
X157432071Y-78691200D01*
X157146796Y-77906496D01*
X156937480Y-77906496D01*
X156768717Y-78381695D01*
X156658799Y-78691200D01*
X156367954Y-78691200D01*
X156367954Y-78085233D01*
X156401562Y-78108973D01*
X156442839Y-78129197D01*
X156488171Y-78144486D01*
X156534626Y-78153474D01*
X156534626Y-78008101D01*
X156468980Y-77985603D01*
X156407864Y-77957934D01*
X156350451Y-77925465D01*
X156300201Y-77890865D01*
X156195812Y-77890865D01*
X156195812Y-78691200D01*
X155643579Y-78691200D01*
X155643579Y-78531758D01*
X155985177Y-78531758D01*
X155985177Y-78396789D01*
X155891192Y-78285072D01*
X155797159Y-78160167D01*
X155712700Y-78030865D01*
X155675903Y-77966001D01*
X155646314Y-77906496D01*
X155486189Y-77906496D01*
X155486189Y-78402798D01*
X155392204Y-78402798D01*
X155303315Y-78402798D01*
X155303315Y-77801976D01*
X157520960Y-77801976D01*
X157520960Y-78780089D01*
G37*
G36*
X157053751Y-100940774D02*
G01*
X157062630Y-100974933D01*
X157147919Y-101241695D01*
X156947347Y-101241695D01*
X157031513Y-100977082D01*
X157039177Y-100946037D01*
X157044605Y-100906594D01*
X157049001Y-100906594D01*
X157053751Y-100940774D01*
G37*
G36*
X157520960Y-101652594D02*
G01*
X155991591Y-101652594D01*
X155991591Y-101294549D01*
X156080480Y-101294549D01*
X156085817Y-101352475D01*
X156101202Y-101403245D01*
X156126361Y-101448255D01*
X156161911Y-101488478D01*
X156204554Y-101520385D01*
X156254557Y-101543764D01*
X156313334Y-101558490D01*
X156382706Y-101563705D01*
X156457664Y-101559536D01*
X156502658Y-101551200D01*
X156658799Y-101551200D01*
X156851164Y-101551200D01*
X156906900Y-101377250D01*
X157185630Y-101377250D01*
X157240780Y-101551200D01*
X157432071Y-101551200D01*
X157146796Y-100766496D01*
X156937480Y-100766496D01*
X156768717Y-101241695D01*
X156658799Y-101551200D01*
X156502658Y-101551200D01*
X156520427Y-101547908D01*
X156572874Y-101529853D01*
X156572874Y-101382379D01*
X156517688Y-101409844D01*
X156460978Y-101426053D01*
X156401855Y-101431472D01*
X156357386Y-101427423D01*
X156322461Y-101416288D01*
X156295023Y-101398890D01*
X156273795Y-101374866D01*
X156260981Y-101345891D01*
X156256482Y-101310425D01*
X156260852Y-101275482D01*
X156273092Y-101248039D01*
X156293110Y-101226271D01*
X156322388Y-101209442D01*
X156363735Y-101198049D01*
X156420955Y-101193726D01*
X156483788Y-101195884D01*
X156560857Y-101203007D01*
X156531353Y-100766496D01*
X156116579Y-100766496D01*
X156116579Y-100907473D01*
X156399657Y-100907473D01*
X156410599Y-101063642D01*
X156337912Y-101060369D01*
X156277607Y-101064820D01*
X156227057Y-101077323D01*
X156184569Y-101097053D01*
X156148820Y-101123823D01*
X156119345Y-101157677D01*
X156098196Y-101196674D01*
X156085082Y-101241827D01*
X156080480Y-101294549D01*
X155991591Y-101294549D01*
X155991591Y-100677607D01*
X157520960Y-100677607D01*
X157520960Y-101652594D01*
G37*
G36*
X156338728Y-98637983D02*
G01*
X156358673Y-98644444D01*
X156376472Y-98654911D01*
X156391499Y-98668869D01*
X156403454Y-98685832D01*
X156412504Y-98706042D01*
X156417971Y-98728234D01*
X156419880Y-98753572D01*
X156417930Y-98781719D01*
X156412260Y-98807354D01*
X156402877Y-98831056D01*
X156390669Y-98851025D01*
X156375295Y-98867888D01*
X156357598Y-98880627D01*
X156337535Y-98888717D01*
X156314954Y-98891472D01*
X156292337Y-98889039D01*
X156272602Y-98881995D01*
X156255168Y-98870621D01*
X156240362Y-98855373D01*
X156228740Y-98836893D01*
X156219894Y-98814144D01*
X156214605Y-98789246D01*
X156212762Y-98761144D01*
X156217821Y-98711778D01*
X156231079Y-98677765D01*
X156251093Y-98654895D01*
X156278540Y-98640861D01*
X156316028Y-98635749D01*
X156338728Y-98637983D01*
G37*
G36*
X157053751Y-98400774D02*
G01*
X157062630Y-98434933D01*
X157147919Y-98701695D01*
X156947347Y-98701695D01*
X157031513Y-98437082D01*
X157039177Y-98406037D01*
X157044605Y-98366594D01*
X157049001Y-98366594D01*
X157053751Y-98400774D01*
G37*
G36*
X157520960Y-99112594D02*
G01*
X155955004Y-99112594D01*
X155955004Y-98750250D01*
X156043893Y-98750250D01*
X156044888Y-98761144D01*
X156049030Y-98806518D01*
X156064116Y-98858108D01*
X156088471Y-98905143D01*
X156120439Y-98945010D01*
X156159660Y-98977644D01*
X156206217Y-99002749D01*
X156257670Y-99018350D01*
X156314954Y-99023705D01*
X156358464Y-99020841D01*
X156397691Y-99012558D01*
X156401290Y-99011200D01*
X156658799Y-99011200D01*
X156851164Y-99011200D01*
X156906900Y-98837250D01*
X157185630Y-98837250D01*
X157240780Y-99011200D01*
X157432071Y-99011200D01*
X157146796Y-98226496D01*
X156937480Y-98226496D01*
X156768717Y-98701695D01*
X156658799Y-99011200D01*
X156401290Y-99011200D01*
X156433265Y-98999134D01*
X156466207Y-98980336D01*
X156495525Y-98956709D01*
X156521534Y-98927913D01*
X156543119Y-98895448D01*
X156561578Y-98857557D01*
X156576733Y-98813509D01*
X156590812Y-98743243D01*
X156595833Y-98660076D01*
X156592912Y-98593047D01*
X156584487Y-98532204D01*
X156570969Y-98476894D01*
X156551496Y-98423528D01*
X156527772Y-98376913D01*
X156499943Y-98336308D01*
X156466802Y-98300127D01*
X156429666Y-98270133D01*
X156388178Y-98245938D01*
X156343440Y-98228435D01*
X156294504Y-98217691D01*
X156240606Y-98213991D01*
X156179951Y-98216810D01*
X156133917Y-98224310D01*
X156099629Y-98235289D01*
X156099629Y-98379539D01*
X156140447Y-98360768D01*
X156183587Y-98349502D01*
X156229713Y-98345687D01*
X156271889Y-98350059D01*
X156308945Y-98362735D01*
X156341855Y-98383231D01*
X156369908Y-98410997D01*
X156392228Y-98444822D01*
X156409817Y-98486468D01*
X156420777Y-98532201D01*
X156425351Y-98584947D01*
X156422078Y-98584947D01*
X156391320Y-98551580D01*
X156354558Y-98527835D01*
X156310594Y-98513086D01*
X156257556Y-98507864D01*
X156210610Y-98512356D01*
X156169629Y-98525303D01*
X156133067Y-98546398D01*
X156102413Y-98574591D01*
X156077963Y-98609137D01*
X156059231Y-98651137D01*
X156047865Y-98697358D01*
X156043893Y-98750250D01*
X155955004Y-98750250D01*
X155955004Y-98125102D01*
X157520960Y-98125102D01*
X157520960Y-99112594D01*
G37*
G36*
X156329168Y-103599783D02*
G01*
X156376161Y-103671786D01*
X156425889Y-103740467D01*
X156474542Y-103802798D01*
X156287598Y-103802798D01*
X156287598Y-103527536D01*
X156329168Y-103599783D01*
G37*
G36*
X157053751Y-103480774D02*
G01*
X157062630Y-103514933D01*
X157147919Y-103781695D01*
X156947347Y-103781695D01*
X157031513Y-103517082D01*
X157039177Y-103486037D01*
X157044605Y-103446594D01*
X157049001Y-103446594D01*
X157053751Y-103480774D01*
G37*
G36*
X157520960Y-104180089D02*
G01*
X155947335Y-104180089D01*
X155947335Y-103802798D01*
X156036224Y-103802798D01*
X156036224Y-103931758D01*
X156130208Y-103931758D01*
X156130208Y-104091200D01*
X156287598Y-104091200D01*
X156658799Y-104091200D01*
X156851164Y-104091200D01*
X156906900Y-103917250D01*
X157185630Y-103917250D01*
X157240780Y-104091200D01*
X157432071Y-104091200D01*
X157146796Y-103306496D01*
X156937480Y-103306496D01*
X156768717Y-103781695D01*
X156658799Y-104091200D01*
X156287598Y-104091200D01*
X156287598Y-103931758D01*
X156629196Y-103931758D01*
X156629196Y-103796789D01*
X156535212Y-103685072D01*
X156441178Y-103560167D01*
X156356719Y-103430865D01*
X156319923Y-103366001D01*
X156290334Y-103306496D01*
X156130208Y-103306496D01*
X156130208Y-103802798D01*
X156036224Y-103802798D01*
X155947335Y-103802798D01*
X155947335Y-103217607D01*
X157520960Y-103217607D01*
X157520960Y-104180089D01*
G37*
G36*
X157053751Y-83160774D02*
G01*
X157062630Y-83194933D01*
X157147919Y-83461695D01*
X156947347Y-83461695D01*
X157031513Y-83197082D01*
X157039177Y-83166037D01*
X157044605Y-83126594D01*
X157049001Y-83126594D01*
X157053751Y-83160774D01*
G37*
G36*
X157520960Y-83860089D02*
G01*
X155349770Y-83860089D01*
X155349770Y-83196496D01*
X155438659Y-83196496D01*
X155443024Y-83248690D01*
X155455365Y-83292728D01*
X155474827Y-83333036D01*
X155499622Y-83369273D01*
X155529168Y-83402118D01*
X155563272Y-83432435D01*
X155638157Y-83487927D01*
X155688715Y-83524905D01*
X155731604Y-83561004D01*
X155761108Y-83595735D01*
X155769504Y-83612851D01*
X155772051Y-83628024D01*
X155439783Y-83628024D01*
X155439783Y-83771200D01*
X155961094Y-83771200D01*
X156195812Y-83771200D01*
X156367954Y-83771200D01*
X156658799Y-83771200D01*
X156851164Y-83771200D01*
X156906900Y-83597250D01*
X157185630Y-83597250D01*
X157240780Y-83771200D01*
X157432071Y-83771200D01*
X157146796Y-82986496D01*
X156937480Y-82986496D01*
X156768717Y-83461695D01*
X156658799Y-83771200D01*
X156367954Y-83771200D01*
X156367954Y-83165233D01*
X156401562Y-83188973D01*
X156442839Y-83209197D01*
X156488171Y-83224486D01*
X156534626Y-83233474D01*
X156534626Y-83088101D01*
X156468980Y-83065603D01*
X156407864Y-83037934D01*
X156350451Y-83005465D01*
X156300201Y-82970865D01*
X156195812Y-82970865D01*
X156195812Y-83771200D01*
X155961094Y-83771200D01*
X155961094Y-83712190D01*
X155955854Y-83654145D01*
X155940871Y-83604186D01*
X155917864Y-83558452D01*
X155890069Y-83518310D01*
X155857839Y-83482306D01*
X155823146Y-83451046D01*
X155753977Y-83398290D01*
X155693649Y-83351297D01*
X155649929Y-83306747D01*
X155634147Y-83284006D01*
X155623404Y-83261904D01*
X155616875Y-83238604D01*
X155614660Y-83213495D01*
X155618175Y-83181130D01*
X155627824Y-83156378D01*
X155643090Y-83137438D01*
X155663595Y-83123943D01*
X155691743Y-83115031D01*
X155729943Y-83111695D01*
X155778504Y-83116474D01*
X155826427Y-83130972D01*
X155874508Y-83155953D01*
X155923383Y-83192832D01*
X155923383Y-83040376D01*
X155870902Y-83011449D01*
X155815386Y-82990804D01*
X155756244Y-82978264D01*
X155692769Y-82973991D01*
X155635082Y-82978065D01*
X155585937Y-82989574D01*
X155541639Y-83008860D01*
X155505875Y-83034123D01*
X155477060Y-83066074D01*
X155455903Y-83104368D01*
X155443108Y-83147309D01*
X155438659Y-83196496D01*
X155349770Y-83196496D01*
X155349770Y-82881976D01*
X157520960Y-82881976D01*
X157520960Y-83860089D01*
G37*
G36*
X157053751Y-111100774D02*
G01*
X157062630Y-111134933D01*
X157147919Y-111401695D01*
X156947347Y-111401695D01*
X157031513Y-111137082D01*
X157039177Y-111106037D01*
X157044605Y-111066594D01*
X157049001Y-111066594D01*
X157053751Y-111100774D01*
G37*
G36*
X157520960Y-111800089D02*
G01*
X156106923Y-111800089D01*
X156106923Y-111711200D01*
X156195812Y-111711200D01*
X156367954Y-111711200D01*
X156658799Y-111711200D01*
X156851164Y-111711200D01*
X156906900Y-111537250D01*
X157185630Y-111537250D01*
X157240780Y-111711200D01*
X157432071Y-111711200D01*
X157146796Y-110926496D01*
X156937480Y-110926496D01*
X156768717Y-111401695D01*
X156658799Y-111711200D01*
X156367954Y-111711200D01*
X156367954Y-111105233D01*
X156401562Y-111128973D01*
X156442839Y-111149197D01*
X156488171Y-111164486D01*
X156534626Y-111173474D01*
X156534626Y-111028101D01*
X156468980Y-111005603D01*
X156407864Y-110977934D01*
X156350451Y-110945465D01*
X156300201Y-110910865D01*
X156195812Y-110910865D01*
X156195812Y-111711200D01*
X156106923Y-111711200D01*
X156106923Y-110821976D01*
X157520960Y-110821976D01*
X157520960Y-111800089D01*
G37*
G36*
X156354173Y-113591067D02*
G01*
X156378818Y-113607278D01*
X156400520Y-113636830D01*
X156418909Y-113684904D01*
X156432162Y-113758650D01*
X156437368Y-113866761D01*
X156432335Y-113967952D01*
X156419498Y-114037227D01*
X156401620Y-114082625D01*
X156380400Y-114110734D01*
X156356121Y-114126281D01*
X156327508Y-114131472D01*
X156300035Y-114126296D01*
X156276518Y-114110666D01*
X156255751Y-114082082D01*
X156238115Y-114035451D01*
X156225387Y-113963776D01*
X156220383Y-113858555D01*
X156225318Y-113753028D01*
X156237861Y-113681274D01*
X156255209Y-113634715D01*
X156275577Y-113606280D01*
X156298554Y-113590798D01*
X156325309Y-113585687D01*
X156354173Y-113591067D01*
G37*
G36*
X157053751Y-113640774D02*
G01*
X157062630Y-113674933D01*
X157147919Y-113941695D01*
X156947347Y-113941695D01*
X157031513Y-113677082D01*
X157039177Y-113646037D01*
X157044605Y-113606594D01*
X157049001Y-113606594D01*
X157053751Y-113640774D01*
G37*
G36*
X157520960Y-114352594D02*
G01*
X155955541Y-114352594D01*
X155955541Y-113853133D01*
X156044430Y-113853133D01*
X156044666Y-113858555D01*
X156048026Y-113935918D01*
X156058086Y-114006199D01*
X156073684Y-114065644D01*
X156094135Y-114115747D01*
X156119022Y-114157801D01*
X156151568Y-114196041D01*
X156188495Y-114225222D01*
X156230353Y-114246195D01*
X156278089Y-114259173D01*
X156332979Y-114263705D01*
X156391176Y-114258950D01*
X156419594Y-114251200D01*
X156658799Y-114251200D01*
X156851164Y-114251200D01*
X156906900Y-114077250D01*
X157185630Y-114077250D01*
X157240780Y-114251200D01*
X157432071Y-114251200D01*
X157146796Y-113466496D01*
X156937480Y-113466496D01*
X156768717Y-113941695D01*
X156658799Y-114251200D01*
X156419594Y-114251200D01*
X156440536Y-114245489D01*
X156482682Y-114223976D01*
X156518814Y-114194292D01*
X156549610Y-114155562D01*
X156575165Y-114106230D01*
X156594985Y-114044170D01*
X156608029Y-113966789D01*
X156612783Y-113871109D01*
X156609113Y-113786110D01*
X156598866Y-113714254D01*
X156583014Y-113653764D01*
X156562283Y-113603048D01*
X156537117Y-113560725D01*
X156504150Y-113522338D01*
X156466516Y-113492947D01*
X156423621Y-113471751D01*
X156374458Y-113458596D01*
X156317689Y-113453991D01*
X156261444Y-113458719D01*
X156213593Y-113472133D01*
X156172568Y-113493651D01*
X156137229Y-113523479D01*
X156106963Y-113562595D01*
X156081738Y-113612661D01*
X156062109Y-113675910D01*
X156049158Y-113755039D01*
X156044430Y-113853133D01*
X155955541Y-113853133D01*
X155955541Y-113365102D01*
X157520960Y-113365102D01*
X157520960Y-114352594D01*
G37*
G36*
X157053751Y-108560774D02*
G01*
X157062630Y-108594933D01*
X157147919Y-108861695D01*
X156947347Y-108861695D01*
X157031513Y-108597082D01*
X157039177Y-108566037D01*
X157044605Y-108526594D01*
X157049001Y-108526594D01*
X157053751Y-108560774D01*
G37*
G36*
X157520960Y-109260089D02*
G01*
X155993790Y-109260089D01*
X155993790Y-108596496D01*
X156082679Y-108596496D01*
X156087044Y-108648690D01*
X156099385Y-108692728D01*
X156118846Y-108733036D01*
X156143642Y-108769273D01*
X156173187Y-108802118D01*
X156207291Y-108832435D01*
X156282176Y-108887927D01*
X156332734Y-108924905D01*
X156375623Y-108961004D01*
X156405128Y-108995735D01*
X156413524Y-109012851D01*
X156416070Y-109028024D01*
X156083802Y-109028024D01*
X156083802Y-109171200D01*
X156605114Y-109171200D01*
X156658799Y-109171200D01*
X156851164Y-109171200D01*
X156906900Y-108997250D01*
X157185630Y-108997250D01*
X157240780Y-109171200D01*
X157432071Y-109171200D01*
X157146796Y-108386496D01*
X156937480Y-108386496D01*
X156768717Y-108861695D01*
X156658799Y-109171200D01*
X156605114Y-109171200D01*
X156605114Y-109112190D01*
X156599873Y-109054145D01*
X156584891Y-109004186D01*
X156561883Y-108958452D01*
X156534088Y-108918310D01*
X156501858Y-108882306D01*
X156467166Y-108851046D01*
X156397996Y-108798290D01*
X156337668Y-108751297D01*
X156293949Y-108706747D01*
X156278167Y-108684006D01*
X156267424Y-108661904D01*
X156260895Y-108638604D01*
X156258680Y-108613495D01*
X156262195Y-108581130D01*
X156271844Y-108556378D01*
X156287110Y-108537438D01*
X156307615Y-108523943D01*
X156335763Y-108515031D01*
X156373963Y-108511695D01*
X156422524Y-108516474D01*
X156470447Y-108530972D01*
X156518528Y-108555953D01*
X156567403Y-108592832D01*
X156567403Y-108440376D01*
X156514921Y-108411449D01*
X156459405Y-108390804D01*
X156400264Y-108378264D01*
X156336789Y-108373991D01*
X156279101Y-108378065D01*
X156229957Y-108389574D01*
X156185659Y-108408860D01*
X156149894Y-108434123D01*
X156121080Y-108466074D01*
X156099922Y-108504368D01*
X156087127Y-108547309D01*
X156082679Y-108596496D01*
X155993790Y-108596496D01*
X155993790Y-108285102D01*
X157520960Y-108285102D01*
X157520960Y-109260089D01*
G37*
G36*
X155491026Y-124268024D02*
G01*
X155403587Y-124268024D01*
X155346860Y-124263295D01*
X155298939Y-124249915D01*
X155258209Y-124228542D01*
X155223482Y-124199050D01*
X155195750Y-124162813D01*
X155175463Y-124120293D01*
X155162694Y-124070275D01*
X155158172Y-124011179D01*
X155162636Y-123955541D01*
X155175250Y-123908532D01*
X155195345Y-123868602D01*
X155222945Y-123834591D01*
X155257104Y-123807356D01*
X155297833Y-123787363D01*
X155346446Y-123774713D01*
X155404661Y-123770209D01*
X155491026Y-123770209D01*
X155491026Y-124268024D01*
G37*
G36*
X157485986Y-124512594D02*
G01*
X154883511Y-124512594D01*
X154883511Y-124008980D01*
X154972400Y-124008980D01*
X154972549Y-124011179D01*
X154977367Y-124082305D01*
X154991614Y-124147078D01*
X155014522Y-124204592D01*
X155045976Y-124255904D01*
X155086364Y-124301779D01*
X155133636Y-124340269D01*
X155186686Y-124370462D01*
X155246330Y-124392576D01*
X155313642Y-124406379D01*
X155389909Y-124411200D01*
X155667516Y-124411200D01*
X155847278Y-124411200D01*
X156025429Y-124411200D01*
X156348465Y-123918171D01*
X156387788Y-123853056D01*
X156389986Y-123853056D01*
X156385590Y-123980013D01*
X156385590Y-124411200D01*
X156552261Y-124411200D01*
X156552261Y-123964137D01*
X156704717Y-123964137D01*
X156704717Y-124357661D01*
X156762758Y-124385460D01*
X156828812Y-124406109D01*
X156904092Y-124419130D01*
X156989993Y-124423705D01*
X157066431Y-124419022D01*
X157133184Y-124405683D01*
X157191640Y-124384448D01*
X157242968Y-124355648D01*
X157288067Y-124319169D01*
X157326374Y-124275475D01*
X157356414Y-124225823D01*
X157378454Y-124169358D01*
X157392257Y-124104922D01*
X157397097Y-124031109D01*
X157392003Y-123957722D01*
X157377296Y-123892011D01*
X157353475Y-123832796D01*
X157320531Y-123779121D01*
X157277955Y-123730299D01*
X157228407Y-123689299D01*
X157172908Y-123657199D01*
X157110618Y-123633728D01*
X157040422Y-123619096D01*
X156960977Y-123613991D01*
X156878421Y-123618102D01*
X156805602Y-123629823D01*
X156741305Y-123648429D01*
X156741305Y-123814075D01*
X156787270Y-123791856D01*
X156838979Y-123775448D01*
X156897286Y-123765160D01*
X156963175Y-123761562D01*
X157017039Y-123766282D01*
X157064028Y-123779840D01*
X157105427Y-123801879D01*
X157142156Y-123832784D01*
X157171731Y-123870316D01*
X157193175Y-123913709D01*
X157206564Y-123964089D01*
X157211277Y-124022951D01*
X157206882Y-124083309D01*
X157194596Y-124133397D01*
X157175315Y-124175021D01*
X157149288Y-124209601D01*
X157116247Y-124238000D01*
X157078047Y-124258433D01*
X157033678Y-124271132D01*
X156981737Y-124275596D01*
X156922104Y-124270579D01*
X156881207Y-124257620D01*
X156881207Y-124105114D01*
X157038060Y-124105114D01*
X157038060Y-123964137D01*
X156704717Y-123964137D01*
X156552261Y-123964137D01*
X156552261Y-123626496D01*
X156362093Y-123626496D01*
X156051123Y-124104186D01*
X156011800Y-124168227D01*
X156009602Y-124168227D01*
X156012600Y-124134287D01*
X156013998Y-124060418D01*
X156013998Y-123626496D01*
X155847278Y-123626496D01*
X155847278Y-124411200D01*
X155667516Y-124411200D01*
X155667516Y-123626496D01*
X155389909Y-123626496D01*
X155302409Y-123631204D01*
X155229003Y-123644347D01*
X155167587Y-123664752D01*
X155116342Y-123691684D01*
X155073798Y-123724887D01*
X155038904Y-123764600D01*
X155011096Y-123811544D01*
X154990334Y-123866867D01*
X154977106Y-123932078D01*
X154972400Y-124008980D01*
X154883511Y-124008980D01*
X154883511Y-123525102D01*
X157485986Y-123525102D01*
X157485986Y-124512594D01*
G37*
G36*
X157053751Y-75591574D02*
G01*
X157062630Y-75625733D01*
X157147919Y-75892495D01*
X156947347Y-75892495D01*
X157031513Y-75627882D01*
X157039177Y-75596837D01*
X157044605Y-75557394D01*
X157049001Y-75557394D01*
X157053751Y-75591574D01*
G37*
G36*
X157520960Y-76303394D02*
G01*
X155347572Y-76303394D01*
X155347572Y-75945349D01*
X155436461Y-75945349D01*
X155441797Y-76003275D01*
X155457183Y-76054045D01*
X155482342Y-76099055D01*
X155517891Y-76139278D01*
X155560535Y-76171185D01*
X155610537Y-76194564D01*
X155669314Y-76209290D01*
X155738687Y-76214505D01*
X155813645Y-76210336D01*
X155858639Y-76202000D01*
X156195812Y-76202000D01*
X156367954Y-76202000D01*
X156658799Y-76202000D01*
X156851164Y-76202000D01*
X156906900Y-76028050D01*
X157185630Y-76028050D01*
X157240780Y-76202000D01*
X157432071Y-76202000D01*
X157146796Y-75417296D01*
X156937480Y-75417296D01*
X156768717Y-75892495D01*
X156658799Y-76202000D01*
X156367954Y-76202000D01*
X156367954Y-75596033D01*
X156401562Y-75619773D01*
X156442839Y-75639997D01*
X156488171Y-75655286D01*
X156534626Y-75664274D01*
X156534626Y-75518901D01*
X156468980Y-75496403D01*
X156407864Y-75468734D01*
X156350451Y-75436265D01*
X156300201Y-75401665D01*
X156195812Y-75401665D01*
X156195812Y-76202000D01*
X155858639Y-76202000D01*
X155876408Y-76198708D01*
X155928854Y-76180653D01*
X155928854Y-76033179D01*
X155873668Y-76060644D01*
X155816959Y-76076853D01*
X155757836Y-76082272D01*
X155713367Y-76078223D01*
X155678441Y-76067088D01*
X155651004Y-76049690D01*
X155629775Y-76025666D01*
X155616961Y-75996691D01*
X155612462Y-75961225D01*
X155616832Y-75926282D01*
X155629073Y-75898839D01*
X155649090Y-75877071D01*
X155678369Y-75860242D01*
X155719716Y-75848849D01*
X155776935Y-75844526D01*
X155839769Y-75846684D01*
X155916838Y-75853807D01*
X155887333Y-75417296D01*
X155472560Y-75417296D01*
X155472560Y-75558273D01*
X155755637Y-75558273D01*
X155766579Y-75714442D01*
X155693893Y-75711169D01*
X155633588Y-75715620D01*
X155583038Y-75728123D01*
X155540550Y-75747853D01*
X155504800Y-75774623D01*
X155475325Y-75808477D01*
X155454176Y-75847474D01*
X155441063Y-75892627D01*
X155436461Y-75945349D01*
X155347572Y-75945349D01*
X155347572Y-75312776D01*
X157520960Y-75312776D01*
X157520960Y-76303394D01*
G37*
G36*
X155589857Y-121260774D02*
G01*
X155598736Y-121294933D01*
X155684025Y-121561695D01*
X155483453Y-121561695D01*
X155567619Y-121297082D01*
X155575283Y-121266037D01*
X155580711Y-121226594D01*
X155585107Y-121226594D01*
X155589857Y-121260774D01*
G37*
G36*
X156425009Y-121741116D02*
G01*
X156329364Y-121741116D01*
X156289487Y-121737561D01*
X156258129Y-121727786D01*
X156233474Y-121712539D01*
X156214321Y-121691388D01*
X156202789Y-121665844D01*
X156198743Y-121634528D01*
X156202714Y-121604664D01*
X156214045Y-121580380D01*
X156232937Y-121560327D01*
X156257130Y-121546043D01*
X156288284Y-121536796D01*
X156328289Y-121533412D01*
X156425009Y-121533412D01*
X156425009Y-121741116D01*
G37*
G36*
X156425009Y-121402253D02*
G01*
X156347389Y-121402253D01*
X156311880Y-121398985D01*
X156283728Y-121389956D01*
X156261367Y-121375777D01*
X156244089Y-121356220D01*
X156233606Y-121332353D01*
X156229908Y-121302846D01*
X156234633Y-121272981D01*
X156247992Y-121250335D01*
X156270748Y-121233073D01*
X156306057Y-121221206D01*
X156358868Y-121216580D01*
X156425009Y-121216580D01*
X156425009Y-121402253D01*
G37*
G36*
X157520960Y-121960089D02*
G01*
X154535904Y-121960089D01*
X154535904Y-121230209D01*
X154624793Y-121230209D01*
X154848324Y-121230209D01*
X154848324Y-121871200D01*
X155025400Y-121871200D01*
X155194905Y-121871200D01*
X155387270Y-121871200D01*
X155443007Y-121697250D01*
X155721736Y-121697250D01*
X155776887Y-121871200D01*
X155968178Y-121871200D01*
X155882918Y-121636678D01*
X156012923Y-121636678D01*
X156018014Y-121689216D01*
X156032598Y-121734364D01*
X156056371Y-121773611D01*
X156090006Y-121807941D01*
X156129830Y-121834450D01*
X156177162Y-121854166D01*
X156233431Y-121866723D01*
X156300397Y-121871200D01*
X156601499Y-121871200D01*
X156601499Y-121086496D01*
X156695386Y-121086496D01*
X156965372Y-121871200D01*
X157165358Y-121871200D01*
X157432071Y-121086496D01*
X157241904Y-121086496D01*
X157078506Y-121632623D01*
X157067650Y-121675917D01*
X157062630Y-121710878D01*
X157059357Y-121710878D01*
X157053452Y-121673557D01*
X157042406Y-121630425D01*
X156880083Y-121086496D01*
X156695386Y-121086496D01*
X156601499Y-121086496D01*
X156316224Y-121086496D01*
X156249204Y-121090070D01*
X156194561Y-121099915D01*
X156150267Y-121114971D01*
X156114577Y-121134563D01*
X156083465Y-121161358D01*
X156061827Y-121192249D01*
X156048673Y-121228028D01*
X156044088Y-121270069D01*
X156047960Y-121302846D01*
X156048884Y-121310673D01*
X156063022Y-121347273D01*
X156086977Y-121380955D01*
X156117875Y-121409170D01*
X156154117Y-121431155D01*
X156196545Y-121447047D01*
X156196545Y-121449246D01*
X156143016Y-121461263D01*
X156099065Y-121481979D01*
X156062944Y-121511186D01*
X156035147Y-121548024D01*
X156018601Y-121589367D01*
X156013181Y-121634528D01*
X156012923Y-121636678D01*
X155882918Y-121636678D01*
X155682902Y-121086496D01*
X155473586Y-121086496D01*
X155304823Y-121561695D01*
X155194905Y-121871200D01*
X155025400Y-121871200D01*
X155025400Y-121230209D01*
X155247808Y-121230209D01*
X155247808Y-121086496D01*
X154624793Y-121086496D01*
X154624793Y-121230209D01*
X154535904Y-121230209D01*
X154535904Y-120997607D01*
X157520960Y-120997607D01*
X157520960Y-121960089D01*
G37*
G36*
X157171416Y-118927906D02*
G01*
X157102003Y-118927906D01*
X157055053Y-118923731D01*
X157020278Y-118912542D01*
X156994790Y-118895526D01*
X156976656Y-118872669D01*
X156965168Y-118842755D01*
X156960977Y-118803586D01*
X156965121Y-118765491D01*
X156976502Y-118736315D01*
X156994534Y-118713936D01*
X157019982Y-118697209D01*
X157054830Y-118686175D01*
X157102003Y-118682051D01*
X157171416Y-118682051D01*
X157171416Y-118927906D01*
G37*
G36*
X157436795Y-119432594D02*
G01*
X154754698Y-119432594D01*
X154754698Y-119106008D01*
X154843587Y-119106008D01*
X154848875Y-119159328D01*
X154864034Y-119205122D01*
X154888796Y-119244935D01*
X154923943Y-119279762D01*
X154965302Y-119306405D01*
X155014937Y-119326353D01*
X155074445Y-119339131D01*
X155145764Y-119343705D01*
X155226042Y-119338739D01*
X155261841Y-119331200D01*
X155596343Y-119331200D01*
X155768486Y-119331200D01*
X155768486Y-118725233D01*
X155802093Y-118748973D01*
X155843370Y-118769197D01*
X155888702Y-118784486D01*
X155935157Y-118793474D01*
X155935157Y-118648101D01*
X155869512Y-118625603D01*
X155808395Y-118597934D01*
X155750982Y-118565465D01*
X155747555Y-118563105D01*
X156098311Y-118563105D01*
X156098311Y-118734075D01*
X156152546Y-118707564D01*
X156211907Y-118691445D01*
X156277585Y-118685910D01*
X156331845Y-118690551D01*
X156378790Y-118703826D01*
X156419763Y-118725290D01*
X156455736Y-118755226D01*
X156484631Y-118791762D01*
X156505657Y-118834380D01*
X156518835Y-118884257D01*
X156523489Y-118942951D01*
X156519101Y-118999268D01*
X156506661Y-119047291D01*
X156486809Y-119088463D01*
X156459546Y-119123886D01*
X156425528Y-119152871D01*
X156386250Y-119173730D01*
X156340682Y-119186694D01*
X156287404Y-119191248D01*
X156219925Y-119185513D01*
X156157242Y-119168616D01*
X156098311Y-119140495D01*
X156098311Y-119302086D01*
X156157025Y-119324026D01*
X156230651Y-119338440D01*
X156322380Y-119343705D01*
X156394987Y-119338999D01*
X156458417Y-119325579D01*
X156514033Y-119304156D01*
X156562961Y-119274975D01*
X156606043Y-119237801D01*
X156642424Y-119193754D01*
X156670921Y-119144373D01*
X156691769Y-119088904D01*
X156704771Y-119026349D01*
X156709309Y-118955505D01*
X156704293Y-118880492D01*
X156689849Y-118813616D01*
X156683404Y-118797040D01*
X156775206Y-118797040D01*
X156775837Y-118803586D01*
X156780758Y-118854612D01*
X156796758Y-118904822D01*
X156822980Y-118949161D01*
X156860202Y-118988624D01*
X156904387Y-119019600D01*
X156955972Y-119042367D01*
X157016344Y-119056721D01*
X157087250Y-119061800D01*
X157171416Y-119061800D01*
X157171416Y-119331200D01*
X157347906Y-119331200D01*
X157347906Y-118546496D01*
X157071375Y-118546496D01*
X156994059Y-118551433D01*
X156932429Y-118564951D01*
X156883606Y-118585590D01*
X156845240Y-118612617D01*
X156815643Y-118646093D01*
X156793938Y-118686867D01*
X156780149Y-118736483D01*
X156775206Y-118797040D01*
X156683404Y-118797040D01*
X156666541Y-118753667D01*
X156634454Y-118699651D01*
X156593196Y-118650837D01*
X156544567Y-118609205D01*
X156490939Y-118576905D01*
X156431609Y-118553494D01*
X156365608Y-118539013D01*
X156291751Y-118533991D01*
X156215448Y-118537597D01*
X156151570Y-118547629D01*
X156098311Y-118563105D01*
X155747555Y-118563105D01*
X155700733Y-118530865D01*
X155596343Y-118530865D01*
X155596343Y-119331200D01*
X155261841Y-119331200D01*
X155290897Y-119325081D01*
X155343063Y-119304137D01*
X155343063Y-119153000D01*
X155302351Y-119178440D01*
X155258593Y-119196603D01*
X155211201Y-119207677D01*
X155159442Y-119211472D01*
X155116160Y-119207887D01*
X155082502Y-119198108D01*
X155056420Y-119183042D01*
X155036053Y-119161780D01*
X155023831Y-119135865D01*
X155019539Y-119103809D01*
X155024665Y-119071340D01*
X155039527Y-119044889D01*
X155065164Y-119022916D01*
X155096889Y-119007969D01*
X155137923Y-118998117D01*
X155190607Y-118994486D01*
X155263294Y-118994486D01*
X155263294Y-118862253D01*
X155196078Y-118862253D01*
X155142112Y-118858387D01*
X155103413Y-118848248D01*
X155076303Y-118833403D01*
X155058007Y-118814428D01*
X155046952Y-118790798D01*
X155043035Y-118760990D01*
X155047788Y-118726508D01*
X155060865Y-118701199D01*
X155082240Y-118682685D01*
X155114129Y-118670387D01*
X155160516Y-118665687D01*
X155211565Y-118671003D01*
X155262274Y-118687208D01*
X155313559Y-118715317D01*
X155313559Y-118575268D01*
X155257170Y-118552837D01*
X155193484Y-118538867D01*
X155121193Y-118533991D01*
X155060541Y-118537877D01*
X155010231Y-118548705D01*
X154968542Y-118565561D01*
X154934054Y-118588017D01*
X154904445Y-118617401D01*
X154883834Y-118650026D01*
X154871378Y-118686583D01*
X154867083Y-118728164D01*
X154871707Y-118777593D01*
X154884707Y-118818334D01*
X154905482Y-118852152D01*
X154934413Y-118880221D01*
X154972819Y-118903004D01*
X155022812Y-118920188D01*
X155022812Y-118922923D01*
X154969614Y-118934811D01*
X154926538Y-118955040D01*
X154891703Y-118983300D01*
X154865024Y-119019072D01*
X154849077Y-119059489D01*
X154843587Y-119106008D01*
X154754698Y-119106008D01*
X154754698Y-118441976D01*
X157436795Y-118441976D01*
X157436795Y-119432594D01*
G37*
G36*
X156286670Y-116357717D02*
G01*
X156210173Y-116357717D01*
X156173578Y-116353791D01*
X156143629Y-116342717D01*
X156118875Y-116324793D01*
X156099402Y-116300618D01*
X156087860Y-116273334D01*
X156083900Y-116241897D01*
X156088958Y-116204289D01*
X156102814Y-116176839D01*
X156125305Y-116156901D01*
X156158625Y-116143741D01*
X156206852Y-116138729D01*
X156286670Y-116138729D01*
X156286670Y-116357717D01*
G37*
G36*
X157436794Y-116892594D02*
G01*
X154465562Y-116892594D01*
X154465562Y-116150209D01*
X154554451Y-116150209D01*
X154777982Y-116150209D01*
X154777982Y-116791200D01*
X154955058Y-116791200D01*
X154955058Y-116570013D01*
X155233984Y-116570013D01*
X155237001Y-116613105D01*
X155245482Y-116649392D01*
X155258847Y-116680020D01*
X155288171Y-116720311D01*
X155326356Y-116752121D01*
X155371642Y-116775466D01*
X155425519Y-116791688D01*
X155483048Y-116800639D01*
X155544954Y-116803705D01*
X155608510Y-116800887D01*
X155667661Y-116792665D01*
X155673409Y-116791200D01*
X155805756Y-116791200D01*
X156008478Y-116791200D01*
X156130355Y-116589455D01*
X156156586Y-116548471D01*
X156181988Y-116517599D01*
X156208806Y-116497913D01*
X156223245Y-116492807D01*
X156239141Y-116491074D01*
X156286670Y-116491074D01*
X156286670Y-116791200D01*
X156463160Y-116791200D01*
X156642923Y-116791200D01*
X156821074Y-116791200D01*
X157144109Y-116298171D01*
X157183432Y-116233056D01*
X157185630Y-116233056D01*
X157181234Y-116360013D01*
X157181234Y-116791200D01*
X157347905Y-116791200D01*
X157347905Y-116006496D01*
X157157738Y-116006496D01*
X156846768Y-116484186D01*
X156807445Y-116548227D01*
X156805247Y-116548227D01*
X156808244Y-116514287D01*
X156809643Y-116440418D01*
X156809643Y-116006496D01*
X156642923Y-116006496D01*
X156642923Y-116791200D01*
X156463160Y-116791200D01*
X156463160Y-116006496D01*
X156183355Y-116006496D01*
X156106908Y-116010950D01*
X156046544Y-116023072D01*
X155999326Y-116041398D01*
X155962793Y-116065073D01*
X155935086Y-116093927D01*
X155915089Y-116128498D01*
X155902544Y-116169973D01*
X155898080Y-116220062D01*
X155899846Y-116241897D01*
X155901311Y-116260013D01*
X155910683Y-116295875D01*
X155925886Y-116329030D01*
X155946196Y-116358597D01*
X155971349Y-116384411D01*
X156001688Y-116406761D01*
X156035670Y-116424678D01*
X156074081Y-116438513D01*
X156074081Y-116440711D01*
X156057106Y-116447771D01*
X156040229Y-116458492D01*
X156008526Y-116487166D01*
X155979266Y-116522435D01*
X155953865Y-116559364D01*
X155805756Y-116791200D01*
X155673409Y-116791200D01*
X155723316Y-116778479D01*
X155768485Y-116759692D01*
X155768485Y-116583593D01*
X155718573Y-116619349D01*
X155665219Y-116644556D01*
X155608877Y-116659851D01*
X155552623Y-116664877D01*
X155520365Y-116663281D01*
X155494395Y-116658918D01*
X155470893Y-116651470D01*
X155452874Y-116642260D01*
X155438056Y-116630394D01*
X155428010Y-116617201D01*
X155421863Y-116602163D01*
X155419803Y-116585840D01*
X155423111Y-116564083D01*
X155432944Y-116544905D01*
X155447973Y-116528001D01*
X155468750Y-116511590D01*
X155522581Y-116482135D01*
X155589748Y-116453167D01*
X155648817Y-116424052D01*
X155693641Y-116392868D01*
X155726670Y-116359818D01*
X155751496Y-116320970D01*
X155766548Y-116277030D01*
X155771757Y-116226608D01*
X155768833Y-116186454D01*
X155760505Y-116151709D01*
X155747187Y-116121486D01*
X155718182Y-116081469D01*
X155680215Y-116049141D01*
X155635225Y-116024811D01*
X155582127Y-116007375D01*
X155525348Y-115997406D01*
X155464060Y-115993991D01*
X155404577Y-115995944D01*
X155355616Y-116001318D01*
X155309554Y-116010772D01*
X155268422Y-116023837D01*
X155268422Y-116185966D01*
X155311360Y-116162616D01*
X155359182Y-116145861D01*
X155408080Y-116136042D01*
X155454242Y-116132818D01*
X155483534Y-116134311D01*
X155508903Y-116138534D01*
X155532207Y-116145658D01*
X155550425Y-116154605D01*
X155565694Y-116166211D01*
X155576656Y-116179420D01*
X155583591Y-116194667D01*
X155585937Y-116211855D01*
X155583317Y-116230585D01*
X155575582Y-116247075D01*
X155563445Y-116261763D01*
X155546077Y-116276531D01*
X155499622Y-116303837D01*
X155437829Y-116331437D01*
X155392351Y-116352133D01*
X155353418Y-116373202D01*
X155318154Y-116397090D01*
X155289182Y-116423126D01*
X155265545Y-116452970D01*
X155248198Y-116486775D01*
X155237729Y-116524356D01*
X155233984Y-116570013D01*
X154955058Y-116570013D01*
X154955058Y-116150209D01*
X155177466Y-116150209D01*
X155177466Y-116006496D01*
X154554451Y-116006496D01*
X154554451Y-116150209D01*
X154465562Y-116150209D01*
X154465562Y-115905102D01*
X157436794Y-115905102D01*
X157436794Y-116892594D01*
G37*
G36*
X142669824Y-116320583D02*
G01*
X142716817Y-116392586D01*
X142766544Y-116461267D01*
X142815198Y-116523598D01*
X142628254Y-116523598D01*
X142628254Y-116248336D01*
X142669824Y-116320583D01*
G37*
G36*
X144086530Y-116681916D02*
G01*
X143990885Y-116681916D01*
X143951008Y-116678361D01*
X143919650Y-116668586D01*
X143894995Y-116653339D01*
X143875842Y-116632188D01*
X143864310Y-116606644D01*
X143860264Y-116575328D01*
X143864235Y-116545464D01*
X143875566Y-116521180D01*
X143894458Y-116501127D01*
X143918651Y-116486843D01*
X143949805Y-116477596D01*
X143989810Y-116474212D01*
X144086530Y-116474212D01*
X144086530Y-116681916D01*
G37*
G36*
X144086530Y-116343053D02*
G01*
X144008910Y-116343053D01*
X143973401Y-116339785D01*
X143945249Y-116330756D01*
X143922888Y-116316577D01*
X143905610Y-116297020D01*
X143895127Y-116273153D01*
X143891429Y-116243646D01*
X143896155Y-116213781D01*
X143909513Y-116191135D01*
X143932269Y-116173873D01*
X143967579Y-116162006D01*
X144020390Y-116157380D01*
X144086530Y-116157380D01*
X144086530Y-116343053D01*
G37*
G36*
X144351909Y-116900889D02*
G01*
X142287990Y-116900889D01*
X142287990Y-116523598D01*
X142376879Y-116523598D01*
X142376879Y-116652558D01*
X142470864Y-116652558D01*
X142470864Y-116812000D01*
X142628254Y-116812000D01*
X143180487Y-116812000D01*
X143352630Y-116812000D01*
X143352630Y-116577478D01*
X143674444Y-116577478D01*
X143679535Y-116630016D01*
X143694119Y-116675164D01*
X143717892Y-116714411D01*
X143751527Y-116748741D01*
X143791351Y-116775250D01*
X143838683Y-116794966D01*
X143894952Y-116807523D01*
X143961918Y-116812000D01*
X144263020Y-116812000D01*
X144263020Y-116027296D01*
X143977745Y-116027296D01*
X143910725Y-116030870D01*
X143856082Y-116040715D01*
X143811788Y-116055771D01*
X143776098Y-116075363D01*
X143744986Y-116102158D01*
X143723348Y-116133049D01*
X143710195Y-116168828D01*
X143705609Y-116210869D01*
X143709481Y-116243646D01*
X143710405Y-116251473D01*
X143724543Y-116288073D01*
X143748498Y-116321755D01*
X143779396Y-116349970D01*
X143815638Y-116371955D01*
X143858066Y-116387847D01*
X143858066Y-116390046D01*
X143804537Y-116402063D01*
X143760586Y-116422779D01*
X143724465Y-116451986D01*
X143696669Y-116488824D01*
X143680122Y-116530167D01*
X143674702Y-116575328D01*
X143674444Y-116577478D01*
X143352630Y-116577478D01*
X143352630Y-116206033D01*
X143386237Y-116229773D01*
X143427514Y-116249997D01*
X143472846Y-116265286D01*
X143519301Y-116274274D01*
X143519301Y-116128901D01*
X143453656Y-116106403D01*
X143392539Y-116078734D01*
X143335126Y-116046265D01*
X143284877Y-116011665D01*
X143180487Y-116011665D01*
X143180487Y-116812000D01*
X142628254Y-116812000D01*
X142628254Y-116652558D01*
X142969852Y-116652558D01*
X142969852Y-116517589D01*
X142875868Y-116405872D01*
X142781834Y-116280967D01*
X142697375Y-116151665D01*
X142660579Y-116086801D01*
X142630990Y-116027296D01*
X142470864Y-116027296D01*
X142470864Y-116523598D01*
X142376879Y-116523598D01*
X142287990Y-116523598D01*
X142287990Y-115922776D01*
X144351909Y-115922776D01*
X144351909Y-116900889D01*
G37*
G36*
X144086530Y-119221916D02*
G01*
X143990885Y-119221916D01*
X143951008Y-119218361D01*
X143919650Y-119208586D01*
X143894995Y-119193339D01*
X143875842Y-119172188D01*
X143864310Y-119146644D01*
X143860264Y-119115328D01*
X143864235Y-119085464D01*
X143875566Y-119061180D01*
X143894458Y-119041127D01*
X143918651Y-119026843D01*
X143949805Y-119017596D01*
X143989810Y-119014212D01*
X144086530Y-119014212D01*
X144086530Y-119221916D01*
G37*
G36*
X144086530Y-118883053D02*
G01*
X144008910Y-118883053D01*
X143973401Y-118879785D01*
X143945249Y-118870756D01*
X143922888Y-118856577D01*
X143905610Y-118837020D01*
X143895127Y-118813153D01*
X143891429Y-118783646D01*
X143896155Y-118753781D01*
X143909513Y-118731135D01*
X143932269Y-118713873D01*
X143967579Y-118702006D01*
X144020390Y-118697380D01*
X144086530Y-118697380D01*
X144086530Y-118883053D01*
G37*
G36*
X144351909Y-119453394D02*
G01*
X142332247Y-119453394D01*
X142332247Y-119095349D01*
X142421136Y-119095349D01*
X142426473Y-119153275D01*
X142441858Y-119204045D01*
X142467017Y-119249055D01*
X142502567Y-119289278D01*
X142545210Y-119321185D01*
X142595213Y-119344564D01*
X142653989Y-119359290D01*
X142723362Y-119364505D01*
X142798320Y-119360336D01*
X142843314Y-119352000D01*
X143180487Y-119352000D01*
X143352630Y-119352000D01*
X143352630Y-119117478D01*
X143674444Y-119117478D01*
X143679535Y-119170016D01*
X143694119Y-119215164D01*
X143717892Y-119254411D01*
X143751527Y-119288741D01*
X143791351Y-119315250D01*
X143838683Y-119334966D01*
X143894952Y-119347523D01*
X143961918Y-119352000D01*
X144263020Y-119352000D01*
X144263020Y-118567296D01*
X143977745Y-118567296D01*
X143910725Y-118570870D01*
X143856082Y-118580715D01*
X143811788Y-118595771D01*
X143776098Y-118615363D01*
X143744986Y-118642158D01*
X143723348Y-118673049D01*
X143710195Y-118708828D01*
X143705609Y-118750869D01*
X143709481Y-118783646D01*
X143710405Y-118791473D01*
X143724543Y-118828073D01*
X143748498Y-118861755D01*
X143779396Y-118889970D01*
X143815638Y-118911955D01*
X143858066Y-118927847D01*
X143858066Y-118930046D01*
X143804537Y-118942063D01*
X143760586Y-118962779D01*
X143724465Y-118991986D01*
X143696669Y-119028824D01*
X143680122Y-119070167D01*
X143674702Y-119115328D01*
X143674444Y-119117478D01*
X143352630Y-119117478D01*
X143352630Y-118746033D01*
X143386237Y-118769773D01*
X143427514Y-118789997D01*
X143472846Y-118805286D01*
X143519301Y-118814274D01*
X143519301Y-118668901D01*
X143453656Y-118646403D01*
X143392539Y-118618734D01*
X143335126Y-118586265D01*
X143284877Y-118551665D01*
X143180487Y-118551665D01*
X143180487Y-119352000D01*
X142843314Y-119352000D01*
X142861083Y-119348708D01*
X142913530Y-119330653D01*
X142913530Y-119183179D01*
X142858344Y-119210644D01*
X142801634Y-119226853D01*
X142742511Y-119232272D01*
X142698042Y-119228223D01*
X142663117Y-119217088D01*
X142635679Y-119199690D01*
X142614451Y-119175666D01*
X142601637Y-119146691D01*
X142597138Y-119111225D01*
X142601507Y-119076282D01*
X142613748Y-119048839D01*
X142633765Y-119027071D01*
X142663044Y-119010242D01*
X142704391Y-118998849D01*
X142761611Y-118994526D01*
X142824444Y-118996684D01*
X142901513Y-119003807D01*
X142872009Y-118567296D01*
X142457235Y-118567296D01*
X142457235Y-118708273D01*
X142740313Y-118708273D01*
X142751255Y-118864442D01*
X142678568Y-118861169D01*
X142618263Y-118865620D01*
X142567713Y-118878123D01*
X142525225Y-118897853D01*
X142489475Y-118924623D01*
X142460001Y-118958477D01*
X142438852Y-118997474D01*
X142425738Y-119042627D01*
X142421136Y-119095349D01*
X142332247Y-119095349D01*
X142332247Y-118462776D01*
X144351909Y-118462776D01*
X144351909Y-119453394D01*
G37*
G36*
X144406522Y-121993394D02*
G01*
X142338841Y-121993394D01*
X142338841Y-121666808D01*
X142427730Y-121666808D01*
X142433018Y-121720128D01*
X142448178Y-121765922D01*
X142472940Y-121805735D01*
X142508086Y-121840562D01*
X142549446Y-121867205D01*
X142599081Y-121887153D01*
X142658589Y-121899931D01*
X142729908Y-121904505D01*
X142810185Y-121899539D01*
X142875040Y-121885881D01*
X142927207Y-121864937D01*
X142927207Y-121713800D01*
X142886494Y-121739240D01*
X142842737Y-121757403D01*
X142795345Y-121768477D01*
X142743585Y-121772272D01*
X142700303Y-121768687D01*
X142666646Y-121758908D01*
X142640564Y-121743842D01*
X142620196Y-121722580D01*
X142607974Y-121696665D01*
X142603683Y-121664609D01*
X142608809Y-121632140D01*
X142623671Y-121605689D01*
X142649308Y-121583716D01*
X142681033Y-121568769D01*
X142722067Y-121558917D01*
X142774751Y-121555286D01*
X142847437Y-121555286D01*
X142847437Y-121423053D01*
X142780222Y-121423053D01*
X142726256Y-121419187D01*
X142687557Y-121409048D01*
X142660447Y-121394203D01*
X142642150Y-121375228D01*
X142631096Y-121351598D01*
X142627179Y-121321790D01*
X142631932Y-121287308D01*
X142645009Y-121261999D01*
X142666383Y-121243485D01*
X142698273Y-121231187D01*
X142744660Y-121226487D01*
X142795709Y-121231803D01*
X142846418Y-121248008D01*
X142897703Y-121276117D01*
X142897703Y-121136068D01*
X142841313Y-121113637D01*
X142812406Y-121107296D01*
X142995400Y-121107296D01*
X143265386Y-121892000D01*
X143465372Y-121892000D01*
X143541912Y-121666808D01*
X143818156Y-121666808D01*
X143823444Y-121720128D01*
X143838603Y-121765922D01*
X143863365Y-121805735D01*
X143898512Y-121840562D01*
X143939871Y-121867205D01*
X143989506Y-121887153D01*
X144049014Y-121899931D01*
X144120333Y-121904505D01*
X144200611Y-121899539D01*
X144265466Y-121885881D01*
X144317633Y-121864937D01*
X144317633Y-121713800D01*
X144276920Y-121739240D01*
X144233162Y-121757403D01*
X144185771Y-121768477D01*
X144134011Y-121772272D01*
X144090729Y-121768687D01*
X144057071Y-121758908D01*
X144030989Y-121743842D01*
X144010622Y-121722580D01*
X143998400Y-121696665D01*
X143994109Y-121664609D01*
X143999234Y-121632140D01*
X144014096Y-121605689D01*
X144039733Y-121583716D01*
X144071459Y-121568769D01*
X144112492Y-121558917D01*
X144165176Y-121555286D01*
X144237863Y-121555286D01*
X144237863Y-121423053D01*
X144170647Y-121423053D01*
X144116682Y-121419187D01*
X144077983Y-121409048D01*
X144050873Y-121394203D01*
X144032576Y-121375228D01*
X144021521Y-121351598D01*
X144017605Y-121321790D01*
X144022358Y-121287308D01*
X144035434Y-121261999D01*
X144056809Y-121243485D01*
X144088699Y-121231187D01*
X144135086Y-121226487D01*
X144186135Y-121231803D01*
X144236843Y-121248008D01*
X144288128Y-121276117D01*
X144288128Y-121136068D01*
X144231739Y-121113637D01*
X144168053Y-121099667D01*
X144095763Y-121094791D01*
X144035110Y-121098677D01*
X143984800Y-121109505D01*
X143943111Y-121126361D01*
X143908624Y-121148817D01*
X143879014Y-121178201D01*
X143858403Y-121210826D01*
X143845948Y-121247383D01*
X143841652Y-121288964D01*
X143846277Y-121338393D01*
X143859276Y-121379134D01*
X143880051Y-121412952D01*
X143908983Y-121441021D01*
X143947388Y-121463804D01*
X143997382Y-121480988D01*
X143997382Y-121483723D01*
X143944184Y-121495611D01*
X143901108Y-121515840D01*
X143866272Y-121544100D01*
X143839593Y-121579872D01*
X143823646Y-121620289D01*
X143818156Y-121666808D01*
X143541912Y-121666808D01*
X143732085Y-121107296D01*
X143541917Y-121107296D01*
X143378519Y-121653423D01*
X143367663Y-121696717D01*
X143362643Y-121731678D01*
X143359370Y-121731678D01*
X143353465Y-121694357D01*
X143342420Y-121651225D01*
X143180096Y-121107296D01*
X142995400Y-121107296D01*
X142812406Y-121107296D01*
X142777627Y-121099667D01*
X142705337Y-121094791D01*
X142644684Y-121098677D01*
X142594375Y-121109505D01*
X142552685Y-121126361D01*
X142518198Y-121148817D01*
X142488589Y-121178201D01*
X142467977Y-121210826D01*
X142455522Y-121247383D01*
X142451227Y-121288964D01*
X142455851Y-121338393D01*
X142468851Y-121379134D01*
X142489625Y-121412952D01*
X142518557Y-121441021D01*
X142556962Y-121463804D01*
X142606956Y-121480988D01*
X142606956Y-121483723D01*
X142553758Y-121495611D01*
X142510682Y-121515840D01*
X142475846Y-121544100D01*
X142449167Y-121579872D01*
X142433220Y-121620289D01*
X142427730Y-121666808D01*
X142338841Y-121666808D01*
X142338841Y-121005902D01*
X144406522Y-121005902D01*
X144406522Y-121993394D01*
G37*
G36*
X142906350Y-76079624D02*
G01*
X142818911Y-76079624D01*
X142762184Y-76074895D01*
X142714263Y-76061515D01*
X142673533Y-76040142D01*
X142638806Y-76010650D01*
X142611074Y-75974413D01*
X142590787Y-75931893D01*
X142578018Y-75881875D01*
X142573496Y-75822779D01*
X142577960Y-75767141D01*
X142590574Y-75720132D01*
X142610669Y-75680202D01*
X142638269Y-75646191D01*
X142672428Y-75618956D01*
X142713157Y-75598963D01*
X142761770Y-75586313D01*
X142819985Y-75581809D01*
X142906350Y-75581809D01*
X142906350Y-76079624D01*
G37*
G36*
X144901310Y-76324194D02*
G01*
X142298835Y-76324194D01*
X142298835Y-75820580D01*
X142387724Y-75820580D01*
X142387873Y-75822779D01*
X142392691Y-75893905D01*
X142406938Y-75958678D01*
X142429846Y-76016192D01*
X142461300Y-76067504D01*
X142501688Y-76113379D01*
X142548960Y-76151869D01*
X142602010Y-76182062D01*
X142661654Y-76204176D01*
X142728966Y-76217979D01*
X142805233Y-76222800D01*
X143082840Y-76222800D01*
X143262602Y-76222800D01*
X143440753Y-76222800D01*
X143763789Y-75729771D01*
X143803112Y-75664656D01*
X143805310Y-75664656D01*
X143800914Y-75791613D01*
X143800914Y-76222800D01*
X143967585Y-76222800D01*
X143967585Y-75775737D01*
X144120041Y-75775737D01*
X144120041Y-76169261D01*
X144178082Y-76197060D01*
X144244136Y-76217709D01*
X144319416Y-76230730D01*
X144405317Y-76235305D01*
X144481755Y-76230622D01*
X144548508Y-76217283D01*
X144606964Y-76196048D01*
X144658292Y-76167248D01*
X144703391Y-76130769D01*
X144741698Y-76087075D01*
X144771738Y-76037423D01*
X144793778Y-75980958D01*
X144807581Y-75916522D01*
X144812421Y-75842709D01*
X144807327Y-75769322D01*
X144792620Y-75703611D01*
X144768799Y-75644396D01*
X144735855Y-75590721D01*
X144693279Y-75541899D01*
X144643731Y-75500899D01*
X144588232Y-75468799D01*
X144525942Y-75445328D01*
X144455746Y-75430696D01*
X144376301Y-75425591D01*
X144293745Y-75429702D01*
X144220926Y-75441423D01*
X144156629Y-75460029D01*
X144156629Y-75625675D01*
X144202594Y-75603456D01*
X144254303Y-75587048D01*
X144312610Y-75576760D01*
X144378499Y-75573162D01*
X144432363Y-75577882D01*
X144479352Y-75591440D01*
X144520751Y-75613479D01*
X144557480Y-75644384D01*
X144587055Y-75681916D01*
X144608499Y-75725309D01*
X144621888Y-75775689D01*
X144626601Y-75834551D01*
X144622206Y-75894909D01*
X144609920Y-75944997D01*
X144590639Y-75986621D01*
X144564612Y-76021201D01*
X144531571Y-76049600D01*
X144493371Y-76070033D01*
X144449002Y-76082732D01*
X144397061Y-76087196D01*
X144337428Y-76082179D01*
X144296531Y-76069220D01*
X144296531Y-75916714D01*
X144453384Y-75916714D01*
X144453384Y-75775737D01*
X144120041Y-75775737D01*
X143967585Y-75775737D01*
X143967585Y-75438096D01*
X143777417Y-75438096D01*
X143466447Y-75915786D01*
X143427124Y-75979827D01*
X143424926Y-75979827D01*
X143427924Y-75945887D01*
X143429322Y-75872018D01*
X143429322Y-75438096D01*
X143262602Y-75438096D01*
X143262602Y-76222800D01*
X143082840Y-76222800D01*
X143082840Y-75438096D01*
X142805233Y-75438096D01*
X142717733Y-75442804D01*
X142644327Y-75455947D01*
X142582911Y-75476352D01*
X142531666Y-75503284D01*
X142489122Y-75536487D01*
X142454228Y-75576200D01*
X142426420Y-75623144D01*
X142405658Y-75678467D01*
X142392430Y-75743678D01*
X142387724Y-75820580D01*
X142298835Y-75820580D01*
X142298835Y-75336702D01*
X144901310Y-75336702D01*
X144901310Y-76324194D01*
G37*
G36*
X142906350Y-124288824D02*
G01*
X142818911Y-124288824D01*
X142762184Y-124284095D01*
X142714263Y-124270715D01*
X142673533Y-124249342D01*
X142638806Y-124219850D01*
X142611074Y-124183613D01*
X142590787Y-124141093D01*
X142578018Y-124091075D01*
X142573496Y-124031979D01*
X142577960Y-123976341D01*
X142590574Y-123929332D01*
X142610669Y-123889402D01*
X142638269Y-123855391D01*
X142672428Y-123828156D01*
X142713157Y-123808163D01*
X142761770Y-123795513D01*
X142819985Y-123791009D01*
X142906350Y-123791009D01*
X142906350Y-124288824D01*
G37*
G36*
X144901310Y-124533394D02*
G01*
X142298835Y-124533394D01*
X142298835Y-124029780D01*
X142387724Y-124029780D01*
X142387873Y-124031979D01*
X142392691Y-124103105D01*
X142406938Y-124167878D01*
X142429846Y-124225392D01*
X142461300Y-124276704D01*
X142501688Y-124322579D01*
X142548960Y-124361069D01*
X142602010Y-124391262D01*
X142661654Y-124413376D01*
X142728966Y-124427179D01*
X142805233Y-124432000D01*
X143082840Y-124432000D01*
X143262602Y-124432000D01*
X143440753Y-124432000D01*
X143763789Y-123938971D01*
X143803112Y-123873856D01*
X143805310Y-123873856D01*
X143800914Y-124000813D01*
X143800914Y-124432000D01*
X143967585Y-124432000D01*
X143967585Y-123984937D01*
X144120041Y-123984937D01*
X144120041Y-124378461D01*
X144178082Y-124406260D01*
X144244136Y-124426909D01*
X144319416Y-124439930D01*
X144405317Y-124444505D01*
X144481755Y-124439822D01*
X144548508Y-124426483D01*
X144606964Y-124405248D01*
X144658292Y-124376448D01*
X144703391Y-124339969D01*
X144741698Y-124296275D01*
X144771738Y-124246623D01*
X144793778Y-124190158D01*
X144807581Y-124125722D01*
X144812421Y-124051909D01*
X144807327Y-123978522D01*
X144792620Y-123912811D01*
X144768799Y-123853596D01*
X144735855Y-123799921D01*
X144693279Y-123751099D01*
X144643731Y-123710099D01*
X144588232Y-123677999D01*
X144525942Y-123654528D01*
X144455746Y-123639896D01*
X144376301Y-123634791D01*
X144293745Y-123638902D01*
X144220926Y-123650623D01*
X144156629Y-123669229D01*
X144156629Y-123834875D01*
X144202594Y-123812656D01*
X144254303Y-123796248D01*
X144312610Y-123785960D01*
X144378499Y-123782362D01*
X144432363Y-123787082D01*
X144479352Y-123800640D01*
X144520751Y-123822679D01*
X144557480Y-123853584D01*
X144587055Y-123891116D01*
X144608499Y-123934509D01*
X144621888Y-123984889D01*
X144626601Y-124043751D01*
X144622206Y-124104109D01*
X144609920Y-124154197D01*
X144590639Y-124195821D01*
X144564612Y-124230401D01*
X144531571Y-124258800D01*
X144493371Y-124279233D01*
X144449002Y-124291932D01*
X144397061Y-124296396D01*
X144337428Y-124291379D01*
X144296531Y-124278420D01*
X144296531Y-124125914D01*
X144453384Y-124125914D01*
X144453384Y-123984937D01*
X144120041Y-123984937D01*
X143967585Y-123984937D01*
X143967585Y-123647296D01*
X143777417Y-123647296D01*
X143466447Y-124124986D01*
X143427124Y-124189027D01*
X143424926Y-124189027D01*
X143427924Y-124155087D01*
X143429322Y-124081218D01*
X143429322Y-123647296D01*
X143262602Y-123647296D01*
X143262602Y-124432000D01*
X143082840Y-124432000D01*
X143082840Y-123647296D01*
X142805233Y-123647296D01*
X142717733Y-123652004D01*
X142644327Y-123665147D01*
X142582911Y-123685552D01*
X142531666Y-123712484D01*
X142489122Y-123745687D01*
X142454228Y-123785400D01*
X142426420Y-123832344D01*
X142405658Y-123887667D01*
X142392430Y-123952878D01*
X142387724Y-124029780D01*
X142298835Y-124029780D01*
X142298835Y-123545902D01*
X144901310Y-123545902D01*
X144901310Y-124533394D01*
G37*
G36*
X144086530Y-109061916D02*
G01*
X143990885Y-109061916D01*
X143951008Y-109058361D01*
X143919650Y-109048586D01*
X143894995Y-109033339D01*
X143875842Y-109012188D01*
X143864310Y-108986644D01*
X143860264Y-108955328D01*
X143864235Y-108925464D01*
X143875566Y-108901180D01*
X143894458Y-108881127D01*
X143918651Y-108866843D01*
X143949805Y-108857596D01*
X143989810Y-108854212D01*
X144086530Y-108854212D01*
X144086530Y-109061916D01*
G37*
G36*
X144086530Y-108723053D02*
G01*
X144008910Y-108723053D01*
X143973401Y-108719785D01*
X143945249Y-108710756D01*
X143922888Y-108696577D01*
X143905610Y-108677020D01*
X143895127Y-108653153D01*
X143891429Y-108623646D01*
X143896155Y-108593781D01*
X143909513Y-108571135D01*
X143932269Y-108553873D01*
X143967579Y-108542006D01*
X144020390Y-108537380D01*
X144086530Y-108537380D01*
X144086530Y-108723053D01*
G37*
G36*
X144351909Y-109280889D02*
G01*
X142447579Y-109280889D01*
X142447579Y-109192000D01*
X142536468Y-109192000D01*
X142708610Y-109192000D01*
X143180487Y-109192000D01*
X143352630Y-109192000D01*
X143352630Y-108957478D01*
X143674444Y-108957478D01*
X143679535Y-109010016D01*
X143694119Y-109055164D01*
X143717892Y-109094411D01*
X143751527Y-109128741D01*
X143791351Y-109155250D01*
X143838683Y-109174966D01*
X143894952Y-109187523D01*
X143961918Y-109192000D01*
X144263020Y-109192000D01*
X144263020Y-108407296D01*
X143977745Y-108407296D01*
X143910725Y-108410870D01*
X143856082Y-108420715D01*
X143811788Y-108435771D01*
X143776098Y-108455363D01*
X143744986Y-108482158D01*
X143723348Y-108513049D01*
X143710195Y-108548828D01*
X143705609Y-108590869D01*
X143709481Y-108623646D01*
X143710405Y-108631473D01*
X143724543Y-108668073D01*
X143748498Y-108701755D01*
X143779396Y-108729970D01*
X143815638Y-108751955D01*
X143858066Y-108767847D01*
X143858066Y-108770046D01*
X143804537Y-108782063D01*
X143760586Y-108802779D01*
X143724465Y-108831986D01*
X143696669Y-108868824D01*
X143680122Y-108910167D01*
X143674702Y-108955328D01*
X143674444Y-108957478D01*
X143352630Y-108957478D01*
X143352630Y-108586033D01*
X143386237Y-108609773D01*
X143427514Y-108629997D01*
X143472846Y-108645286D01*
X143519301Y-108654274D01*
X143519301Y-108508901D01*
X143453656Y-108486403D01*
X143392539Y-108458734D01*
X143335126Y-108426265D01*
X143284877Y-108391665D01*
X143180487Y-108391665D01*
X143180487Y-109192000D01*
X142708610Y-109192000D01*
X142708610Y-108586033D01*
X142742218Y-108609773D01*
X142783495Y-108629997D01*
X142828826Y-108645286D01*
X142875281Y-108654274D01*
X142875281Y-108508901D01*
X142809636Y-108486403D01*
X142748519Y-108458734D01*
X142691106Y-108426265D01*
X142640857Y-108391665D01*
X142536468Y-108391665D01*
X142536468Y-109192000D01*
X142447579Y-109192000D01*
X142447579Y-108302776D01*
X144351909Y-108302776D01*
X144351909Y-109280889D01*
G37*
G36*
X144086530Y-114141916D02*
G01*
X143990885Y-114141916D01*
X143951008Y-114138361D01*
X143919650Y-114128586D01*
X143894995Y-114113339D01*
X143875842Y-114092188D01*
X143864310Y-114066644D01*
X143860264Y-114035328D01*
X143864235Y-114005464D01*
X143875566Y-113981180D01*
X143894458Y-113961127D01*
X143918651Y-113946843D01*
X143949805Y-113937596D01*
X143989810Y-113934212D01*
X144086530Y-113934212D01*
X144086530Y-114141916D01*
G37*
G36*
X144086530Y-113803053D02*
G01*
X144008910Y-113803053D01*
X143973401Y-113799785D01*
X143945249Y-113790756D01*
X143922888Y-113776577D01*
X143905610Y-113757020D01*
X143895127Y-113733153D01*
X143891429Y-113703646D01*
X143896155Y-113673781D01*
X143909513Y-113651135D01*
X143932269Y-113633873D01*
X143967579Y-113622006D01*
X144020390Y-113617380D01*
X144086530Y-113617380D01*
X144086530Y-113803053D01*
G37*
G36*
X144351909Y-114373394D02*
G01*
X142338842Y-114373394D01*
X142338842Y-114046808D01*
X142427731Y-114046808D01*
X142433019Y-114100128D01*
X142448178Y-114145922D01*
X142472940Y-114185735D01*
X142508087Y-114220562D01*
X142549446Y-114247205D01*
X142599081Y-114267153D01*
X142658589Y-114279931D01*
X142729908Y-114284505D01*
X142810186Y-114279539D01*
X142845985Y-114272000D01*
X143180487Y-114272000D01*
X143352630Y-114272000D01*
X143352630Y-114037478D01*
X143674444Y-114037478D01*
X143679535Y-114090016D01*
X143694119Y-114135164D01*
X143717892Y-114174411D01*
X143751527Y-114208741D01*
X143791351Y-114235250D01*
X143838683Y-114254966D01*
X143894952Y-114267523D01*
X143961918Y-114272000D01*
X144263020Y-114272000D01*
X144263020Y-113487296D01*
X143977745Y-113487296D01*
X143910725Y-113490870D01*
X143856082Y-113500715D01*
X143811788Y-113515771D01*
X143776098Y-113535363D01*
X143744986Y-113562158D01*
X143723348Y-113593049D01*
X143710195Y-113628828D01*
X143705609Y-113670869D01*
X143709481Y-113703646D01*
X143710405Y-113711473D01*
X143724543Y-113748073D01*
X143748498Y-113781755D01*
X143779396Y-113809970D01*
X143815638Y-113831955D01*
X143858066Y-113847847D01*
X143858066Y-113850046D01*
X143804537Y-113862063D01*
X143760586Y-113882779D01*
X143724465Y-113911986D01*
X143696669Y-113948824D01*
X143680122Y-113990167D01*
X143674702Y-114035328D01*
X143674444Y-114037478D01*
X143352630Y-114037478D01*
X143352630Y-113666033D01*
X143386237Y-113689773D01*
X143427514Y-113709997D01*
X143472846Y-113725286D01*
X143519301Y-113734274D01*
X143519301Y-113588901D01*
X143453656Y-113566403D01*
X143392539Y-113538734D01*
X143335126Y-113506265D01*
X143284877Y-113471665D01*
X143180487Y-113471665D01*
X143180487Y-114272000D01*
X142845985Y-114272000D01*
X142875041Y-114265881D01*
X142927207Y-114244937D01*
X142927207Y-114093800D01*
X142886495Y-114119240D01*
X142842737Y-114137403D01*
X142795345Y-114148477D01*
X142743586Y-114152272D01*
X142700304Y-114148687D01*
X142666646Y-114138908D01*
X142640564Y-114123842D01*
X142620197Y-114102580D01*
X142607975Y-114076665D01*
X142603683Y-114044609D01*
X142608809Y-114012140D01*
X142623671Y-113985689D01*
X142649308Y-113963716D01*
X142681033Y-113948769D01*
X142722067Y-113938917D01*
X142774751Y-113935286D01*
X142847438Y-113935286D01*
X142847438Y-113803053D01*
X142780222Y-113803053D01*
X142726256Y-113799187D01*
X142687557Y-113789048D01*
X142660447Y-113774203D01*
X142642151Y-113755228D01*
X142631096Y-113731598D01*
X142627179Y-113701790D01*
X142631932Y-113667308D01*
X142645009Y-113641999D01*
X142666384Y-113623485D01*
X142698273Y-113611187D01*
X142744660Y-113606487D01*
X142795709Y-113611803D01*
X142846418Y-113628008D01*
X142897703Y-113656117D01*
X142897703Y-113516068D01*
X142841314Y-113493637D01*
X142777628Y-113479667D01*
X142705337Y-113474791D01*
X142644685Y-113478677D01*
X142594375Y-113489505D01*
X142552686Y-113506361D01*
X142518198Y-113528817D01*
X142488589Y-113558201D01*
X142467978Y-113590826D01*
X142455523Y-113627383D01*
X142451227Y-113668964D01*
X142455851Y-113718393D01*
X142468851Y-113759134D01*
X142489626Y-113792952D01*
X142518557Y-113821021D01*
X142556963Y-113843804D01*
X142606956Y-113860988D01*
X142606956Y-113863723D01*
X142553758Y-113875611D01*
X142510682Y-113895840D01*
X142475847Y-113924100D01*
X142449168Y-113959872D01*
X142433221Y-114000289D01*
X142427731Y-114046808D01*
X142338842Y-114046808D01*
X142338842Y-113382776D01*
X144351909Y-113382776D01*
X144351909Y-114373394D01*
G37*
G36*
X144086530Y-111601916D02*
G01*
X143990885Y-111601916D01*
X143951008Y-111598361D01*
X143919650Y-111588586D01*
X143894995Y-111573339D01*
X143875842Y-111552188D01*
X143864310Y-111526644D01*
X143860264Y-111495328D01*
X143864235Y-111465464D01*
X143875566Y-111441180D01*
X143894458Y-111421127D01*
X143918651Y-111406843D01*
X143949805Y-111397596D01*
X143989810Y-111394212D01*
X144086530Y-111394212D01*
X144086530Y-111601916D01*
G37*
G36*
X144086530Y-111263053D02*
G01*
X144008910Y-111263053D01*
X143973401Y-111259785D01*
X143945249Y-111250756D01*
X143922888Y-111236577D01*
X143905610Y-111217020D01*
X143895127Y-111193153D01*
X143891429Y-111163646D01*
X143896155Y-111133781D01*
X143909513Y-111111135D01*
X143932269Y-111093873D01*
X143967579Y-111082006D01*
X144020390Y-111077380D01*
X144086530Y-111077380D01*
X144086530Y-111263053D01*
G37*
G36*
X144351909Y-111820889D02*
G01*
X142334445Y-111820889D01*
X142334445Y-111157296D01*
X142423334Y-111157296D01*
X142427700Y-111209490D01*
X142440041Y-111253528D01*
X142459502Y-111293836D01*
X142484297Y-111330073D01*
X142513843Y-111362918D01*
X142547947Y-111393235D01*
X142622832Y-111448727D01*
X142673390Y-111485705D01*
X142716279Y-111521804D01*
X142745784Y-111556535D01*
X142754180Y-111573651D01*
X142756726Y-111588824D01*
X142424458Y-111588824D01*
X142424458Y-111732000D01*
X142945770Y-111732000D01*
X143180487Y-111732000D01*
X143352630Y-111732000D01*
X143352630Y-111497478D01*
X143674444Y-111497478D01*
X143679535Y-111550016D01*
X143694119Y-111595164D01*
X143717892Y-111634411D01*
X143751527Y-111668741D01*
X143791351Y-111695250D01*
X143838683Y-111714966D01*
X143894952Y-111727523D01*
X143961918Y-111732000D01*
X144263020Y-111732000D01*
X144263020Y-110947296D01*
X143977745Y-110947296D01*
X143910725Y-110950870D01*
X143856082Y-110960715D01*
X143811788Y-110975771D01*
X143776098Y-110995363D01*
X143744986Y-111022158D01*
X143723348Y-111053049D01*
X143710195Y-111088828D01*
X143705609Y-111130869D01*
X143709481Y-111163646D01*
X143710405Y-111171473D01*
X143724543Y-111208073D01*
X143748498Y-111241755D01*
X143779396Y-111269970D01*
X143815638Y-111291955D01*
X143858066Y-111307847D01*
X143858066Y-111310046D01*
X143804537Y-111322063D01*
X143760586Y-111342779D01*
X143724465Y-111371986D01*
X143696669Y-111408824D01*
X143680122Y-111450167D01*
X143674702Y-111495328D01*
X143674444Y-111497478D01*
X143352630Y-111497478D01*
X143352630Y-111126033D01*
X143386237Y-111149773D01*
X143427514Y-111169997D01*
X143472846Y-111185286D01*
X143519301Y-111194274D01*
X143519301Y-111048901D01*
X143453656Y-111026403D01*
X143392539Y-110998734D01*
X143335126Y-110966265D01*
X143284877Y-110931665D01*
X143180487Y-110931665D01*
X143180487Y-111732000D01*
X142945770Y-111732000D01*
X142945770Y-111672990D01*
X142940529Y-111614945D01*
X142925547Y-111564986D01*
X142902539Y-111519252D01*
X142874744Y-111479110D01*
X142842514Y-111443106D01*
X142807821Y-111411846D01*
X142738652Y-111359090D01*
X142678324Y-111312097D01*
X142634604Y-111267547D01*
X142618822Y-111244806D01*
X142608080Y-111222704D01*
X142601551Y-111199404D01*
X142599336Y-111174295D01*
X142602850Y-111141930D01*
X142612499Y-111117178D01*
X142627766Y-111098238D01*
X142648271Y-111084743D01*
X142676419Y-111075831D01*
X142714618Y-111072495D01*
X142763180Y-111077274D01*
X142811102Y-111091772D01*
X142859183Y-111116753D01*
X142908059Y-111153632D01*
X142908059Y-111001176D01*
X142855577Y-110972249D01*
X142800061Y-110951604D01*
X142740920Y-110939064D01*
X142677445Y-110934791D01*
X142619757Y-110938865D01*
X142570613Y-110950374D01*
X142526315Y-110969660D01*
X142490550Y-110994923D01*
X142461735Y-111026874D01*
X142440578Y-111065168D01*
X142427783Y-111108109D01*
X142423334Y-111157296D01*
X142334445Y-111157296D01*
X142334445Y-110842776D01*
X144351909Y-110842776D01*
X144351909Y-111820889D01*
G37*
G36*
X143442510Y-83661916D02*
G01*
X143346865Y-83661916D01*
X143306988Y-83658361D01*
X143275630Y-83648586D01*
X143250975Y-83633339D01*
X143231822Y-83612188D01*
X143220290Y-83586644D01*
X143216244Y-83555328D01*
X143220215Y-83525464D01*
X143231546Y-83501180D01*
X143250438Y-83481127D01*
X143274631Y-83466843D01*
X143305785Y-83457596D01*
X143345790Y-83454212D01*
X143442510Y-83454212D01*
X143442510Y-83661916D01*
G37*
G36*
X143442510Y-83323053D02*
G01*
X143364890Y-83323053D01*
X143329381Y-83319785D01*
X143301229Y-83310756D01*
X143278868Y-83296577D01*
X143261590Y-83277020D01*
X143251107Y-83253153D01*
X143247409Y-83223646D01*
X143252135Y-83193781D01*
X143265493Y-83171135D01*
X143288249Y-83153873D01*
X143323559Y-83142006D01*
X143376370Y-83137380D01*
X143442510Y-83137380D01*
X143442510Y-83323053D01*
G37*
G36*
X143707889Y-83880889D02*
G01*
X142447578Y-83880889D01*
X142447578Y-83792000D01*
X142536467Y-83792000D01*
X142708610Y-83792000D01*
X142708610Y-83557478D01*
X143030424Y-83557478D01*
X143035515Y-83610016D01*
X143050099Y-83655164D01*
X143073872Y-83694411D01*
X143107507Y-83728741D01*
X143147331Y-83755250D01*
X143194663Y-83774966D01*
X143250932Y-83787523D01*
X143317898Y-83792000D01*
X143619000Y-83792000D01*
X143619000Y-83007296D01*
X143333725Y-83007296D01*
X143266705Y-83010870D01*
X143212062Y-83020715D01*
X143167768Y-83035771D01*
X143132078Y-83055363D01*
X143100966Y-83082158D01*
X143079328Y-83113049D01*
X143066175Y-83148828D01*
X143061589Y-83190869D01*
X143065461Y-83223646D01*
X143066385Y-83231473D01*
X143080523Y-83268073D01*
X143104478Y-83301755D01*
X143135376Y-83329970D01*
X143171618Y-83351955D01*
X143214046Y-83367847D01*
X143214046Y-83370046D01*
X143160517Y-83382063D01*
X143116566Y-83402779D01*
X143080445Y-83431986D01*
X143052649Y-83468824D01*
X143036102Y-83510167D01*
X143030682Y-83555328D01*
X143030424Y-83557478D01*
X142708610Y-83557478D01*
X142708610Y-83186033D01*
X142742217Y-83209773D01*
X142783494Y-83229997D01*
X142828826Y-83245286D01*
X142875281Y-83254274D01*
X142875281Y-83108901D01*
X142809636Y-83086403D01*
X142748519Y-83058734D01*
X142691106Y-83026265D01*
X142640857Y-82991665D01*
X142536467Y-82991665D01*
X142536467Y-83792000D01*
X142447578Y-83792000D01*
X142447578Y-82902776D01*
X143707889Y-82902776D01*
X143707889Y-83880889D01*
G37*
G36*
X142698566Y-103448997D02*
G01*
X142718184Y-103456403D01*
X142735634Y-103468065D01*
X142750668Y-103483563D01*
X142762655Y-103502176D01*
X142772015Y-103524986D01*
X142777683Y-103549760D01*
X142779635Y-103577108D01*
X142777629Y-103606875D01*
X142772015Y-103631769D01*
X142762584Y-103654146D01*
X142750424Y-103672118D01*
X142735018Y-103686603D01*
X142716816Y-103697080D01*
X142696350Y-103703394D01*
X142673097Y-103705579D01*
X142650965Y-103703261D01*
X142631575Y-103696542D01*
X142614237Y-103685868D01*
X142599580Y-103672118D01*
X142587800Y-103655543D01*
X142578819Y-103635872D01*
X142573327Y-103614428D01*
X142571443Y-103590834D01*
X142573401Y-103561240D01*
X142579112Y-103534023D01*
X142588462Y-103508796D01*
X142600410Y-103488203D01*
X142615669Y-103470924D01*
X142633774Y-103457771D01*
X142654278Y-103449333D01*
X142676907Y-103446487D01*
X142698566Y-103448997D01*
G37*
G36*
X143442510Y-103981916D02*
G01*
X143346865Y-103981916D01*
X143306988Y-103978361D01*
X143275630Y-103968586D01*
X143250975Y-103953339D01*
X143231822Y-103932188D01*
X143220290Y-103906644D01*
X143216244Y-103875328D01*
X143220215Y-103845464D01*
X143231546Y-103821180D01*
X143250438Y-103801127D01*
X143274631Y-103786843D01*
X143305785Y-103777596D01*
X143345790Y-103774212D01*
X143442510Y-103774212D01*
X143442510Y-103981916D01*
G37*
G36*
X143442510Y-103643053D02*
G01*
X143364890Y-103643053D01*
X143329381Y-103639785D01*
X143301229Y-103630756D01*
X143278868Y-103616577D01*
X143261590Y-103597020D01*
X143251107Y-103573153D01*
X143247409Y-103543646D01*
X143252135Y-103513781D01*
X143265493Y-103491135D01*
X143288249Y-103473873D01*
X143323559Y-103462006D01*
X143376370Y-103457380D01*
X143442510Y-103457380D01*
X143442510Y-103643053D01*
G37*
G36*
X143707889Y-104213394D02*
G01*
X142308213Y-104213394D01*
X142308213Y-103681692D01*
X142397102Y-103681692D01*
X142399836Y-103751031D01*
X142407653Y-103812920D01*
X142420061Y-103868147D01*
X142438309Y-103921579D01*
X142460702Y-103967612D01*
X142487032Y-104007122D01*
X142518683Y-104042199D01*
X142554349Y-104071098D01*
X142594402Y-104094219D01*
X142637620Y-104110771D01*
X142685266Y-104120977D01*
X142738114Y-104124505D01*
X142801701Y-104120815D01*
X142856475Y-104110384D01*
X142903711Y-104093926D01*
X142903711Y-103951825D01*
X142860884Y-103973857D01*
X142811798Y-103987499D01*
X142755065Y-103992272D01*
X142711493Y-103988223D01*
X142674547Y-103976706D01*
X142642926Y-103958106D01*
X142615748Y-103932041D01*
X142594950Y-103900935D01*
X142585290Y-103877478D01*
X143030424Y-103877478D01*
X143035515Y-103930016D01*
X143050099Y-103975164D01*
X143073872Y-104014411D01*
X143107507Y-104048741D01*
X143147331Y-104075250D01*
X143194663Y-104094966D01*
X143250932Y-104107523D01*
X143317898Y-104112000D01*
X143619000Y-104112000D01*
X143619000Y-103327296D01*
X143333725Y-103327296D01*
X143266705Y-103330870D01*
X143212062Y-103340715D01*
X143167768Y-103355771D01*
X143132078Y-103375363D01*
X143100966Y-103402158D01*
X143079328Y-103433049D01*
X143066175Y-103468828D01*
X143061589Y-103510869D01*
X143065461Y-103543646D01*
X143066385Y-103551473D01*
X143080523Y-103588073D01*
X143104478Y-103621755D01*
X143135376Y-103649970D01*
X143171618Y-103671955D01*
X143214046Y-103687847D01*
X143214046Y-103690046D01*
X143160517Y-103702063D01*
X143116566Y-103722779D01*
X143080445Y-103751986D01*
X143052649Y-103788824D01*
X143036102Y-103830167D01*
X143030682Y-103875328D01*
X143030424Y-103877478D01*
X142585290Y-103877478D01*
X142579154Y-103862578D01*
X142568823Y-103815472D01*
X142564897Y-103757799D01*
X142568170Y-103756724D01*
X142597170Y-103790229D01*
X142632232Y-103813998D01*
X142674558Y-103828762D01*
X142726097Y-103834002D01*
X142772743Y-103829400D01*
X142814904Y-103815928D01*
X142852946Y-103794309D01*
X142885393Y-103765810D01*
X142911679Y-103731058D01*
X142931848Y-103689411D01*
X142944222Y-103643547D01*
X142948505Y-103591909D01*
X142943295Y-103531916D01*
X142928282Y-103479117D01*
X142903822Y-103431416D01*
X142871715Y-103391483D01*
X142832048Y-103359128D01*
X142784569Y-103334770D01*
X142731843Y-103319937D01*
X142671973Y-103314791D01*
X142629927Y-103317677D01*
X142591883Y-103326045D01*
X142557228Y-103339655D01*
X142525157Y-103358555D01*
X142496377Y-103382363D01*
X142470619Y-103411462D01*
X142449217Y-103444081D01*
X142430933Y-103482225D01*
X142415958Y-103526647D01*
X142403374Y-103590834D01*
X142402067Y-103597498D01*
X142397102Y-103681692D01*
X142308213Y-103681692D01*
X142308213Y-103225902D01*
X143707889Y-103225902D01*
X143707889Y-104213394D01*
G37*
G36*
X143442510Y-98901916D02*
G01*
X143346865Y-98901916D01*
X143306988Y-98898361D01*
X143275630Y-98888586D01*
X143250975Y-98873339D01*
X143231822Y-98852188D01*
X143220290Y-98826644D01*
X143216244Y-98795328D01*
X143220215Y-98765464D01*
X143231546Y-98741180D01*
X143250438Y-98721127D01*
X143274631Y-98706843D01*
X143305785Y-98697596D01*
X143345790Y-98694212D01*
X143442510Y-98694212D01*
X143442510Y-98901916D01*
G37*
G36*
X143442510Y-98563053D02*
G01*
X143364890Y-98563053D01*
X143329381Y-98559785D01*
X143301229Y-98550756D01*
X143278868Y-98536577D01*
X143261590Y-98517020D01*
X143251107Y-98493153D01*
X143247409Y-98463646D01*
X143252135Y-98433781D01*
X143265493Y-98411135D01*
X143288249Y-98393873D01*
X143323559Y-98382006D01*
X143376370Y-98377380D01*
X143442510Y-98377380D01*
X143442510Y-98563053D01*
G37*
G36*
X143707889Y-99120889D02*
G01*
X142304403Y-99120889D01*
X142304403Y-98346752D01*
X142393292Y-98346752D01*
X142487277Y-98524365D01*
X142526654Y-98607419D01*
X142560501Y-98688008D01*
X142589895Y-98769473D01*
X142614625Y-98852237D01*
X142634671Y-98937485D01*
X142651213Y-99032000D01*
X142831561Y-99032000D01*
X142813703Y-98941744D01*
X142791164Y-98855754D01*
X142772230Y-98797478D01*
X143030424Y-98797478D01*
X143035515Y-98850016D01*
X143050099Y-98895164D01*
X143073872Y-98934411D01*
X143107507Y-98968741D01*
X143147331Y-98995250D01*
X143194663Y-99014966D01*
X143250932Y-99027523D01*
X143317898Y-99032000D01*
X143619000Y-99032000D01*
X143619000Y-98247296D01*
X143333725Y-98247296D01*
X143266705Y-98250870D01*
X143212062Y-98260715D01*
X143167768Y-98275771D01*
X143132078Y-98295363D01*
X143100966Y-98322158D01*
X143079328Y-98353049D01*
X143066175Y-98388828D01*
X143061589Y-98430869D01*
X143065461Y-98463646D01*
X143066385Y-98471473D01*
X143080523Y-98508073D01*
X143104478Y-98541755D01*
X143135376Y-98569970D01*
X143171618Y-98591955D01*
X143214046Y-98607847D01*
X143214046Y-98610046D01*
X143160517Y-98622063D01*
X143116566Y-98642779D01*
X143080445Y-98671986D01*
X143052649Y-98708824D01*
X143036102Y-98750167D01*
X143030682Y-98795328D01*
X143030424Y-98797478D01*
X142772230Y-98797478D01*
X142763937Y-98771952D01*
X142732936Y-98691281D01*
X142698058Y-98612568D01*
X142659712Y-98536089D01*
X142574716Y-98388273D01*
X142938686Y-98388273D01*
X142938686Y-98247296D01*
X142393292Y-98247296D01*
X142393292Y-98346752D01*
X142304403Y-98346752D01*
X142304403Y-98158407D01*
X143707889Y-98158407D01*
X143707889Y-99120889D01*
G37*
G36*
X142692695Y-101232318D02*
G01*
X142714667Y-101238657D01*
X142734567Y-101248972D01*
X142751254Y-101262739D01*
X142764827Y-101279639D01*
X142775288Y-101299669D01*
X142781798Y-101321680D01*
X142784032Y-101346124D01*
X142781898Y-101372052D01*
X142775825Y-101394288D01*
X142765747Y-101414117D01*
X142752329Y-101430387D01*
X142735726Y-101443362D01*
X142715986Y-101453102D01*
X142694090Y-101458961D01*
X142668700Y-101461016D01*
X142644307Y-101458910D01*
X142622538Y-101452809D01*
X142602789Y-101442880D01*
X142586195Y-101429850D01*
X142572658Y-101413598D01*
X142562162Y-101393751D01*
X142555675Y-101371554D01*
X142553418Y-101346124D01*
X142555483Y-101323092D01*
X142561624Y-101301281D01*
X142571668Y-101281271D01*
X142585120Y-101264351D01*
X142601735Y-101250423D01*
X142621464Y-101239487D01*
X142643425Y-101232564D01*
X142668700Y-101230157D01*
X142692695Y-101232318D01*
G37*
G36*
X142686640Y-100900900D02*
G01*
X142704555Y-100906829D01*
X142720600Y-100916162D01*
X142734060Y-100928127D01*
X142744878Y-100942601D01*
X142753159Y-100959829D01*
X142758263Y-100978622D01*
X142759998Y-100998957D01*
X142758132Y-101019226D01*
X142752622Y-101038036D01*
X142743865Y-101055271D01*
X142732692Y-101069787D01*
X142718984Y-101081713D01*
X142702894Y-101090841D01*
X142685215Y-101096550D01*
X142666551Y-101098461D01*
X142647420Y-101096530D01*
X142629915Y-101090841D01*
X142614005Y-101081681D01*
X142600117Y-101069494D01*
X142588683Y-101054801D01*
X142579894Y-101037792D01*
X142574389Y-101019191D01*
X142572517Y-100998957D01*
X142574337Y-100978168D01*
X142579649Y-100959292D01*
X142588243Y-100942097D01*
X142599580Y-100927589D01*
X142613500Y-100915627D01*
X142629670Y-100906535D01*
X142647388Y-100900804D01*
X142666551Y-100898866D01*
X142686640Y-100900900D01*
G37*
G36*
X143442510Y-101441916D02*
G01*
X143346865Y-101441916D01*
X143306988Y-101438361D01*
X143275630Y-101428586D01*
X143250975Y-101413339D01*
X143231822Y-101392188D01*
X143220290Y-101366644D01*
X143216244Y-101335328D01*
X143220215Y-101305464D01*
X143231546Y-101281180D01*
X143250438Y-101261127D01*
X143274631Y-101246843D01*
X143305785Y-101237596D01*
X143345790Y-101234212D01*
X143442510Y-101234212D01*
X143442510Y-101441916D01*
G37*
G36*
X143442510Y-101103053D02*
G01*
X143364890Y-101103053D01*
X143329381Y-101099785D01*
X143301229Y-101090756D01*
X143278868Y-101076577D01*
X143261590Y-101057020D01*
X143251107Y-101033153D01*
X143247409Y-101003646D01*
X143252135Y-100973781D01*
X143265493Y-100951135D01*
X143288249Y-100933873D01*
X143323559Y-100922006D01*
X143376370Y-100917380D01*
X143442510Y-100917380D01*
X143442510Y-101103053D01*
G37*
G36*
X143707889Y-101673394D02*
G01*
X142302205Y-101673394D01*
X142302205Y-101359215D01*
X142391094Y-101359215D01*
X142396263Y-101407779D01*
X142411317Y-101450806D01*
X142435597Y-101489079D01*
X142468421Y-101521881D01*
X142508184Y-101547978D01*
X142556397Y-101568092D01*
X142609177Y-101580256D01*
X142669286Y-101584505D01*
X142728379Y-101580351D01*
X142781003Y-101568385D01*
X142829237Y-101548565D01*
X142869028Y-101522760D01*
X142901958Y-101490178D01*
X142926670Y-101451930D01*
X142942147Y-101408909D01*
X142947430Y-101360876D01*
X142945685Y-101337478D01*
X143030424Y-101337478D01*
X143035515Y-101390016D01*
X143050099Y-101435164D01*
X143073872Y-101474411D01*
X143107507Y-101508741D01*
X143147331Y-101535250D01*
X143194663Y-101554966D01*
X143250932Y-101567523D01*
X143317898Y-101572000D01*
X143619000Y-101572000D01*
X143619000Y-100787296D01*
X143333725Y-100787296D01*
X143266705Y-100790870D01*
X143212062Y-100800715D01*
X143167768Y-100815771D01*
X143132078Y-100835363D01*
X143100966Y-100862158D01*
X143079328Y-100893049D01*
X143066175Y-100928828D01*
X143061589Y-100970869D01*
X143065461Y-101003646D01*
X143066385Y-101011473D01*
X143080523Y-101048073D01*
X143104478Y-101081755D01*
X143135376Y-101109970D01*
X143171618Y-101131955D01*
X143214046Y-101147847D01*
X143214046Y-101150046D01*
X143160517Y-101162063D01*
X143116566Y-101182779D01*
X143080445Y-101211986D01*
X143052649Y-101248824D01*
X143036102Y-101290167D01*
X143030682Y-101335328D01*
X143030424Y-101337478D01*
X142945685Y-101337478D01*
X142945019Y-101328553D01*
X142937856Y-101297715D01*
X142925924Y-101268513D01*
X142909182Y-101241392D01*
X142887907Y-101217033D01*
X142861359Y-101194937D01*
X142830748Y-101176579D01*
X142793850Y-101161281D01*
X142831547Y-101139081D01*
X142862042Y-101113860D01*
X142886223Y-101085565D01*
X142904499Y-101053489D01*
X142915341Y-101019561D01*
X142919000Y-100983081D01*
X142914228Y-100939631D01*
X142900145Y-100899990D01*
X142877728Y-100864374D01*
X142847975Y-100833849D01*
X142811967Y-100809338D01*
X142768449Y-100790374D01*
X142720876Y-100778798D01*
X142667626Y-100774791D01*
X142613395Y-100778812D01*
X142565434Y-100790374D01*
X142521603Y-100809279D01*
X142485372Y-100833556D01*
X142455420Y-100863827D01*
X142433201Y-100898915D01*
X142419301Y-100938007D01*
X142414590Y-100980883D01*
X142416535Y-100998957D01*
X142418467Y-101016906D01*
X142429994Y-101050473D01*
X142449566Y-101082341D01*
X142475069Y-101110241D01*
X142507003Y-101135284D01*
X142546286Y-101157471D01*
X142509813Y-101172728D01*
X142479070Y-101191127D01*
X142452205Y-101213270D01*
X142430466Y-101237875D01*
X142413227Y-101265317D01*
X142400961Y-101295028D01*
X142393577Y-101326405D01*
X142392085Y-101346124D01*
X142391094Y-101359215D01*
X142302205Y-101359215D01*
X142302205Y-100685902D01*
X143707889Y-100685902D01*
X143707889Y-101673394D01*
G37*
G36*
X143748824Y-78813394D02*
G01*
X142262491Y-78813394D01*
X142262491Y-77927296D01*
X142351380Y-77927296D01*
X142621366Y-78712000D01*
X142821352Y-78712000D01*
X142908585Y-78455349D01*
X143167542Y-78455349D01*
X143172878Y-78513275D01*
X143188263Y-78564045D01*
X143213423Y-78609055D01*
X143248972Y-78649278D01*
X143291615Y-78681185D01*
X143341618Y-78704564D01*
X143400395Y-78719290D01*
X143469768Y-78724505D01*
X143544725Y-78720336D01*
X143607488Y-78708708D01*
X143659935Y-78690653D01*
X143659935Y-78543179D01*
X143604749Y-78570644D01*
X143548040Y-78586853D01*
X143488916Y-78592272D01*
X143444447Y-78588223D01*
X143409522Y-78577088D01*
X143382084Y-78559690D01*
X143360856Y-78535666D01*
X143348042Y-78506691D01*
X143343543Y-78471225D01*
X143347913Y-78436282D01*
X143360153Y-78408839D01*
X143380171Y-78387071D01*
X143409449Y-78370242D01*
X143450796Y-78358849D01*
X143508016Y-78354526D01*
X143570849Y-78356684D01*
X143647918Y-78363807D01*
X143618414Y-77927296D01*
X143203641Y-77927296D01*
X143203641Y-78068273D01*
X143486718Y-78068273D01*
X143497660Y-78224442D01*
X143424974Y-78221169D01*
X143364668Y-78225620D01*
X143314118Y-78238123D01*
X143271630Y-78257853D01*
X143235881Y-78284623D01*
X143206406Y-78318477D01*
X143185257Y-78357474D01*
X143172143Y-78402627D01*
X143167542Y-78455349D01*
X142908585Y-78455349D01*
X143088065Y-77927296D01*
X142897897Y-77927296D01*
X142734499Y-78473423D01*
X142723643Y-78516717D01*
X142718623Y-78551678D01*
X142715350Y-78551678D01*
X142709445Y-78514357D01*
X142698400Y-78471225D01*
X142536076Y-77927296D01*
X142351380Y-77927296D01*
X142262491Y-77927296D01*
X142262491Y-77838407D01*
X143748824Y-77838407D01*
X143748824Y-78813394D01*
G37*
G36*
X142669824Y-90920583D02*
G01*
X142716816Y-90992586D01*
X142766544Y-91061267D01*
X142815197Y-91123598D01*
X142628254Y-91123598D01*
X142628254Y-90848336D01*
X142669824Y-90920583D01*
G37*
G36*
X143442510Y-91281916D02*
G01*
X143346865Y-91281916D01*
X143306988Y-91278361D01*
X143275630Y-91268586D01*
X143250975Y-91253339D01*
X143231822Y-91232188D01*
X143220290Y-91206644D01*
X143216244Y-91175328D01*
X143220215Y-91145464D01*
X143231546Y-91121180D01*
X143250438Y-91101127D01*
X143274631Y-91086843D01*
X143305785Y-91077596D01*
X143345790Y-91074212D01*
X143442510Y-91074212D01*
X143442510Y-91281916D01*
G37*
G36*
X143442510Y-90943053D02*
G01*
X143364890Y-90943053D01*
X143329381Y-90939785D01*
X143301229Y-90930756D01*
X143278868Y-90916577D01*
X143261590Y-90897020D01*
X143251107Y-90873153D01*
X143247409Y-90843646D01*
X143252135Y-90813781D01*
X143265493Y-90791135D01*
X143288249Y-90773873D01*
X143323559Y-90762006D01*
X143376370Y-90757380D01*
X143442510Y-90757380D01*
X143442510Y-90943053D01*
G37*
G36*
X143707889Y-91500889D02*
G01*
X142287990Y-91500889D01*
X142287990Y-91123598D01*
X142376879Y-91123598D01*
X142376879Y-91252558D01*
X142470864Y-91252558D01*
X142470864Y-91412000D01*
X142628254Y-91412000D01*
X142628254Y-91252558D01*
X142969852Y-91252558D01*
X142969852Y-91177478D01*
X143030424Y-91177478D01*
X143035515Y-91230016D01*
X143050099Y-91275164D01*
X143073872Y-91314411D01*
X143107507Y-91348741D01*
X143147331Y-91375250D01*
X143194663Y-91394966D01*
X143250932Y-91407523D01*
X143317898Y-91412000D01*
X143619000Y-91412000D01*
X143619000Y-90627296D01*
X143333725Y-90627296D01*
X143266705Y-90630870D01*
X143212062Y-90640715D01*
X143167768Y-90655771D01*
X143132078Y-90675363D01*
X143100966Y-90702158D01*
X143079328Y-90733049D01*
X143066175Y-90768828D01*
X143061589Y-90810869D01*
X143065461Y-90843646D01*
X143066385Y-90851473D01*
X143080523Y-90888073D01*
X143104478Y-90921755D01*
X143135376Y-90949970D01*
X143171618Y-90971955D01*
X143214046Y-90987847D01*
X143214046Y-90990046D01*
X143160517Y-91002063D01*
X143116566Y-91022779D01*
X143080445Y-91051986D01*
X143052649Y-91088824D01*
X143036102Y-91130167D01*
X143030682Y-91175328D01*
X143030424Y-91177478D01*
X142969852Y-91177478D01*
X142969852Y-91117589D01*
X142875867Y-91005872D01*
X142781834Y-90880967D01*
X142697374Y-90751665D01*
X142660578Y-90686801D01*
X142630989Y-90627296D01*
X142470864Y-90627296D01*
X142470864Y-91123598D01*
X142376879Y-91123598D01*
X142287990Y-91123598D01*
X142287990Y-90538407D01*
X143707889Y-90538407D01*
X143707889Y-91500889D01*
G37*
G36*
X142679384Y-96118783D02*
G01*
X142699328Y-96125244D01*
X142717127Y-96135711D01*
X142732155Y-96149669D01*
X142744110Y-96166632D01*
X142753159Y-96186842D01*
X142758627Y-96209034D01*
X142760536Y-96234372D01*
X142758586Y-96262519D01*
X142752915Y-96288154D01*
X142743532Y-96311856D01*
X142731324Y-96331825D01*
X142715950Y-96348688D01*
X142698254Y-96361427D01*
X142678190Y-96369517D01*
X142655609Y-96372272D01*
X142632992Y-96369839D01*
X142613257Y-96362795D01*
X142595823Y-96351421D01*
X142581017Y-96336173D01*
X142569395Y-96317693D01*
X142560550Y-96294944D01*
X142555261Y-96270046D01*
X142553418Y-96241944D01*
X142558477Y-96192578D01*
X142571734Y-96158565D01*
X142591748Y-96135695D01*
X142619195Y-96121661D01*
X142656684Y-96116549D01*
X142679384Y-96118783D01*
G37*
G36*
X143442510Y-96361916D02*
G01*
X143346865Y-96361916D01*
X143306988Y-96358361D01*
X143275630Y-96348586D01*
X143250975Y-96333339D01*
X143231822Y-96312188D01*
X143220290Y-96286644D01*
X143216244Y-96255328D01*
X143220215Y-96225464D01*
X143231546Y-96201180D01*
X143250438Y-96181127D01*
X143274631Y-96166843D01*
X143305785Y-96157596D01*
X143345790Y-96154212D01*
X143442510Y-96154212D01*
X143442510Y-96361916D01*
G37*
G36*
X143442510Y-96023053D02*
G01*
X143364890Y-96023053D01*
X143329381Y-96019785D01*
X143301229Y-96010756D01*
X143278868Y-95996577D01*
X143261590Y-95977020D01*
X143251107Y-95953153D01*
X143247409Y-95923646D01*
X143252135Y-95893781D01*
X143265493Y-95871135D01*
X143288249Y-95853873D01*
X143323559Y-95842006D01*
X143376370Y-95837380D01*
X143442510Y-95837380D01*
X143442510Y-96023053D01*
G37*
G36*
X143707889Y-96593394D02*
G01*
X142295659Y-96593394D01*
X142295659Y-96231050D01*
X142384548Y-96231050D01*
X142385543Y-96241944D01*
X142389686Y-96287318D01*
X142404771Y-96338908D01*
X142429126Y-96385943D01*
X142461094Y-96425810D01*
X142500315Y-96458444D01*
X142546872Y-96483549D01*
X142598325Y-96499150D01*
X142655609Y-96504505D01*
X142699119Y-96501641D01*
X142738346Y-96493358D01*
X142773920Y-96479934D01*
X142806862Y-96461136D01*
X142836181Y-96437509D01*
X142862189Y-96408713D01*
X142883775Y-96376248D01*
X142902233Y-96338357D01*
X142917388Y-96294309D01*
X142924768Y-96257478D01*
X143030424Y-96257478D01*
X143035515Y-96310016D01*
X143050099Y-96355164D01*
X143073872Y-96394411D01*
X143107507Y-96428741D01*
X143147331Y-96455250D01*
X143194663Y-96474966D01*
X143250932Y-96487523D01*
X143317898Y-96492000D01*
X143619000Y-96492000D01*
X143619000Y-95707296D01*
X143333725Y-95707296D01*
X143266705Y-95710870D01*
X143212062Y-95720715D01*
X143167768Y-95735771D01*
X143132078Y-95755363D01*
X143100966Y-95782158D01*
X143079328Y-95813049D01*
X143066175Y-95848828D01*
X143061589Y-95890869D01*
X143065461Y-95923646D01*
X143066385Y-95931473D01*
X143080523Y-95968073D01*
X143104478Y-96001755D01*
X143135376Y-96029970D01*
X143171618Y-96051955D01*
X143214046Y-96067847D01*
X143214046Y-96070046D01*
X143160517Y-96082063D01*
X143116566Y-96102779D01*
X143080445Y-96131986D01*
X143052649Y-96168824D01*
X143036102Y-96210167D01*
X143030682Y-96255328D01*
X143030424Y-96257478D01*
X142924768Y-96257478D01*
X142931468Y-96224043D01*
X142936488Y-96140876D01*
X142933568Y-96073847D01*
X142925143Y-96013004D01*
X142911624Y-95957694D01*
X142892151Y-95904328D01*
X142868427Y-95857713D01*
X142840598Y-95817108D01*
X142807458Y-95780927D01*
X142770322Y-95750933D01*
X142728833Y-95726738D01*
X142684096Y-95709235D01*
X142635160Y-95698491D01*
X142581261Y-95694791D01*
X142520607Y-95697610D01*
X142474573Y-95705110D01*
X142440284Y-95716089D01*
X142440284Y-95860339D01*
X142481102Y-95841568D01*
X142524243Y-95830302D01*
X142570368Y-95826487D01*
X142612544Y-95830859D01*
X142649601Y-95843535D01*
X142682510Y-95864031D01*
X142710564Y-95891797D01*
X142732883Y-95925622D01*
X142750473Y-95967268D01*
X142761432Y-96013001D01*
X142766007Y-96065747D01*
X142762734Y-96065747D01*
X142731975Y-96032380D01*
X142695213Y-96008635D01*
X142651250Y-95993886D01*
X142598212Y-95988664D01*
X142551265Y-95993156D01*
X142510284Y-96006103D01*
X142473722Y-96027198D01*
X142443069Y-96055391D01*
X142418618Y-96089937D01*
X142399887Y-96131937D01*
X142388520Y-96178158D01*
X142384548Y-96231050D01*
X142295659Y-96231050D01*
X142295659Y-95605902D01*
X143707889Y-95605902D01*
X143707889Y-96593394D01*
G37*
G36*
X142694828Y-105991867D02*
G01*
X142719474Y-106008078D01*
X142741176Y-106037630D01*
X142759565Y-106085704D01*
X142772818Y-106159450D01*
X142778024Y-106267561D01*
X142772991Y-106368752D01*
X142760153Y-106438027D01*
X142742276Y-106483425D01*
X142721055Y-106511534D01*
X142696777Y-106527081D01*
X142668163Y-106532272D01*
X142640691Y-106527096D01*
X142617174Y-106511466D01*
X142596407Y-106482882D01*
X142578770Y-106436251D01*
X142566042Y-106364576D01*
X142561039Y-106259355D01*
X142565974Y-106153828D01*
X142578516Y-106082074D01*
X142595865Y-106035515D01*
X142616233Y-106007080D01*
X142639210Y-105991598D01*
X142665965Y-105986487D01*
X142694828Y-105991867D01*
G37*
G36*
X144086530Y-106521916D02*
G01*
X143990885Y-106521916D01*
X143951008Y-106518361D01*
X143919650Y-106508586D01*
X143894995Y-106493339D01*
X143875842Y-106472188D01*
X143864310Y-106446644D01*
X143860264Y-106415328D01*
X143864235Y-106385464D01*
X143875566Y-106361180D01*
X143894458Y-106341127D01*
X143918651Y-106326843D01*
X143949805Y-106317596D01*
X143989810Y-106314212D01*
X144086530Y-106314212D01*
X144086530Y-106521916D01*
G37*
G36*
X144086530Y-106183053D02*
G01*
X144008910Y-106183053D01*
X143973401Y-106179785D01*
X143945249Y-106170756D01*
X143922888Y-106156577D01*
X143905610Y-106137020D01*
X143895127Y-106113153D01*
X143891429Y-106083646D01*
X143896155Y-106053781D01*
X143909513Y-106031135D01*
X143932269Y-106013873D01*
X143967579Y-106002006D01*
X144020390Y-105997380D01*
X144086530Y-105997380D01*
X144086530Y-106183053D01*
G37*
G36*
X144351909Y-106753394D02*
G01*
X142296197Y-106753394D01*
X142296197Y-106253933D01*
X142385086Y-106253933D01*
X142385321Y-106259355D01*
X142388681Y-106336718D01*
X142398742Y-106406999D01*
X142414340Y-106466444D01*
X142434791Y-106516547D01*
X142459678Y-106558601D01*
X142492224Y-106596841D01*
X142529151Y-106626022D01*
X142571009Y-106646995D01*
X142618745Y-106659973D01*
X142673634Y-106664505D01*
X142731832Y-106659750D01*
X142760250Y-106652000D01*
X143180487Y-106652000D01*
X143352630Y-106652000D01*
X143352630Y-106417478D01*
X143674444Y-106417478D01*
X143679535Y-106470016D01*
X143694119Y-106515164D01*
X143717892Y-106554411D01*
X143751527Y-106588741D01*
X143791351Y-106615250D01*
X143838683Y-106634966D01*
X143894952Y-106647523D01*
X143961918Y-106652000D01*
X144263020Y-106652000D01*
X144263020Y-105867296D01*
X143977745Y-105867296D01*
X143910725Y-105870870D01*
X143856082Y-105880715D01*
X143811788Y-105895771D01*
X143776098Y-105915363D01*
X143744986Y-105942158D01*
X143723348Y-105973049D01*
X143710195Y-106008828D01*
X143705609Y-106050869D01*
X143709481Y-106083646D01*
X143710405Y-106091473D01*
X143724543Y-106128073D01*
X143748498Y-106161755D01*
X143779396Y-106189970D01*
X143815638Y-106211955D01*
X143858066Y-106227847D01*
X143858066Y-106230046D01*
X143804537Y-106242063D01*
X143760586Y-106262779D01*
X143724465Y-106291986D01*
X143696669Y-106328824D01*
X143680122Y-106370167D01*
X143674702Y-106415328D01*
X143674444Y-106417478D01*
X143352630Y-106417478D01*
X143352630Y-106046033D01*
X143386237Y-106069773D01*
X143427514Y-106089997D01*
X143472846Y-106105286D01*
X143519301Y-106114274D01*
X143519301Y-105968901D01*
X143453656Y-105946403D01*
X143392539Y-105918734D01*
X143335126Y-105886265D01*
X143284877Y-105851665D01*
X143180487Y-105851665D01*
X143180487Y-106652000D01*
X142760250Y-106652000D01*
X142781192Y-106646289D01*
X142823338Y-106624776D01*
X142859469Y-106595092D01*
X142890265Y-106556362D01*
X142915821Y-106507030D01*
X142935640Y-106444970D01*
X142948685Y-106367589D01*
X142953439Y-106271909D01*
X142949769Y-106186910D01*
X142939521Y-106115054D01*
X142923670Y-106054564D01*
X142902939Y-106003848D01*
X142877773Y-105961525D01*
X142844806Y-105923138D01*
X142807172Y-105893747D01*
X142764276Y-105872551D01*
X142715114Y-105859396D01*
X142658345Y-105854791D01*
X142602100Y-105859519D01*
X142554249Y-105872933D01*
X142513224Y-105894451D01*
X142477885Y-105924279D01*
X142447619Y-105963395D01*
X142422394Y-106013461D01*
X142402764Y-106076710D01*
X142389813Y-106155839D01*
X142385086Y-106253933D01*
X142296197Y-106253933D01*
X142296197Y-105762776D01*
X144351909Y-105762776D01*
X144351909Y-106753394D01*
G37*
G36*
X143442510Y-86201916D02*
G01*
X143346865Y-86201916D01*
X143306988Y-86198361D01*
X143275630Y-86188586D01*
X143250975Y-86173339D01*
X143231822Y-86152188D01*
X143220290Y-86126644D01*
X143216244Y-86095328D01*
X143220215Y-86065464D01*
X143231546Y-86041180D01*
X143250438Y-86021127D01*
X143274631Y-86006843D01*
X143305785Y-85997596D01*
X143345790Y-85994212D01*
X143442510Y-85994212D01*
X143442510Y-86201916D01*
G37*
G36*
X143442510Y-85863053D02*
G01*
X143364890Y-85863053D01*
X143329381Y-85859785D01*
X143301229Y-85850756D01*
X143278868Y-85836577D01*
X143261590Y-85817020D01*
X143251107Y-85793153D01*
X143247409Y-85763646D01*
X143252135Y-85733781D01*
X143265493Y-85711135D01*
X143288249Y-85693873D01*
X143323559Y-85682006D01*
X143376370Y-85677380D01*
X143442510Y-85677380D01*
X143442510Y-85863053D01*
G37*
G36*
X143707889Y-86420889D02*
G01*
X142334445Y-86420889D01*
X142334445Y-85757296D01*
X142423334Y-85757296D01*
X142427699Y-85809490D01*
X142440040Y-85853528D01*
X142459501Y-85893836D01*
X142484297Y-85930073D01*
X142513843Y-85962918D01*
X142547947Y-85993235D01*
X142622831Y-86048727D01*
X142673390Y-86085705D01*
X142716279Y-86121804D01*
X142745783Y-86156535D01*
X142754179Y-86173651D01*
X142756725Y-86188824D01*
X142424457Y-86188824D01*
X142424457Y-86332000D01*
X142945769Y-86332000D01*
X142945769Y-86272990D01*
X142940529Y-86214945D01*
X142925546Y-86164986D01*
X142902539Y-86119252D01*
X142887462Y-86097478D01*
X143030424Y-86097478D01*
X143035515Y-86150016D01*
X143050099Y-86195164D01*
X143073872Y-86234411D01*
X143107507Y-86268741D01*
X143147331Y-86295250D01*
X143194663Y-86314966D01*
X143250932Y-86327523D01*
X143317898Y-86332000D01*
X143619000Y-86332000D01*
X143619000Y-85547296D01*
X143333725Y-85547296D01*
X143266705Y-85550870D01*
X143212062Y-85560715D01*
X143167768Y-85575771D01*
X143132078Y-85595363D01*
X143100966Y-85622158D01*
X143079328Y-85653049D01*
X143066175Y-85688828D01*
X143061589Y-85730869D01*
X143065461Y-85763646D01*
X143066385Y-85771473D01*
X143080523Y-85808073D01*
X143104478Y-85841755D01*
X143135376Y-85869970D01*
X143171618Y-85891955D01*
X143214046Y-85907847D01*
X143214046Y-85910046D01*
X143160517Y-85922063D01*
X143116566Y-85942779D01*
X143080445Y-85971986D01*
X143052649Y-86008824D01*
X143036102Y-86050167D01*
X143030682Y-86095328D01*
X143030424Y-86097478D01*
X142887462Y-86097478D01*
X142874744Y-86079110D01*
X142842514Y-86043106D01*
X142807821Y-86011846D01*
X142738651Y-85959090D01*
X142678323Y-85912097D01*
X142634604Y-85867547D01*
X142618822Y-85844806D01*
X142608079Y-85822704D01*
X142601550Y-85799404D01*
X142599335Y-85774295D01*
X142602850Y-85741930D01*
X142612499Y-85717178D01*
X142627765Y-85698238D01*
X142648270Y-85684743D01*
X142676418Y-85675831D01*
X142714618Y-85672495D01*
X142763179Y-85677274D01*
X142811102Y-85691772D01*
X142859183Y-85716753D01*
X142908058Y-85753632D01*
X142908058Y-85601176D01*
X142855576Y-85572249D01*
X142800061Y-85551604D01*
X142740919Y-85539064D01*
X142677444Y-85534791D01*
X142619757Y-85538865D01*
X142570612Y-85550374D01*
X142526314Y-85569660D01*
X142490550Y-85594923D01*
X142461735Y-85626874D01*
X142440577Y-85665168D01*
X142427782Y-85708109D01*
X142423334Y-85757296D01*
X142334445Y-85757296D01*
X142334445Y-85445902D01*
X143707889Y-85445902D01*
X143707889Y-86420889D01*
G37*
G36*
X143442510Y-93821916D02*
G01*
X143346865Y-93821916D01*
X143306988Y-93818361D01*
X143275630Y-93808586D01*
X143250975Y-93793339D01*
X143231822Y-93772188D01*
X143220290Y-93746644D01*
X143216244Y-93715328D01*
X143220215Y-93685464D01*
X143231546Y-93661180D01*
X143250438Y-93641127D01*
X143274631Y-93626843D01*
X143305785Y-93617596D01*
X143345790Y-93614212D01*
X143442510Y-93614212D01*
X143442510Y-93821916D01*
G37*
G36*
X143442510Y-93483053D02*
G01*
X143364890Y-93483053D01*
X143329381Y-93479785D01*
X143301229Y-93470756D01*
X143278868Y-93456577D01*
X143261590Y-93437020D01*
X143251107Y-93413153D01*
X143247409Y-93383646D01*
X143252135Y-93353781D01*
X143265493Y-93331135D01*
X143288249Y-93313873D01*
X143323559Y-93302006D01*
X143376370Y-93297380D01*
X143442510Y-93297380D01*
X143442510Y-93483053D01*
G37*
G36*
X143707889Y-94053394D02*
G01*
X142332247Y-94053394D01*
X142332247Y-93695349D01*
X142421136Y-93695349D01*
X142426472Y-93753275D01*
X142441857Y-93804045D01*
X142467017Y-93849055D01*
X142502566Y-93889278D01*
X142545210Y-93921185D01*
X142595212Y-93944564D01*
X142653989Y-93959290D01*
X142723362Y-93964505D01*
X142798320Y-93960336D01*
X142861083Y-93948708D01*
X142913529Y-93930653D01*
X142913529Y-93783179D01*
X142858343Y-93810644D01*
X142801634Y-93826853D01*
X142742510Y-93832272D01*
X142698042Y-93828223D01*
X142663116Y-93817088D01*
X142635679Y-93799690D01*
X142614450Y-93775666D01*
X142601636Y-93746691D01*
X142597930Y-93717478D01*
X143030424Y-93717478D01*
X143035515Y-93770016D01*
X143050099Y-93815164D01*
X143073872Y-93854411D01*
X143107507Y-93888741D01*
X143147331Y-93915250D01*
X143194663Y-93934966D01*
X143250932Y-93947523D01*
X143317898Y-93952000D01*
X143619000Y-93952000D01*
X143619000Y-93167296D01*
X143333725Y-93167296D01*
X143266705Y-93170870D01*
X143212062Y-93180715D01*
X143167768Y-93195771D01*
X143132078Y-93215363D01*
X143100966Y-93242158D01*
X143079328Y-93273049D01*
X143066175Y-93308828D01*
X143061589Y-93350869D01*
X143065461Y-93383646D01*
X143066385Y-93391473D01*
X143080523Y-93428073D01*
X143104478Y-93461755D01*
X143135376Y-93489970D01*
X143171618Y-93511955D01*
X143214046Y-93527847D01*
X143214046Y-93530046D01*
X143160517Y-93542063D01*
X143116566Y-93562779D01*
X143080445Y-93591986D01*
X143052649Y-93628824D01*
X143036102Y-93670167D01*
X143030682Y-93715328D01*
X143030424Y-93717478D01*
X142597930Y-93717478D01*
X142597137Y-93711225D01*
X142601507Y-93676282D01*
X142613747Y-93648839D01*
X142633765Y-93627071D01*
X142663044Y-93610242D01*
X142704391Y-93598849D01*
X142761610Y-93594526D01*
X142824443Y-93596684D01*
X142901513Y-93603807D01*
X142872008Y-93167296D01*
X142457235Y-93167296D01*
X142457235Y-93308273D01*
X142740312Y-93308273D01*
X142751254Y-93464442D01*
X142678568Y-93461169D01*
X142618262Y-93465620D01*
X142567713Y-93478123D01*
X142525224Y-93497853D01*
X142489475Y-93524623D01*
X142460000Y-93558477D01*
X142438851Y-93597474D01*
X142425738Y-93642627D01*
X142421136Y-93695349D01*
X142332247Y-93695349D01*
X142332247Y-93078407D01*
X143707889Y-93078407D01*
X143707889Y-94053394D01*
G37*
G36*
X142694828Y-80591867D02*
G01*
X142719473Y-80608078D01*
X142741175Y-80637630D01*
X142759564Y-80685704D01*
X142772817Y-80759450D01*
X142778023Y-80867561D01*
X142772990Y-80968752D01*
X142760153Y-81038027D01*
X142742276Y-81083425D01*
X142721055Y-81111534D01*
X142696777Y-81127081D01*
X142668163Y-81132272D01*
X142640690Y-81127096D01*
X142617174Y-81111466D01*
X142596406Y-81082882D01*
X142578770Y-81036251D01*
X142566042Y-80964576D01*
X142561038Y-80859355D01*
X142565974Y-80753828D01*
X142578516Y-80682074D01*
X142595864Y-80635515D01*
X142616233Y-80607080D01*
X142639210Y-80591598D01*
X142665965Y-80586487D01*
X142694828Y-80591867D01*
G37*
G36*
X143442510Y-81121916D02*
G01*
X143346865Y-81121916D01*
X143306988Y-81118361D01*
X143275630Y-81108586D01*
X143250975Y-81093339D01*
X143231822Y-81072188D01*
X143220290Y-81046644D01*
X143216244Y-81015328D01*
X143220215Y-80985464D01*
X143231546Y-80961180D01*
X143250438Y-80941127D01*
X143274631Y-80926843D01*
X143305785Y-80917596D01*
X143345790Y-80914212D01*
X143442510Y-80914212D01*
X143442510Y-81121916D01*
G37*
G36*
X143442510Y-80783053D02*
G01*
X143364890Y-80783053D01*
X143329381Y-80779785D01*
X143301229Y-80770756D01*
X143278868Y-80756577D01*
X143261590Y-80737020D01*
X143251107Y-80713153D01*
X143247409Y-80683646D01*
X143252135Y-80653781D01*
X143265493Y-80631135D01*
X143288249Y-80613873D01*
X143323559Y-80602006D01*
X143376370Y-80597380D01*
X143442510Y-80597380D01*
X143442510Y-80783053D01*
G37*
G36*
X143707889Y-81353394D02*
G01*
X142296197Y-81353394D01*
X142296197Y-80853933D01*
X142385086Y-80853933D01*
X142385321Y-80859355D01*
X142388681Y-80936718D01*
X142398741Y-81006999D01*
X142414340Y-81066444D01*
X142434791Y-81116547D01*
X142459677Y-81158601D01*
X142492223Y-81196841D01*
X142529150Y-81226022D01*
X142571008Y-81246995D01*
X142618745Y-81259973D01*
X142673634Y-81264505D01*
X142731831Y-81259750D01*
X142781192Y-81246289D01*
X142823337Y-81224776D01*
X142859469Y-81195092D01*
X142890265Y-81156362D01*
X142915820Y-81107030D01*
X142935640Y-81044970D01*
X142940274Y-81017478D01*
X143030424Y-81017478D01*
X143035515Y-81070016D01*
X143050099Y-81115164D01*
X143073872Y-81154411D01*
X143107507Y-81188741D01*
X143147331Y-81215250D01*
X143194663Y-81234966D01*
X143250932Y-81247523D01*
X143317898Y-81252000D01*
X143619000Y-81252000D01*
X143619000Y-80467296D01*
X143333725Y-80467296D01*
X143266705Y-80470870D01*
X143212062Y-80480715D01*
X143167768Y-80495771D01*
X143132078Y-80515363D01*
X143100966Y-80542158D01*
X143079328Y-80573049D01*
X143066175Y-80608828D01*
X143061589Y-80650869D01*
X143065461Y-80683646D01*
X143066385Y-80691473D01*
X143080523Y-80728073D01*
X143104478Y-80761755D01*
X143135376Y-80789970D01*
X143171618Y-80811955D01*
X143214046Y-80827847D01*
X143214046Y-80830046D01*
X143160517Y-80842063D01*
X143116566Y-80862779D01*
X143080445Y-80891986D01*
X143052649Y-80928824D01*
X143036102Y-80970167D01*
X143030682Y-81015328D01*
X143030424Y-81017478D01*
X142940274Y-81017478D01*
X142948684Y-80967589D01*
X142953439Y-80871909D01*
X142949769Y-80786910D01*
X142939521Y-80715054D01*
X142923669Y-80654564D01*
X142902938Y-80603848D01*
X142877772Y-80561525D01*
X142844805Y-80523138D01*
X142807172Y-80493747D01*
X142764276Y-80472551D01*
X142715113Y-80459396D01*
X142658344Y-80454791D01*
X142602100Y-80459519D01*
X142554248Y-80472933D01*
X142513224Y-80494451D01*
X142477885Y-80524279D01*
X142447618Y-80563395D01*
X142422394Y-80613461D01*
X142402764Y-80676710D01*
X142389813Y-80755839D01*
X142385086Y-80853933D01*
X142296197Y-80853933D01*
X142296197Y-80365902D01*
X143707889Y-80365902D01*
X143707889Y-81353394D01*
G37*
G36*
X143442510Y-88741916D02*
G01*
X143346865Y-88741916D01*
X143306988Y-88738361D01*
X143275630Y-88728586D01*
X143250975Y-88713339D01*
X143231822Y-88692188D01*
X143220290Y-88666644D01*
X143216244Y-88635328D01*
X143220215Y-88605464D01*
X143231546Y-88581180D01*
X143250438Y-88561127D01*
X143274631Y-88546843D01*
X143305785Y-88537596D01*
X143345790Y-88534212D01*
X143442510Y-88534212D01*
X143442510Y-88741916D01*
G37*
G36*
X143442510Y-88403053D02*
G01*
X143364890Y-88403053D01*
X143329381Y-88399785D01*
X143301229Y-88390756D01*
X143278868Y-88376577D01*
X143261590Y-88357020D01*
X143251107Y-88333153D01*
X143247409Y-88303646D01*
X143252135Y-88273781D01*
X143265493Y-88251135D01*
X143288249Y-88233873D01*
X143323559Y-88222006D01*
X143376370Y-88217380D01*
X143442510Y-88217380D01*
X143442510Y-88403053D01*
G37*
G36*
X143707889Y-88973394D02*
G01*
X142338841Y-88973394D01*
X142338841Y-88646808D01*
X142427730Y-88646808D01*
X142433018Y-88700128D01*
X142448178Y-88745922D01*
X142472939Y-88785735D01*
X142508086Y-88820562D01*
X142549445Y-88847205D01*
X142599081Y-88867153D01*
X142658588Y-88879931D01*
X142729908Y-88884505D01*
X142810185Y-88879539D01*
X142875040Y-88865881D01*
X142927207Y-88844937D01*
X142927207Y-88693800D01*
X142886494Y-88719240D01*
X142842737Y-88737403D01*
X142795345Y-88748477D01*
X142743585Y-88752272D01*
X142700303Y-88748687D01*
X142666645Y-88738908D01*
X142640564Y-88723842D01*
X142620196Y-88702580D01*
X142607974Y-88676665D01*
X142603683Y-88644609D01*
X142604809Y-88637478D01*
X143030424Y-88637478D01*
X143035515Y-88690016D01*
X143050099Y-88735164D01*
X143073872Y-88774411D01*
X143107507Y-88808741D01*
X143147331Y-88835250D01*
X143194663Y-88854966D01*
X143250932Y-88867523D01*
X143317898Y-88872000D01*
X143619000Y-88872000D01*
X143619000Y-88087296D01*
X143333725Y-88087296D01*
X143266705Y-88090870D01*
X143212062Y-88100715D01*
X143167768Y-88115771D01*
X143132078Y-88135363D01*
X143100966Y-88162158D01*
X143079328Y-88193049D01*
X143066175Y-88228828D01*
X143061589Y-88270869D01*
X143065461Y-88303646D01*
X143066385Y-88311473D01*
X143080523Y-88348073D01*
X143104478Y-88381755D01*
X143135376Y-88409970D01*
X143171618Y-88431955D01*
X143214046Y-88447847D01*
X143214046Y-88450046D01*
X143160517Y-88462063D01*
X143116566Y-88482779D01*
X143080445Y-88511986D01*
X143052649Y-88548824D01*
X143036102Y-88590167D01*
X143030682Y-88635328D01*
X143030424Y-88637478D01*
X142604809Y-88637478D01*
X142608809Y-88612140D01*
X142623670Y-88585689D01*
X142649307Y-88563716D01*
X142681033Y-88548769D01*
X142722067Y-88538917D01*
X142774751Y-88535286D01*
X142847437Y-88535286D01*
X142847437Y-88403053D01*
X142780222Y-88403053D01*
X142726256Y-88399187D01*
X142687557Y-88389048D01*
X142660447Y-88374203D01*
X142642150Y-88355228D01*
X142631096Y-88331598D01*
X142627179Y-88301790D01*
X142631932Y-88267308D01*
X142645008Y-88241999D01*
X142666383Y-88223485D01*
X142698273Y-88211187D01*
X142744660Y-88206487D01*
X142795709Y-88211803D01*
X142846417Y-88228008D01*
X142897702Y-88256117D01*
X142897702Y-88116068D01*
X142841313Y-88093637D01*
X142777627Y-88079667D01*
X142705337Y-88074791D01*
X142644684Y-88078677D01*
X142594375Y-88089505D01*
X142552685Y-88106361D01*
X142518198Y-88128817D01*
X142488589Y-88158201D01*
X142467977Y-88190826D01*
X142455522Y-88227383D01*
X142451226Y-88268964D01*
X142455851Y-88318393D01*
X142468851Y-88359134D01*
X142489625Y-88392952D01*
X142518557Y-88421021D01*
X142556962Y-88443804D01*
X142606956Y-88460988D01*
X142606956Y-88463723D01*
X142553758Y-88475611D01*
X142510682Y-88495840D01*
X142475846Y-88524100D01*
X142449167Y-88559872D01*
X142433220Y-88600289D01*
X142427730Y-88646808D01*
X142338841Y-88646808D01*
X142338841Y-87985902D01*
X143707889Y-87985902D01*
X143707889Y-88973394D01*
G37*
M02*
