%TF.GenerationSoftware,KiCad,Pcbnew,9.0.0*%
%TF.CreationDate,2025-04-02T16:35:10+02:00*%
%TF.ProjectId,stm32f103-core-board,73746d33-3266-4313-9033-2d636f72652d,1*%
%TF.SameCoordinates,Original*%
%TF.FileFunction,Copper,L3,Inr*%
%TF.FilePolarity,Positive*%
%FSLAX46Y46*%
G04 Gerber Fmt 4.6, Leading zero omitted, Abs format (unit mm)*
G04 Created by KiCad (PCBNEW 9.0.0) date 2025-04-02 16:35:10*
%MOMM*%
%LPD*%
G01*
G04 APERTURE LIST*
G04 Aperture macros list*
%AMFreePoly0*
4,1,23,0.000000,0.845907,0.083315,0.845907,0.246742,0.813399,0.400687,0.749633,0.539234,0.657059,0.657059,0.539234,0.749633,0.400687,0.813399,0.246742,0.845907,0.083315,0.845907,-0.083315,0.813399,-0.246742,0.749633,-0.400687,0.657059,-0.539234,0.539234,-0.657059,0.400687,-0.749633,0.246742,-0.813399,0.083315,-0.845907,0.000000,-0.845907,0.000000,-0.850000,-2.540000,-0.850000,
-2.540000,0.850000,0.000000,0.850000,0.000000,0.845907,0.000000,0.845907,$1*%
G04 Aperture macros list end*
%TA.AperFunction,ComponentPad*%
%ADD10O,1.700000X1.700000*%
%TD*%
%TA.AperFunction,ComponentPad*%
%ADD11R,1.700000X1.700000*%
%TD*%
%TA.AperFunction,ComponentPad*%
%ADD12FreePoly0,0.000000*%
%TD*%
%TA.AperFunction,ComponentPad*%
%ADD13C,1.700000*%
%TD*%
%TA.AperFunction,ComponentPad*%
%ADD14O,1.000000X1.800000*%
%TD*%
%TA.AperFunction,ComponentPad*%
%ADD15O,1.000000X2.100000*%
%TD*%
%TA.AperFunction,ComponentPad*%
%ADD16FreePoly0,90.000000*%
%TD*%
%TA.AperFunction,ViaPad*%
%ADD17C,0.400000*%
%TD*%
G04 APERTURE END LIST*
D10*
%TO.N,GND*%
%TO.C,J1*%
X144600000Y-90800000D03*
%TO.N,Net-(J1-Pin_2)*%
X144600000Y-88260001D03*
D11*
%TO.N,/+3V3*%
X144600000Y-85720001D03*
%TD*%
D12*
%TO.N,GND*%
%TO.C,J5*%
X161430000Y-124130000D03*
D13*
X158890000Y-124130000D03*
D12*
%TO.N,/VBAT*%
X161430000Y-121590000D03*
D13*
X158890000Y-121590000D03*
D12*
%TO.N,/PC13*%
X161430000Y-119050000D03*
D13*
X158890000Y-119050000D03*
D12*
%TO.N,/~{NRST}*%
X161430000Y-116510001D03*
D13*
X158890000Y-116510000D03*
D12*
%TO.N,/PA0*%
X161430000Y-113969999D03*
D13*
X158890000Y-113970000D03*
D12*
%TO.N,/PA1*%
X161430000Y-111430000D03*
D13*
X158890000Y-111430000D03*
D12*
%TO.N,/PA2*%
X161430000Y-108890000D03*
D13*
X158890000Y-108890000D03*
D12*
%TO.N,/PA3*%
X161430000Y-106350000D03*
D13*
X158890000Y-106350000D03*
D12*
%TO.N,/PA4*%
X161430000Y-103809999D03*
D13*
X158890000Y-103810000D03*
D12*
%TO.N,/PA5*%
X161430000Y-101270000D03*
D13*
X158890000Y-101270000D03*
D12*
%TO.N,/PA6*%
X161430000Y-98730000D03*
D13*
X158890000Y-98730000D03*
D12*
%TO.N,/PA7*%
X161430000Y-96190000D03*
D13*
X158890000Y-96190000D03*
D12*
%TO.N,/PA8*%
X161430000Y-93650001D03*
D13*
X158890000Y-93650000D03*
D12*
%TO.N,/USART1.TX*%
X161430000Y-91110000D03*
D13*
X158890000Y-91110000D03*
D12*
%TO.N,/USART1.RX*%
X161430000Y-88570000D03*
D13*
X158890000Y-88570000D03*
D12*
%TO.N,/PA11*%
X161430000Y-86030000D03*
D13*
X158890000Y-86030000D03*
D12*
%TO.N,/PA12*%
X161430000Y-83490000D03*
D13*
X158890000Y-83490000D03*
D12*
%TO.N,/PA13*%
X161430000Y-80949999D03*
D13*
X158890000Y-80950000D03*
D12*
%TO.N,/PA14*%
X161430000Y-78410000D03*
D13*
X158890000Y-78410000D03*
D12*
%TO.N,/PA15*%
X161430000Y-75870000D03*
D13*
X158890000Y-75870000D03*
%TD*%
D10*
%TO.N,GND*%
%TO.C,J2*%
X148200000Y-90800000D03*
%TO.N,Net-(J2-Pin_2)*%
X148200000Y-88260001D03*
D11*
%TO.N,/+3V3*%
X148200000Y-85720001D03*
%TD*%
D12*
%TO.N,GND*%
%TO.C,J4*%
X141110000Y-124130000D03*
D13*
X138570000Y-124130000D03*
D12*
%TO.N,/+3V3*%
X141110000Y-121590000D03*
D13*
X138570000Y-121590000D03*
D12*
%TO.N,/PB15*%
X141110000Y-119050000D03*
D13*
X138570000Y-119050000D03*
D12*
%TO.N,/PB14*%
X141110000Y-116510001D03*
D13*
X138570000Y-116510000D03*
D12*
%TO.N,/PB13*%
X141110000Y-113969999D03*
D13*
X138570000Y-113970000D03*
D12*
%TO.N,/PB12*%
X141110000Y-111430000D03*
D13*
X138570000Y-111430000D03*
D12*
%TO.N,/PB11*%
X141110000Y-108890000D03*
D13*
X138570000Y-108890000D03*
D12*
%TO.N,/PB10*%
X141110000Y-106350000D03*
D13*
X138570000Y-106350000D03*
D12*
%TO.N,/PB9*%
X141110000Y-103809999D03*
D13*
X138570000Y-103810000D03*
D12*
%TO.N,/PB8*%
X141110000Y-101270000D03*
D13*
X138570000Y-101270000D03*
D12*
%TO.N,/PB7*%
X141110000Y-98730000D03*
D13*
X138570000Y-98730000D03*
D12*
%TO.N,/PB6*%
X141110000Y-96190000D03*
D13*
X138570000Y-96190000D03*
D12*
%TO.N,/PB5*%
X141110000Y-93650001D03*
D13*
X138570000Y-93650000D03*
D12*
%TO.N,/PB4*%
X141110000Y-91110000D03*
D13*
X138570000Y-91110000D03*
D12*
%TO.N,/PB3*%
X141110000Y-88570000D03*
D13*
X138570000Y-88570000D03*
D12*
%TO.N,/PB2*%
X141110000Y-86030000D03*
D13*
X138570000Y-86030000D03*
D12*
%TO.N,/PB1*%
X141110000Y-83490000D03*
D13*
X138570000Y-83490000D03*
D12*
%TO.N,/PB0*%
X141110000Y-80949999D03*
D13*
X138570000Y-80950000D03*
D12*
%TO.N,/+5V*%
X141110000Y-78410000D03*
D13*
X138570000Y-78410000D03*
D12*
%TO.N,GND*%
X141110000Y-75870000D03*
D13*
X138570000Y-75870000D03*
%TD*%
D14*
%TO.N,GND*%
%TO.C,CN1*%
X154320000Y-72975000D03*
X145680000Y-72975000D03*
D15*
X145680000Y-77155000D03*
X154320000Y-77155000D03*
%TD*%
D16*
%TO.N,GND*%
%TO.C,J3*%
X156350000Y-126670000D03*
D13*
X156350000Y-129210000D03*
D16*
%TO.N,/USART1.TX*%
X153810000Y-126670000D03*
D13*
X153810000Y-129210000D03*
D16*
%TO.N,/USART1.RX*%
X151270000Y-126670000D03*
D13*
X151270000Y-129210000D03*
D16*
%TO.N,/PA13*%
X148729999Y-126670000D03*
D13*
X148730000Y-129210000D03*
D16*
%TO.N,/PA14*%
X146190000Y-126670000D03*
D13*
X146190000Y-129210000D03*
D16*
%TO.N,/+3V3*%
X143650000Y-126670000D03*
D13*
X143650000Y-129210000D03*
%TD*%
D17*
%TO.N,GND*%
X153350000Y-100750000D03*
X154550000Y-79500000D03*
X155500000Y-79050000D03*
%TO.N,/+3V3*%
X154500000Y-85300000D03*
X155550000Y-108150000D03*
X143600000Y-77550000D03*
X147250000Y-96200000D03*
X151250000Y-109900000D03*
X156750000Y-100250000D03*
X143000000Y-107450000D03*
X145800000Y-94750000D03*
X147550000Y-99900000D03*
X149850000Y-80500000D03*
X153250000Y-100250000D03*
X156600000Y-80150000D03*
X143100000Y-105750000D03*
X154500000Y-84737500D03*
X151250000Y-105650000D03*
X154500000Y-85900000D03*
%TO.N,GND*%
X151000000Y-86150000D03*
X154125000Y-109850000D03*
X157150000Y-82750000D03*
X146350000Y-109250000D03*
X156600000Y-77900000D03*
X143000000Y-106700000D03*
X147500000Y-80500000D03*
X153950000Y-81750000D03*
X150600000Y-119200000D03*
X154125000Y-118000000D03*
X143600000Y-71600000D03*
X150600000Y-120900000D03*
X152400000Y-114900000D03*
X157100000Y-84500000D03*
X150750000Y-106200000D03*
X148950000Y-113200000D03*
X147750000Y-97800000D03*
X156800000Y-99250000D03*
X154125000Y-114000000D03*
X151900000Y-80500000D03*
X145675000Y-115900000D03*
X146300000Y-96200000D03*
X148950000Y-120900000D03*
X152300000Y-114125000D03*
X152200000Y-109900000D03*
X146400000Y-119000000D03*
%TO.N,/PA12*%
X148750000Y-96250000D03*
X148750000Y-81750000D03*
%TO.N,/PA11*%
X149800000Y-86800000D03*
X149250000Y-96900000D03*
%TO.N,/PB2*%
X152150000Y-89350000D03*
X155200000Y-96450000D03*
%TO.N,/PA1*%
X153150000Y-109850000D03*
%TO.N,/USART1.TX*%
X155400000Y-110700000D03*
%TO.N,/VBAT*%
X147250000Y-113200000D03*
%TO.N,/PC13*%
X147750000Y-110600000D03*
%TO.N,/PA0*%
X151750000Y-108400000D03*
%TO.N,/USART1.RX*%
X154600000Y-107400000D03*
X151200000Y-100100000D03*
X154400000Y-110900000D03*
X153100000Y-103300000D03*
%TO.N,/PB12*%
X151100000Y-101750000D03*
X144200000Y-110000000D03*
%TO.N,/BOOT0*%
X146800000Y-99600000D03*
X146800000Y-101300000D03*
%TO.N,/PB9*%
X142500000Y-112600000D03*
X142500000Y-109250000D03*
%TO.N,/PB13*%
X150350000Y-101750000D03*
%TO.N,/PB10*%
X148200000Y-106200000D03*
X152600000Y-101800000D03*
%TO.N,/PB1*%
X146400000Y-98500000D03*
X155700000Y-101100000D03*
%TO.N,/PB0*%
X156100000Y-101600000D03*
X153200000Y-87400000D03*
%TO.N,/PB14*%
X153900000Y-99400000D03*
%TO.N,/PB15*%
X154700000Y-99300000D03*
%TO.N,/PB11*%
X152200000Y-101250000D03*
X146300000Y-107150000D03*
%TO.N,/PA15*%
X144900000Y-100750000D03*
%TO.N,/PA14*%
X145750000Y-99700000D03*
X143000000Y-112000000D03*
%TO.N,/PA13*%
X144850000Y-112800000D03*
X148250000Y-100800000D03*
X149800000Y-105700000D03*
X148250000Y-102950000D03*
X148250000Y-96550000D03*
%TD*%
%TA.AperFunction,Conductor*%
%TO.N,/+3V3*%
G36*
X143202950Y-71309407D02*
G01*
X143238914Y-71358907D01*
X143238914Y-71420093D01*
X143230496Y-71438999D01*
X143226793Y-71445411D01*
X143209569Y-71509695D01*
X143199500Y-71547273D01*
X143199500Y-71652727D01*
X143226793Y-71754587D01*
X143226794Y-71754589D01*
X143226794Y-71754590D01*
X143279518Y-71845910D01*
X143279520Y-71845913D01*
X143354087Y-71920480D01*
X143445413Y-71973207D01*
X143547273Y-72000500D01*
X143547275Y-72000500D01*
X143652725Y-72000500D01*
X143652727Y-72000500D01*
X143754587Y-71973207D01*
X143845913Y-71920480D01*
X143920480Y-71845913D01*
X143973207Y-71754587D01*
X144000500Y-71652727D01*
X144000500Y-71547273D01*
X143973207Y-71445413D01*
X143969504Y-71438999D01*
X143956783Y-71379150D01*
X143981671Y-71323255D01*
X144034659Y-71292663D01*
X144055241Y-71290500D01*
X160094108Y-71290500D01*
X160155139Y-71290500D01*
X160164842Y-71290976D01*
X160300418Y-71304330D01*
X160319451Y-71308116D01*
X160445148Y-71346245D01*
X160463071Y-71353670D01*
X160578915Y-71415589D01*
X160595043Y-71426365D01*
X160618253Y-71445413D01*
X160696581Y-71509695D01*
X160710304Y-71523418D01*
X160793631Y-71624952D01*
X160804411Y-71641087D01*
X160826650Y-71682692D01*
X160866328Y-71756925D01*
X160873755Y-71774855D01*
X160911883Y-71900548D01*
X160915669Y-71919582D01*
X160929023Y-72055157D01*
X160929500Y-72064861D01*
X160929500Y-74715500D01*
X160910593Y-74773691D01*
X160861093Y-74809655D01*
X160830500Y-74814500D01*
X158890000Y-74814500D01*
X158854950Y-74818449D01*
X158851142Y-74818878D01*
X158840058Y-74819500D01*
X158786532Y-74819500D01*
X158583581Y-74859869D01*
X158392402Y-74939058D01*
X158220348Y-75054020D01*
X158074020Y-75200348D01*
X157959058Y-75372402D01*
X157879869Y-75563581D01*
X157839500Y-75766532D01*
X157839500Y-75973467D01*
X157879869Y-76176418D01*
X157959058Y-76367597D01*
X158071586Y-76536008D01*
X158074023Y-76539655D01*
X158220345Y-76685977D01*
X158392402Y-76800941D01*
X158583580Y-76880130D01*
X158786535Y-76920500D01*
X158856938Y-76920500D01*
X158878967Y-76922982D01*
X158889995Y-76925499D01*
X158889996Y-76925499D01*
X158890000Y-76925500D01*
X160830500Y-76925500D01*
X160888691Y-76944407D01*
X160924655Y-76993907D01*
X160929500Y-77024500D01*
X160929500Y-77255500D01*
X160910593Y-77313691D01*
X160861093Y-77349655D01*
X160830500Y-77354500D01*
X158890000Y-77354500D01*
X158854950Y-77358449D01*
X158851142Y-77358878D01*
X158840058Y-77359500D01*
X158786532Y-77359500D01*
X158583581Y-77399869D01*
X158392402Y-77479058D01*
X158220348Y-77594020D01*
X158074020Y-77740348D01*
X157959058Y-77912402D01*
X157879869Y-78103581D01*
X157839500Y-78306532D01*
X157839500Y-78513467D01*
X157879869Y-78716418D01*
X157959058Y-78907597D01*
X158064915Y-79066024D01*
X158074023Y-79079655D01*
X158220345Y-79225977D01*
X158392402Y-79340941D01*
X158583580Y-79420130D01*
X158786535Y-79460500D01*
X158856938Y-79460500D01*
X158878967Y-79462982D01*
X158889995Y-79465499D01*
X158889996Y-79465499D01*
X158890000Y-79465500D01*
X160830500Y-79465500D01*
X160888691Y-79484407D01*
X160924655Y-79533907D01*
X160929500Y-79564500D01*
X160929500Y-79795499D01*
X160910593Y-79853690D01*
X160861093Y-79889654D01*
X160830500Y-79894499D01*
X158890000Y-79894499D01*
X158854950Y-79898448D01*
X158851133Y-79898878D01*
X158840049Y-79899500D01*
X158786532Y-79899500D01*
X158583581Y-79939869D01*
X158392402Y-80019058D01*
X158220348Y-80134020D01*
X158074020Y-80280348D01*
X157959058Y-80452402D01*
X157879869Y-80643581D01*
X157839500Y-80846532D01*
X157839500Y-81053467D01*
X157879869Y-81256418D01*
X157959058Y-81447597D01*
X158057822Y-81595409D01*
X158074023Y-81619655D01*
X158220345Y-81765977D01*
X158392402Y-81880941D01*
X158583580Y-81960130D01*
X158786535Y-82000500D01*
X158856943Y-82000500D01*
X158878972Y-82002982D01*
X158890000Y-82005499D01*
X160830500Y-82005499D01*
X160888691Y-82024406D01*
X160924655Y-82073906D01*
X160929500Y-82104499D01*
X160929500Y-82335500D01*
X160910593Y-82393691D01*
X160861093Y-82429655D01*
X160830500Y-82434500D01*
X158890000Y-82434500D01*
X158854950Y-82438449D01*
X158851142Y-82438878D01*
X158840058Y-82439500D01*
X158786532Y-82439500D01*
X158583581Y-82479869D01*
X158392402Y-82559058D01*
X158220348Y-82674020D01*
X158074020Y-82820348D01*
X157959058Y-82992402D01*
X157879869Y-83183581D01*
X157839500Y-83386532D01*
X157839500Y-83593467D01*
X157879869Y-83796418D01*
X157959058Y-83987597D01*
X158064915Y-84146024D01*
X158074023Y-84159655D01*
X158220345Y-84305977D01*
X158392402Y-84420941D01*
X158583580Y-84500130D01*
X158786535Y-84540500D01*
X158856938Y-84540500D01*
X158878967Y-84542982D01*
X158889995Y-84545499D01*
X158889996Y-84545499D01*
X158890000Y-84545500D01*
X160830500Y-84545500D01*
X160888691Y-84564407D01*
X160924655Y-84613907D01*
X160929500Y-84644500D01*
X160929500Y-84875500D01*
X160910593Y-84933691D01*
X160861093Y-84969655D01*
X160830500Y-84974500D01*
X158890000Y-84974500D01*
X158854950Y-84978449D01*
X158851142Y-84978878D01*
X158840058Y-84979500D01*
X158786532Y-84979500D01*
X158583581Y-85019869D01*
X158392402Y-85099058D01*
X158220348Y-85214020D01*
X158074020Y-85360348D01*
X157959058Y-85532402D01*
X157879869Y-85723581D01*
X157839500Y-85926532D01*
X157839500Y-86133467D01*
X157879869Y-86336418D01*
X157959058Y-86527597D01*
X158064915Y-86686024D01*
X158074023Y-86699655D01*
X158220345Y-86845977D01*
X158392402Y-86960941D01*
X158583580Y-87040130D01*
X158786535Y-87080500D01*
X158856938Y-87080500D01*
X158878967Y-87082982D01*
X158889995Y-87085499D01*
X158889996Y-87085499D01*
X158890000Y-87085500D01*
X160830500Y-87085500D01*
X160888691Y-87104407D01*
X160924655Y-87153907D01*
X160929500Y-87184500D01*
X160929500Y-87415500D01*
X160910593Y-87473691D01*
X160861093Y-87509655D01*
X160830500Y-87514500D01*
X158890000Y-87514500D01*
X158854950Y-87518449D01*
X158851142Y-87518878D01*
X158840058Y-87519500D01*
X158786532Y-87519500D01*
X158583581Y-87559869D01*
X158392402Y-87639058D01*
X158220348Y-87754020D01*
X158074020Y-87900348D01*
X157959058Y-88072402D01*
X157879869Y-88263581D01*
X157839500Y-88466532D01*
X157839500Y-88673467D01*
X157879869Y-88876418D01*
X157959058Y-89067597D01*
X158064915Y-89226024D01*
X158074023Y-89239655D01*
X158220345Y-89385977D01*
X158392402Y-89500941D01*
X158583580Y-89580130D01*
X158786535Y-89620500D01*
X158856938Y-89620500D01*
X158878967Y-89622982D01*
X158889995Y-89625499D01*
X158889996Y-89625499D01*
X158890000Y-89625500D01*
X160830500Y-89625500D01*
X160888691Y-89644407D01*
X160924655Y-89693907D01*
X160929500Y-89724500D01*
X160929500Y-89955500D01*
X160910593Y-90013691D01*
X160861093Y-90049655D01*
X160830500Y-90054500D01*
X158890000Y-90054500D01*
X158854950Y-90058449D01*
X158851142Y-90058878D01*
X158840058Y-90059500D01*
X158786532Y-90059500D01*
X158583581Y-90099869D01*
X158392402Y-90179058D01*
X158220348Y-90294020D01*
X158074020Y-90440348D01*
X157959058Y-90612402D01*
X157879869Y-90803581D01*
X157839500Y-91006532D01*
X157839500Y-91213467D01*
X157879869Y-91416418D01*
X157959058Y-91607597D01*
X158064915Y-91766024D01*
X158074023Y-91779655D01*
X158220345Y-91925977D01*
X158392402Y-92040941D01*
X158583580Y-92120130D01*
X158786535Y-92160500D01*
X158856938Y-92160500D01*
X158878967Y-92162982D01*
X158889995Y-92165499D01*
X158889996Y-92165499D01*
X158890000Y-92165500D01*
X160830500Y-92165500D01*
X160888691Y-92184407D01*
X160924655Y-92233907D01*
X160929500Y-92264500D01*
X160929500Y-92495501D01*
X160910593Y-92553692D01*
X160861093Y-92589656D01*
X160830500Y-92594501D01*
X158889998Y-92594501D01*
X158851151Y-92598878D01*
X158840067Y-92599500D01*
X158786532Y-92599500D01*
X158583581Y-92639869D01*
X158392402Y-92719058D01*
X158220348Y-92834020D01*
X158074020Y-92980348D01*
X157959058Y-93152402D01*
X157879869Y-93343581D01*
X157839500Y-93546532D01*
X157839500Y-93753467D01*
X157879869Y-93956418D01*
X157959058Y-94147597D01*
X158074020Y-94319651D01*
X158074023Y-94319655D01*
X158220345Y-94465977D01*
X158392402Y-94580941D01*
X158583580Y-94660130D01*
X158786535Y-94700500D01*
X158856935Y-94700500D01*
X158878961Y-94702981D01*
X158890000Y-94705501D01*
X160830500Y-94705501D01*
X160888691Y-94724408D01*
X160924655Y-94773908D01*
X160929500Y-94804501D01*
X160929500Y-95035500D01*
X160910593Y-95093691D01*
X160861093Y-95129655D01*
X160830500Y-95134500D01*
X158890000Y-95134500D01*
X158854950Y-95138449D01*
X158851142Y-95138878D01*
X158840058Y-95139500D01*
X158786532Y-95139500D01*
X158583581Y-95179869D01*
X158392402Y-95259058D01*
X158220348Y-95374020D01*
X158074020Y-95520348D01*
X157959058Y-95692402D01*
X157879869Y-95883581D01*
X157839500Y-96086532D01*
X157839500Y-96293467D01*
X157879869Y-96496418D01*
X157959058Y-96687597D01*
X158065750Y-96847274D01*
X158074023Y-96859655D01*
X158220345Y-97005977D01*
X158392402Y-97120941D01*
X158583580Y-97200130D01*
X158786535Y-97240500D01*
X158856938Y-97240500D01*
X158878967Y-97242982D01*
X158889995Y-97245499D01*
X158889996Y-97245499D01*
X158890000Y-97245500D01*
X160830500Y-97245500D01*
X160888691Y-97264407D01*
X160924655Y-97313907D01*
X160929500Y-97344500D01*
X160929500Y-97575500D01*
X160910593Y-97633691D01*
X160861093Y-97669655D01*
X160830500Y-97674500D01*
X158890000Y-97674500D01*
X158854950Y-97678449D01*
X158851142Y-97678878D01*
X158840058Y-97679500D01*
X158786532Y-97679500D01*
X158583581Y-97719869D01*
X158392402Y-97799058D01*
X158220348Y-97914020D01*
X158074020Y-98060348D01*
X157959058Y-98232402D01*
X157879869Y-98423581D01*
X157839500Y-98626532D01*
X157839500Y-98833467D01*
X157879869Y-99036418D01*
X157959058Y-99227597D01*
X158074020Y-99399651D01*
X158074023Y-99399655D01*
X158220345Y-99545977D01*
X158392402Y-99660941D01*
X158583580Y-99740130D01*
X158786535Y-99780500D01*
X158856938Y-99780500D01*
X158878967Y-99782982D01*
X158889995Y-99785499D01*
X158889996Y-99785499D01*
X158890000Y-99785500D01*
X160830500Y-99785500D01*
X160888691Y-99804407D01*
X160924655Y-99853907D01*
X160929500Y-99884500D01*
X160929500Y-100115500D01*
X160910593Y-100173691D01*
X160861093Y-100209655D01*
X160830500Y-100214500D01*
X158890000Y-100214500D01*
X158854950Y-100218449D01*
X158851142Y-100218878D01*
X158840058Y-100219500D01*
X158786532Y-100219500D01*
X158583581Y-100259869D01*
X158392402Y-100339058D01*
X158220348Y-100454020D01*
X158074020Y-100600348D01*
X157959058Y-100772402D01*
X157879869Y-100963581D01*
X157839500Y-101166532D01*
X157839500Y-101373467D01*
X157879869Y-101576418D01*
X157959058Y-101767597D01*
X158064915Y-101926024D01*
X158074023Y-101939655D01*
X158220345Y-102085977D01*
X158392402Y-102200941D01*
X158583580Y-102280130D01*
X158786535Y-102320500D01*
X158856938Y-102320500D01*
X158878967Y-102322982D01*
X158889995Y-102325499D01*
X158889996Y-102325499D01*
X158890000Y-102325500D01*
X160830500Y-102325500D01*
X160888691Y-102344407D01*
X160924655Y-102393907D01*
X160929500Y-102424500D01*
X160929500Y-102655499D01*
X160910593Y-102713690D01*
X160861093Y-102749654D01*
X160830500Y-102754499D01*
X158890000Y-102754499D01*
X158854950Y-102758448D01*
X158851133Y-102758878D01*
X158840049Y-102759500D01*
X158786532Y-102759500D01*
X158583581Y-102799869D01*
X158392402Y-102879058D01*
X158220348Y-102994020D01*
X158074020Y-103140348D01*
X157959058Y-103312402D01*
X157879869Y-103503581D01*
X157839500Y-103706532D01*
X157839500Y-103913467D01*
X157879869Y-104116418D01*
X157959058Y-104307597D01*
X158064907Y-104466012D01*
X158074023Y-104479655D01*
X158220345Y-104625977D01*
X158392402Y-104740941D01*
X158583580Y-104820130D01*
X158786535Y-104860500D01*
X158856943Y-104860500D01*
X158878972Y-104862982D01*
X158890000Y-104865499D01*
X160830500Y-104865499D01*
X160888691Y-104884406D01*
X160924655Y-104933906D01*
X160929500Y-104964499D01*
X160929500Y-105195500D01*
X160910593Y-105253691D01*
X160861093Y-105289655D01*
X160830500Y-105294500D01*
X158890000Y-105294500D01*
X158854950Y-105298449D01*
X158851142Y-105298878D01*
X158840058Y-105299500D01*
X158786532Y-105299500D01*
X158583581Y-105339869D01*
X158392402Y-105419058D01*
X158220348Y-105534020D01*
X158074020Y-105680348D01*
X157959058Y-105852402D01*
X157879869Y-106043581D01*
X157839500Y-106246532D01*
X157839500Y-106453467D01*
X157879869Y-106656418D01*
X157959058Y-106847597D01*
X158064915Y-107006024D01*
X158074023Y-107019655D01*
X158220345Y-107165977D01*
X158392402Y-107280941D01*
X158583580Y-107360130D01*
X158786535Y-107400500D01*
X158856938Y-107400500D01*
X158878967Y-107402982D01*
X158889995Y-107405499D01*
X158889996Y-107405499D01*
X158890000Y-107405500D01*
X160830500Y-107405500D01*
X160888691Y-107424407D01*
X160924655Y-107473907D01*
X160929500Y-107504500D01*
X160929500Y-107735500D01*
X160910593Y-107793691D01*
X160861093Y-107829655D01*
X160830500Y-107834500D01*
X158890000Y-107834500D01*
X158854950Y-107838449D01*
X158851142Y-107838878D01*
X158840058Y-107839500D01*
X158786532Y-107839500D01*
X158583581Y-107879869D01*
X158392402Y-107959058D01*
X158220348Y-108074020D01*
X158074020Y-108220348D01*
X157959058Y-108392402D01*
X157879869Y-108583581D01*
X157839500Y-108786532D01*
X157839500Y-108993467D01*
X157879869Y-109196418D01*
X157959058Y-109387597D01*
X158064913Y-109546021D01*
X158074023Y-109559655D01*
X158220345Y-109705977D01*
X158392402Y-109820941D01*
X158583580Y-109900130D01*
X158786535Y-109940500D01*
X158856938Y-109940500D01*
X158878967Y-109942982D01*
X158889995Y-109945499D01*
X158889996Y-109945499D01*
X158890000Y-109945500D01*
X160830500Y-109945500D01*
X160888691Y-109964407D01*
X160924655Y-110013907D01*
X160929500Y-110044500D01*
X160929500Y-110275500D01*
X160910593Y-110333691D01*
X160861093Y-110369655D01*
X160830500Y-110374500D01*
X158890000Y-110374500D01*
X158854950Y-110378449D01*
X158851142Y-110378878D01*
X158840058Y-110379500D01*
X158786532Y-110379500D01*
X158583581Y-110419869D01*
X158392402Y-110499058D01*
X158220348Y-110614020D01*
X158074020Y-110760348D01*
X157959058Y-110932402D01*
X157879869Y-111123581D01*
X157839500Y-111326532D01*
X157839500Y-111533467D01*
X157879869Y-111736418D01*
X157959058Y-111927597D01*
X158064915Y-112086024D01*
X158074023Y-112099655D01*
X158220345Y-112245977D01*
X158392402Y-112360941D01*
X158583580Y-112440130D01*
X158786535Y-112480500D01*
X158856938Y-112480500D01*
X158878967Y-112482982D01*
X158889995Y-112485499D01*
X158889996Y-112485499D01*
X158890000Y-112485500D01*
X160830500Y-112485500D01*
X160888691Y-112504407D01*
X160924655Y-112553907D01*
X160929500Y-112584500D01*
X160929500Y-112815499D01*
X160910593Y-112873690D01*
X160861093Y-112909654D01*
X160830500Y-112914499D01*
X158890000Y-112914499D01*
X158854950Y-112918448D01*
X158851133Y-112918878D01*
X158840049Y-112919500D01*
X158786532Y-112919500D01*
X158583581Y-112959869D01*
X158392402Y-113039058D01*
X158220348Y-113154020D01*
X158074020Y-113300348D01*
X157959058Y-113472402D01*
X157879869Y-113663581D01*
X157839500Y-113866532D01*
X157839500Y-114073467D01*
X157879869Y-114276418D01*
X157959058Y-114467597D01*
X158033842Y-114579520D01*
X158074023Y-114639655D01*
X158220345Y-114785977D01*
X158392402Y-114900941D01*
X158583580Y-114980130D01*
X158786535Y-115020500D01*
X158856943Y-115020500D01*
X158878972Y-115022982D01*
X158890000Y-115025499D01*
X160830500Y-115025499D01*
X160888691Y-115044406D01*
X160924655Y-115093906D01*
X160929500Y-115124499D01*
X160929500Y-115355501D01*
X160910593Y-115413692D01*
X160861093Y-115449656D01*
X160830500Y-115454501D01*
X158889998Y-115454501D01*
X158851151Y-115458878D01*
X158840067Y-115459500D01*
X158786532Y-115459500D01*
X158583581Y-115499869D01*
X158392402Y-115579058D01*
X158220348Y-115694020D01*
X158074020Y-115840348D01*
X157959058Y-116012402D01*
X157879869Y-116203581D01*
X157839500Y-116406532D01*
X157839500Y-116613467D01*
X157879869Y-116816418D01*
X157959058Y-117007597D01*
X158074020Y-117179651D01*
X158074023Y-117179655D01*
X158220345Y-117325977D01*
X158392402Y-117440941D01*
X158583580Y-117520130D01*
X158786535Y-117560500D01*
X158856935Y-117560500D01*
X158878961Y-117562981D01*
X158890000Y-117565501D01*
X160830500Y-117565501D01*
X160888691Y-117584408D01*
X160924655Y-117633908D01*
X160929500Y-117664501D01*
X160929500Y-117895500D01*
X160910593Y-117953691D01*
X160861093Y-117989655D01*
X160830500Y-117994500D01*
X158890000Y-117994500D01*
X158854950Y-117998449D01*
X158851142Y-117998878D01*
X158840058Y-117999500D01*
X158786532Y-117999500D01*
X158583581Y-118039869D01*
X158392402Y-118119058D01*
X158220348Y-118234020D01*
X158074020Y-118380348D01*
X157959058Y-118552402D01*
X157879869Y-118743581D01*
X157839500Y-118946532D01*
X157839500Y-119153467D01*
X157879869Y-119356418D01*
X157959058Y-119547597D01*
X158064915Y-119706024D01*
X158074023Y-119719655D01*
X158220345Y-119865977D01*
X158392402Y-119980941D01*
X158583580Y-120060130D01*
X158786535Y-120100500D01*
X158856938Y-120100500D01*
X158878967Y-120102982D01*
X158889995Y-120105499D01*
X158889996Y-120105499D01*
X158890000Y-120105500D01*
X160830500Y-120105500D01*
X160888691Y-120124407D01*
X160924655Y-120173907D01*
X160929500Y-120204500D01*
X160929500Y-120435500D01*
X160910593Y-120493691D01*
X160861093Y-120529655D01*
X160830500Y-120534500D01*
X158890000Y-120534500D01*
X158851142Y-120538878D01*
X158840058Y-120539500D01*
X158786532Y-120539500D01*
X158583581Y-120579869D01*
X158392402Y-120659058D01*
X158220348Y-120774020D01*
X158074020Y-120920348D01*
X157959058Y-121092402D01*
X157879869Y-121283581D01*
X157839500Y-121486532D01*
X157839500Y-121693467D01*
X157879869Y-121896418D01*
X157959058Y-122087597D01*
X158074020Y-122259651D01*
X158074023Y-122259655D01*
X158220345Y-122405977D01*
X158392402Y-122520941D01*
X158583580Y-122600130D01*
X158786535Y-122640500D01*
X158856938Y-122640500D01*
X158878967Y-122642982D01*
X158889995Y-122645499D01*
X158889996Y-122645499D01*
X158890000Y-122645500D01*
X160830500Y-122645500D01*
X160888691Y-122664407D01*
X160924655Y-122713907D01*
X160929500Y-122744500D01*
X160929500Y-122975500D01*
X160910593Y-123033691D01*
X160861093Y-123069655D01*
X160830500Y-123074500D01*
X158890000Y-123074500D01*
X158854950Y-123078449D01*
X158851142Y-123078878D01*
X158840058Y-123079500D01*
X158786532Y-123079500D01*
X158583581Y-123119869D01*
X158392402Y-123199058D01*
X158220348Y-123314020D01*
X158074020Y-123460348D01*
X157959058Y-123632402D01*
X157879869Y-123823581D01*
X157839500Y-124026532D01*
X157839500Y-124233467D01*
X157879869Y-124436418D01*
X157959058Y-124627597D01*
X158064915Y-124786024D01*
X158074023Y-124799655D01*
X158220345Y-124945977D01*
X158392402Y-125060941D01*
X158583580Y-125140130D01*
X158786535Y-125180500D01*
X158856938Y-125180500D01*
X158878967Y-125182982D01*
X158889995Y-125185499D01*
X158889996Y-125185499D01*
X158890000Y-125185500D01*
X160830500Y-125185500D01*
X160888691Y-125204407D01*
X160924655Y-125253907D01*
X160929500Y-125284500D01*
X160929500Y-127935138D01*
X160929023Y-127944842D01*
X160915669Y-128080417D01*
X160911883Y-128099451D01*
X160873755Y-128225144D01*
X160866328Y-128243074D01*
X160804413Y-128358910D01*
X160793631Y-128375047D01*
X160710304Y-128476581D01*
X160696581Y-128490304D01*
X160595047Y-128573631D01*
X160578910Y-128584413D01*
X160463074Y-128646328D01*
X160445144Y-128653755D01*
X160319451Y-128691883D01*
X160300418Y-128695669D01*
X160180442Y-128707486D01*
X160164841Y-128709023D01*
X160155139Y-128709500D01*
X157504500Y-128709500D01*
X157446309Y-128690593D01*
X157410345Y-128641093D01*
X157405500Y-128610500D01*
X157405500Y-126586283D01*
X157401551Y-126546193D01*
X157368885Y-126381969D01*
X157357195Y-126343432D01*
X157357192Y-126343422D01*
X157293117Y-126188732D01*
X157293115Y-126188727D01*
X157283104Y-126170000D01*
X157274127Y-126153205D01*
X157181105Y-126013987D01*
X157181102Y-126013983D01*
X157181096Y-126013975D01*
X157155554Y-125982853D01*
X157155552Y-125982851D01*
X157155548Y-125982846D01*
X157037154Y-125864452D01*
X157037148Y-125864447D01*
X157037146Y-125864445D01*
X157006024Y-125838903D01*
X157006016Y-125838897D01*
X156866803Y-125745878D01*
X156866800Y-125745876D01*
X156866795Y-125745873D01*
X156852990Y-125738494D01*
X156831272Y-125726884D01*
X156676578Y-125662808D01*
X156676567Y-125662804D01*
X156638030Y-125651114D01*
X156473804Y-125618448D01*
X156473808Y-125618448D01*
X156438794Y-125615000D01*
X156433718Y-125614500D01*
X156266282Y-125614500D01*
X156258386Y-125615277D01*
X156226193Y-125618448D01*
X156061969Y-125651114D01*
X156023432Y-125662804D01*
X156023421Y-125662808D01*
X155868727Y-125726884D01*
X155833196Y-125745878D01*
X155693983Y-125838897D01*
X155693975Y-125838903D01*
X155662853Y-125864445D01*
X155544445Y-125982853D01*
X155518903Y-126013975D01*
X155518897Y-126013983D01*
X155425878Y-126153196D01*
X155425873Y-126153203D01*
X155425873Y-126153205D01*
X155425721Y-126153489D01*
X155406884Y-126188727D01*
X155342808Y-126343421D01*
X155342804Y-126343432D01*
X155331114Y-126381969D01*
X155298448Y-126546193D01*
X155294500Y-126586283D01*
X155294500Y-128610500D01*
X155275593Y-128668691D01*
X155226093Y-128704655D01*
X155195500Y-128709500D01*
X154964500Y-128709500D01*
X154906309Y-128690593D01*
X154870345Y-128641093D01*
X154865500Y-128610500D01*
X154865500Y-126586283D01*
X154861551Y-126546193D01*
X154828885Y-126381969D01*
X154817195Y-126343432D01*
X154817192Y-126343422D01*
X154753117Y-126188732D01*
X154753115Y-126188727D01*
X154743104Y-126170000D01*
X154734127Y-126153205D01*
X154641105Y-126013987D01*
X154641102Y-126013983D01*
X154641096Y-126013975D01*
X154615554Y-125982853D01*
X154615552Y-125982851D01*
X154615548Y-125982846D01*
X154497154Y-125864452D01*
X154497148Y-125864447D01*
X154497146Y-125864445D01*
X154466024Y-125838903D01*
X154466016Y-125838897D01*
X154326803Y-125745878D01*
X154326800Y-125745876D01*
X154326795Y-125745873D01*
X154312990Y-125738494D01*
X154291272Y-125726884D01*
X154136578Y-125662808D01*
X154136567Y-125662804D01*
X154098030Y-125651114D01*
X153933804Y-125618448D01*
X153933808Y-125618448D01*
X153898794Y-125615000D01*
X153893718Y-125614500D01*
X153726282Y-125614500D01*
X153718386Y-125615277D01*
X153686193Y-125618448D01*
X153521969Y-125651114D01*
X153483432Y-125662804D01*
X153483421Y-125662808D01*
X153328727Y-125726884D01*
X153293196Y-125745878D01*
X153153983Y-125838897D01*
X153153975Y-125838903D01*
X153122853Y-125864445D01*
X153004445Y-125982853D01*
X152978903Y-126013975D01*
X152978897Y-126013983D01*
X152885878Y-126153196D01*
X152885873Y-126153203D01*
X152885873Y-126153205D01*
X152885721Y-126153489D01*
X152866884Y-126188727D01*
X152802808Y-126343421D01*
X152802804Y-126343432D01*
X152791114Y-126381969D01*
X152758448Y-126546193D01*
X152754500Y-126586283D01*
X152754500Y-128610500D01*
X152735593Y-128668691D01*
X152686093Y-128704655D01*
X152655500Y-128709500D01*
X152424500Y-128709500D01*
X152366309Y-128690593D01*
X152330345Y-128641093D01*
X152325500Y-128610500D01*
X152325500Y-126586283D01*
X152321551Y-126546193D01*
X152288885Y-126381969D01*
X152277195Y-126343432D01*
X152277192Y-126343422D01*
X152213117Y-126188732D01*
X152213115Y-126188727D01*
X152203104Y-126170000D01*
X152194127Y-126153205D01*
X152101105Y-126013987D01*
X152101102Y-126013983D01*
X152101096Y-126013975D01*
X152075554Y-125982853D01*
X152075552Y-125982851D01*
X152075548Y-125982846D01*
X151957154Y-125864452D01*
X151957148Y-125864447D01*
X151957146Y-125864445D01*
X151926024Y-125838903D01*
X151926016Y-125838897D01*
X151786803Y-125745878D01*
X151786800Y-125745876D01*
X151786795Y-125745873D01*
X151772990Y-125738494D01*
X151751272Y-125726884D01*
X151596578Y-125662808D01*
X151596567Y-125662804D01*
X151558030Y-125651114D01*
X151393804Y-125618448D01*
X151393808Y-125618448D01*
X151358794Y-125615000D01*
X151353718Y-125614500D01*
X151186282Y-125614500D01*
X151178386Y-125615277D01*
X151146193Y-125618448D01*
X150981969Y-125651114D01*
X150943432Y-125662804D01*
X150943421Y-125662808D01*
X150788727Y-125726884D01*
X150753196Y-125745878D01*
X150613983Y-125838897D01*
X150613975Y-125838903D01*
X150582853Y-125864445D01*
X150464445Y-125982853D01*
X150438903Y-126013975D01*
X150438897Y-126013983D01*
X150345878Y-126153196D01*
X150345873Y-126153203D01*
X150345873Y-126153205D01*
X150345721Y-126153489D01*
X150326884Y-126188727D01*
X150262808Y-126343421D01*
X150262804Y-126343432D01*
X150251114Y-126381969D01*
X150218448Y-126546193D01*
X150214500Y-126586283D01*
X150214500Y-128610500D01*
X150195593Y-128668691D01*
X150146093Y-128704655D01*
X150115500Y-128709500D01*
X149884499Y-128709500D01*
X149826308Y-128690593D01*
X149790344Y-128641093D01*
X149785499Y-128610500D01*
X149785499Y-126586283D01*
X149781550Y-126546193D01*
X149748884Y-126381969D01*
X149737194Y-126343432D01*
X149737191Y-126343422D01*
X149673116Y-126188732D01*
X149673114Y-126188727D01*
X149663103Y-126170000D01*
X149654126Y-126153205D01*
X149561104Y-126013987D01*
X149561101Y-126013983D01*
X149561095Y-126013975D01*
X149535553Y-125982853D01*
X149535551Y-125982851D01*
X149535547Y-125982846D01*
X149417153Y-125864452D01*
X149417147Y-125864447D01*
X149417145Y-125864445D01*
X149386023Y-125838903D01*
X149386015Y-125838897D01*
X149246802Y-125745878D01*
X149246799Y-125745876D01*
X149246794Y-125745873D01*
X149232989Y-125738494D01*
X149211271Y-125726884D01*
X149056577Y-125662808D01*
X149056566Y-125662804D01*
X149018029Y-125651114D01*
X148853803Y-125618448D01*
X148853807Y-125618448D01*
X148818793Y-125615000D01*
X148813717Y-125614500D01*
X148646281Y-125614500D01*
X148638385Y-125615277D01*
X148606192Y-125618448D01*
X148441968Y-125651114D01*
X148403431Y-125662804D01*
X148403420Y-125662808D01*
X148248726Y-125726884D01*
X148213195Y-125745878D01*
X148073982Y-125838897D01*
X148073974Y-125838903D01*
X148042852Y-125864445D01*
X147924444Y-125982853D01*
X147898902Y-126013975D01*
X147898896Y-126013983D01*
X147805877Y-126153196D01*
X147805872Y-126153203D01*
X147805872Y-126153205D01*
X147805720Y-126153489D01*
X147786883Y-126188727D01*
X147722807Y-126343421D01*
X147722803Y-126343432D01*
X147711113Y-126381969D01*
X147678447Y-126546193D01*
X147674499Y-126586283D01*
X147674499Y-128610500D01*
X147655592Y-128668691D01*
X147606092Y-128704655D01*
X147575499Y-128709500D01*
X147344500Y-128709500D01*
X147286309Y-128690593D01*
X147250345Y-128641093D01*
X147245500Y-128610500D01*
X147245500Y-126586283D01*
X147241551Y-126546193D01*
X147208885Y-126381969D01*
X147197195Y-126343432D01*
X147197192Y-126343422D01*
X147133117Y-126188732D01*
X147133115Y-126188727D01*
X147123104Y-126170000D01*
X147114127Y-126153205D01*
X147021105Y-126013987D01*
X147021102Y-126013983D01*
X147021096Y-126013975D01*
X146995554Y-125982853D01*
X146995552Y-125982851D01*
X146995548Y-125982846D01*
X146877154Y-125864452D01*
X146877148Y-125864447D01*
X146877146Y-125864445D01*
X146846024Y-125838903D01*
X146846016Y-125838897D01*
X146706803Y-125745878D01*
X146706800Y-125745876D01*
X146706795Y-125745873D01*
X146692990Y-125738494D01*
X146671272Y-125726884D01*
X146516578Y-125662808D01*
X146516567Y-125662804D01*
X146478030Y-125651114D01*
X146313804Y-125618448D01*
X146313808Y-125618448D01*
X146278794Y-125615000D01*
X146273718Y-125614500D01*
X146106282Y-125614500D01*
X146098386Y-125615277D01*
X146066193Y-125618448D01*
X145901969Y-125651114D01*
X145863432Y-125662804D01*
X145863421Y-125662808D01*
X145708727Y-125726884D01*
X145673196Y-125745878D01*
X145533983Y-125838897D01*
X145533975Y-125838903D01*
X145502853Y-125864445D01*
X145384445Y-125982853D01*
X145358903Y-126013975D01*
X145358897Y-126013983D01*
X145265878Y-126153196D01*
X145265873Y-126153203D01*
X145265873Y-126153205D01*
X145265721Y-126153489D01*
X145246884Y-126188727D01*
X145182808Y-126343421D01*
X145182804Y-126343432D01*
X145171114Y-126381969D01*
X145138448Y-126546193D01*
X145134500Y-126586283D01*
X145134500Y-128610500D01*
X145115593Y-128668691D01*
X145066093Y-128704655D01*
X145035500Y-128709500D01*
X144531956Y-128709500D01*
X144473765Y-128690593D01*
X144461952Y-128680504D01*
X143650000Y-127868552D01*
X142838048Y-128680504D01*
X142783531Y-128708281D01*
X142768044Y-128709500D01*
X139844861Y-128709500D01*
X139835157Y-128709023D01*
X139699582Y-128695669D01*
X139680548Y-128691883D01*
X139554855Y-128653755D01*
X139536925Y-128646328D01*
X139421089Y-128584413D01*
X139404952Y-128573631D01*
X139303418Y-128490304D01*
X139289695Y-128476581D01*
X139266254Y-128448018D01*
X139206365Y-128375043D01*
X139195589Y-128358915D01*
X139133670Y-128243071D01*
X139126244Y-128225144D01*
X139123606Y-128216447D01*
X142595000Y-128216447D01*
X143296447Y-127515000D01*
X144003553Y-127515000D01*
X144705000Y-128216447D01*
X144705000Y-126813553D01*
X144003553Y-127515000D01*
X143296447Y-127515000D01*
X142595000Y-126813553D01*
X142595000Y-128216447D01*
X139123606Y-128216447D01*
X139088116Y-128099451D01*
X139084330Y-128080417D01*
X139070977Y-127944842D01*
X139070500Y-127935138D01*
X139070500Y-126210043D01*
X142698595Y-126210043D01*
X143150000Y-126661448D01*
X143150000Y-126735826D01*
X143184075Y-126862993D01*
X143249901Y-126977007D01*
X143342993Y-127070099D01*
X143457007Y-127135925D01*
X143584174Y-127170000D01*
X143715826Y-127170000D01*
X143842993Y-127135925D01*
X143957007Y-127070099D01*
X144050099Y-126977007D01*
X144115925Y-126862993D01*
X144150000Y-126735826D01*
X144150000Y-126661445D01*
X144601402Y-126210043D01*
X144592658Y-126188933D01*
X144592644Y-126188904D01*
X144573715Y-126153489D01*
X144480686Y-126014260D01*
X144455196Y-125983201D01*
X144336798Y-125864803D01*
X144305739Y-125839313D01*
X144166510Y-125746284D01*
X144131080Y-125727347D01*
X144131075Y-125727344D01*
X143976390Y-125663271D01*
X143937925Y-125651603D01*
X143937918Y-125651601D01*
X143773706Y-125618938D01*
X143773712Y-125618938D01*
X143733724Y-125615000D01*
X143566276Y-125615000D01*
X143526290Y-125618938D01*
X143362081Y-125651601D01*
X143362074Y-125651603D01*
X143323609Y-125663271D01*
X143168924Y-125727344D01*
X143168919Y-125727347D01*
X143133489Y-125746284D01*
X142994260Y-125839313D01*
X142963201Y-125864803D01*
X142844803Y-125983201D01*
X142819313Y-126014260D01*
X142726286Y-126153485D01*
X142707346Y-126188920D01*
X142707342Y-126188929D01*
X142698595Y-126210043D01*
X139070500Y-126210043D01*
X139070500Y-125284500D01*
X139089407Y-125226309D01*
X139138907Y-125190345D01*
X139169500Y-125185500D01*
X141193716Y-125185500D01*
X141193718Y-125185500D01*
X141233809Y-125181551D01*
X141398027Y-125148886D01*
X141436578Y-125137192D01*
X141591268Y-125073117D01*
X141626795Y-125054127D01*
X141766013Y-124961105D01*
X141797154Y-124935548D01*
X141915548Y-124817154D01*
X141941105Y-124786013D01*
X142034127Y-124646795D01*
X142053117Y-124611268D01*
X142117192Y-124456578D01*
X142128886Y-124418027D01*
X142161551Y-124253809D01*
X142165500Y-124213718D01*
X142165500Y-124046282D01*
X142161551Y-124006191D01*
X142128886Y-123841973D01*
X142117192Y-123803422D01*
X142053117Y-123648732D01*
X142053115Y-123648727D01*
X142044388Y-123632402D01*
X142034127Y-123613205D01*
X141941105Y-123473987D01*
X141941102Y-123473983D01*
X141941096Y-123473975D01*
X141915554Y-123442853D01*
X141915552Y-123442851D01*
X141915548Y-123442846D01*
X141797154Y-123324452D01*
X141797148Y-123324447D01*
X141797146Y-123324445D01*
X141766024Y-123298903D01*
X141766016Y-123298897D01*
X141626803Y-123205878D01*
X141626800Y-123205876D01*
X141626795Y-123205873D01*
X141610498Y-123197162D01*
X141591272Y-123186884D01*
X141436578Y-123122808D01*
X141436567Y-123122804D01*
X141398030Y-123111114D01*
X141233804Y-123078448D01*
X141233808Y-123078448D01*
X141200905Y-123075208D01*
X141193718Y-123074500D01*
X141193716Y-123074500D01*
X139169500Y-123074500D01*
X139111309Y-123055593D01*
X139075345Y-123006093D01*
X139070500Y-122975500D01*
X139070500Y-122645000D01*
X139563553Y-122645000D01*
X140966447Y-122645000D01*
X140265000Y-121943553D01*
X139563553Y-122645000D01*
X139070500Y-122645000D01*
X139070500Y-122471955D01*
X139089407Y-122413764D01*
X139099496Y-122401951D01*
X139911447Y-121589999D01*
X139845622Y-121524174D01*
X140610000Y-121524174D01*
X140610000Y-121655826D01*
X140644075Y-121782993D01*
X140709901Y-121897007D01*
X140802993Y-121990099D01*
X140917007Y-122055925D01*
X141044174Y-122090000D01*
X141118553Y-122090000D01*
X141569955Y-122541402D01*
X141591085Y-122532650D01*
X141626510Y-122513715D01*
X141765739Y-122420686D01*
X141796798Y-122395196D01*
X141915196Y-122276798D01*
X141940686Y-122245739D01*
X142033715Y-122106510D01*
X142052652Y-122071080D01*
X142052655Y-122071075D01*
X142116728Y-121916390D01*
X142128396Y-121877925D01*
X142128398Y-121877918D01*
X142161061Y-121713709D01*
X142165000Y-121673724D01*
X142165000Y-121506275D01*
X142161061Y-121466290D01*
X142128398Y-121302081D01*
X142128396Y-121302074D01*
X142116728Y-121263609D01*
X142052655Y-121108924D01*
X142052652Y-121108919D01*
X142033715Y-121073489D01*
X141940686Y-120934260D01*
X141915515Y-120903590D01*
X141915514Y-120903587D01*
X141915509Y-120903583D01*
X141915193Y-120903198D01*
X141859268Y-120847273D01*
X148549500Y-120847273D01*
X148549500Y-120952727D01*
X148576793Y-121054587D01*
X148576794Y-121054589D01*
X148576794Y-121054590D01*
X148629518Y-121145910D01*
X148629520Y-121145913D01*
X148704087Y-121220480D01*
X148795413Y-121273207D01*
X148897273Y-121300500D01*
X148897275Y-121300500D01*
X149002725Y-121300500D01*
X149002727Y-121300500D01*
X149104587Y-121273207D01*
X149195913Y-121220480D01*
X149270480Y-121145913D01*
X149323207Y-121054587D01*
X149350500Y-120952727D01*
X149350500Y-120847273D01*
X150199500Y-120847273D01*
X150199500Y-120952727D01*
X150226793Y-121054587D01*
X150226794Y-121054589D01*
X150226794Y-121054590D01*
X150279518Y-121145910D01*
X150279520Y-121145913D01*
X150354087Y-121220480D01*
X150445413Y-121273207D01*
X150547273Y-121300500D01*
X150547275Y-121300500D01*
X150652725Y-121300500D01*
X150652727Y-121300500D01*
X150754587Y-121273207D01*
X150845913Y-121220480D01*
X150920480Y-121145913D01*
X150973207Y-121054587D01*
X151000500Y-120952727D01*
X151000500Y-120847273D01*
X150973207Y-120745413D01*
X150960573Y-120723531D01*
X150927285Y-120665873D01*
X150920480Y-120654087D01*
X150845913Y-120579520D01*
X150776596Y-120539500D01*
X150754589Y-120526794D01*
X150754588Y-120526793D01*
X150754587Y-120526793D01*
X150652727Y-120499500D01*
X150547273Y-120499500D01*
X150445413Y-120526793D01*
X150445412Y-120526793D01*
X150445410Y-120526794D01*
X150445409Y-120526794D01*
X150354089Y-120579518D01*
X150279518Y-120654089D01*
X150226794Y-120745409D01*
X150226794Y-120745410D01*
X150226793Y-120745412D01*
X150226793Y-120745413D01*
X150199500Y-120847273D01*
X149350500Y-120847273D01*
X149323207Y-120745413D01*
X149310573Y-120723531D01*
X149277285Y-120665873D01*
X149270480Y-120654087D01*
X149195913Y-120579520D01*
X149126596Y-120539500D01*
X149104589Y-120526794D01*
X149104588Y-120526793D01*
X149104587Y-120526793D01*
X149002727Y-120499500D01*
X148897273Y-120499500D01*
X148795413Y-120526793D01*
X148795412Y-120526793D01*
X148795410Y-120526794D01*
X148795409Y-120526794D01*
X148704089Y-120579518D01*
X148629518Y-120654089D01*
X148576794Y-120745409D01*
X148576794Y-120745410D01*
X148576793Y-120745412D01*
X148576793Y-120745413D01*
X148549500Y-120847273D01*
X141859268Y-120847273D01*
X141796798Y-120784803D01*
X141765739Y-120759313D01*
X141626510Y-120666284D01*
X141591072Y-120647343D01*
X141591065Y-120647339D01*
X141569957Y-120638595D01*
X141569956Y-120638595D01*
X141118551Y-121090000D01*
X141044174Y-121090000D01*
X140917007Y-121124075D01*
X140802993Y-121189901D01*
X140709901Y-121282993D01*
X140644075Y-121397007D01*
X140610000Y-121524174D01*
X139845622Y-121524174D01*
X139099496Y-120778048D01*
X139095869Y-120770930D01*
X139089407Y-120766235D01*
X139082243Y-120744186D01*
X139071719Y-120723531D01*
X139070500Y-120708044D01*
X139070500Y-120535000D01*
X139563553Y-120535000D01*
X140265000Y-121236447D01*
X140966447Y-120535000D01*
X139563553Y-120535000D01*
X139070500Y-120535000D01*
X139070500Y-120204500D01*
X139089407Y-120146309D01*
X139138907Y-120110345D01*
X139169500Y-120105500D01*
X141193716Y-120105500D01*
X141193718Y-120105500D01*
X141233809Y-120101551D01*
X141398027Y-120068886D01*
X141436578Y-120057192D01*
X141591268Y-119993117D01*
X141626795Y-119974127D01*
X141766013Y-119881105D01*
X141797154Y-119855548D01*
X141915548Y-119737154D01*
X141941105Y-119706013D01*
X142034127Y-119566795D01*
X142053117Y-119531268D01*
X142117192Y-119376578D01*
X142128886Y-119338027D01*
X142161551Y-119173809D01*
X142165500Y-119133718D01*
X142165500Y-118966282D01*
X142163628Y-118947273D01*
X145999500Y-118947273D01*
X145999500Y-119052727D01*
X146026493Y-119153467D01*
X146026794Y-119154589D01*
X146026794Y-119154590D01*
X146079518Y-119245910D01*
X146079520Y-119245913D01*
X146154087Y-119320480D01*
X146245413Y-119373207D01*
X146347273Y-119400500D01*
X146347275Y-119400500D01*
X146452725Y-119400500D01*
X146452727Y-119400500D01*
X146554587Y-119373207D01*
X146645913Y-119320480D01*
X146720480Y-119245913D01*
X146773207Y-119154587D01*
X146774209Y-119150844D01*
X146775166Y-119147273D01*
X150199500Y-119147273D01*
X150199500Y-119252727D01*
X150222356Y-119338027D01*
X150226794Y-119354589D01*
X150226794Y-119354590D01*
X150279518Y-119445910D01*
X150279520Y-119445913D01*
X150354087Y-119520480D01*
X150445413Y-119573207D01*
X150547273Y-119600500D01*
X150547275Y-119600500D01*
X150652725Y-119600500D01*
X150652727Y-119600500D01*
X150754587Y-119573207D01*
X150845913Y-119520480D01*
X150920480Y-119445913D01*
X150973207Y-119354587D01*
X151000500Y-119252727D01*
X151000500Y-119147273D01*
X150973207Y-119045413D01*
X150920480Y-118954087D01*
X150845913Y-118879520D01*
X150754587Y-118826793D01*
X150652727Y-118799500D01*
X150547273Y-118799500D01*
X150445413Y-118826793D01*
X150445412Y-118826793D01*
X150445410Y-118826794D01*
X150445409Y-118826794D01*
X150354089Y-118879518D01*
X150279518Y-118954089D01*
X150226794Y-119045409D01*
X150226794Y-119045410D01*
X150226793Y-119045412D01*
X150226793Y-119045413D01*
X150199500Y-119147273D01*
X146775166Y-119147273D01*
X146783772Y-119115160D01*
X146789639Y-119093258D01*
X146800500Y-119052727D01*
X146800500Y-118947273D01*
X146773207Y-118845413D01*
X146762457Y-118826794D01*
X146720481Y-118754089D01*
X146720480Y-118754087D01*
X146645913Y-118679520D01*
X146554587Y-118626793D01*
X146452727Y-118599500D01*
X146347273Y-118599500D01*
X146245413Y-118626793D01*
X146245412Y-118626793D01*
X146245410Y-118626794D01*
X146245409Y-118626794D01*
X146154089Y-118679518D01*
X146079518Y-118754089D01*
X146026794Y-118845409D01*
X146026794Y-118845410D01*
X146026793Y-118845412D01*
X146026793Y-118845413D01*
X145999500Y-118947273D01*
X142163628Y-118947273D01*
X142161551Y-118926191D01*
X142128886Y-118761973D01*
X142126494Y-118754089D01*
X142117195Y-118723432D01*
X142117192Y-118723422D01*
X142053117Y-118568732D01*
X142053115Y-118568727D01*
X142044388Y-118552402D01*
X142034127Y-118533205D01*
X141941105Y-118393987D01*
X141941102Y-118393983D01*
X141941096Y-118393975D01*
X141915554Y-118362853D01*
X141915552Y-118362851D01*
X141915548Y-118362846D01*
X141797154Y-118244452D01*
X141797148Y-118244447D01*
X141797146Y-118244445D01*
X141766024Y-118218903D01*
X141766016Y-118218897D01*
X141626803Y-118125878D01*
X141626800Y-118125876D01*
X141626795Y-118125873D01*
X141610498Y-118117162D01*
X141591272Y-118106884D01*
X141436578Y-118042808D01*
X141436566Y-118042804D01*
X141412557Y-118035521D01*
X141412556Y-118035520D01*
X141398034Y-118031115D01*
X141233804Y-117998448D01*
X141233808Y-117998448D01*
X141200905Y-117995208D01*
X141193718Y-117994500D01*
X141193716Y-117994500D01*
X139169500Y-117994500D01*
X139111309Y-117975593D01*
X139090733Y-117947273D01*
X153724500Y-117947273D01*
X153724500Y-118052727D01*
X153744101Y-118125878D01*
X153751794Y-118154589D01*
X153751794Y-118154590D01*
X153797655Y-118234023D01*
X153804520Y-118245913D01*
X153879087Y-118320480D01*
X153970413Y-118373207D01*
X154072273Y-118400500D01*
X154072275Y-118400500D01*
X154177725Y-118400500D01*
X154177727Y-118400500D01*
X154279587Y-118373207D01*
X154370913Y-118320480D01*
X154445480Y-118245913D01*
X154498207Y-118154587D01*
X154525500Y-118052727D01*
X154525500Y-117947273D01*
X154498207Y-117845413D01*
X154445480Y-117754087D01*
X154370913Y-117679520D01*
X154344899Y-117664501D01*
X154279589Y-117626794D01*
X154279588Y-117626793D01*
X154279587Y-117626793D01*
X154177727Y-117599500D01*
X154072273Y-117599500D01*
X153970413Y-117626793D01*
X153970412Y-117626793D01*
X153970410Y-117626794D01*
X153970409Y-117626794D01*
X153879089Y-117679518D01*
X153804518Y-117754089D01*
X153751794Y-117845409D01*
X153751794Y-117845410D01*
X153751793Y-117845412D01*
X153751793Y-117845413D01*
X153724500Y-117947273D01*
X139090733Y-117947273D01*
X139075345Y-117926093D01*
X139070500Y-117895500D01*
X139070500Y-117664501D01*
X139089407Y-117606310D01*
X139138907Y-117570346D01*
X139169500Y-117565501D01*
X141193716Y-117565501D01*
X141193718Y-117565501D01*
X141233809Y-117561552D01*
X141398027Y-117528887D01*
X141436578Y-117517193D01*
X141591268Y-117453118D01*
X141626795Y-117434128D01*
X141766013Y-117341106D01*
X141797154Y-117315549D01*
X141915548Y-117197155D01*
X141941105Y-117166014D01*
X142034127Y-117026796D01*
X142053117Y-116991269D01*
X142117192Y-116836579D01*
X142128886Y-116798028D01*
X142161551Y-116633810D01*
X142165500Y-116593719D01*
X142165500Y-116426283D01*
X142161551Y-116386192D01*
X142128886Y-116221974D01*
X142117192Y-116183423D01*
X142053117Y-116028733D01*
X142053115Y-116028728D01*
X142044388Y-116012402D01*
X142034127Y-115993206D01*
X141941105Y-115853988D01*
X141941098Y-115853979D01*
X141941096Y-115853976D01*
X141935595Y-115847273D01*
X145274500Y-115847273D01*
X145274500Y-115952727D01*
X145294866Y-116028733D01*
X145301794Y-116054589D01*
X145301794Y-116054590D01*
X145354518Y-116145910D01*
X145354520Y-116145913D01*
X145429087Y-116220480D01*
X145520413Y-116273207D01*
X145622273Y-116300500D01*
X145622275Y-116300500D01*
X145727725Y-116300500D01*
X145727727Y-116300500D01*
X145829587Y-116273207D01*
X145920913Y-116220480D01*
X145995480Y-116145913D01*
X146048207Y-116054587D01*
X146075500Y-115952727D01*
X146075500Y-115847273D01*
X146048207Y-115745413D01*
X145995480Y-115654087D01*
X145920913Y-115579520D01*
X145829587Y-115526793D01*
X145727727Y-115499500D01*
X145622273Y-115499500D01*
X145520413Y-115526793D01*
X145520412Y-115526793D01*
X145520410Y-115526794D01*
X145520409Y-115526794D01*
X145429089Y-115579518D01*
X145354518Y-115654089D01*
X145301794Y-115745409D01*
X145301794Y-115745410D01*
X145301793Y-115745412D01*
X145301793Y-115745413D01*
X145274500Y-115847273D01*
X141935595Y-115847273D01*
X141915554Y-115822854D01*
X141915552Y-115822852D01*
X141915548Y-115822847D01*
X141797154Y-115704453D01*
X141797148Y-115704448D01*
X141797146Y-115704446D01*
X141766024Y-115678904D01*
X141766016Y-115678898D01*
X141626803Y-115585879D01*
X141626800Y-115585877D01*
X141626795Y-115585874D01*
X141610498Y-115577163D01*
X141591272Y-115566885D01*
X141436578Y-115502809D01*
X141436567Y-115502805D01*
X141398030Y-115491115D01*
X141233804Y-115458449D01*
X141233808Y-115458449D01*
X141200905Y-115455209D01*
X141193718Y-115454501D01*
X141193716Y-115454501D01*
X139169500Y-115454501D01*
X139111309Y-115435594D01*
X139075345Y-115386094D01*
X139070500Y-115355501D01*
X139070500Y-115124499D01*
X139089407Y-115066308D01*
X139138907Y-115030344D01*
X139169500Y-115025499D01*
X141193716Y-115025499D01*
X141193718Y-115025499D01*
X141233809Y-115021550D01*
X141398027Y-114988885D01*
X141436578Y-114977191D01*
X141591268Y-114913116D01*
X141626795Y-114894126D01*
X141766013Y-114801104D01*
X141797154Y-114775547D01*
X141915548Y-114657153D01*
X141941105Y-114626012D01*
X142034127Y-114486794D01*
X142053117Y-114451267D01*
X142117192Y-114296577D01*
X142128886Y-114258026D01*
X142161551Y-114093808D01*
X142163672Y-114072273D01*
X151899500Y-114072273D01*
X151899500Y-114177727D01*
X151926793Y-114279587D01*
X151926794Y-114279589D01*
X151926794Y-114279590D01*
X151950403Y-114320481D01*
X151979520Y-114370913D01*
X152054087Y-114445480D01*
X152054089Y-114445481D01*
X152090728Y-114466635D01*
X152131669Y-114512104D01*
X152138065Y-114572955D01*
X152111233Y-114622374D01*
X152079518Y-114654089D01*
X152026794Y-114745409D01*
X152026794Y-114745410D01*
X152026793Y-114745412D01*
X152026793Y-114745413D01*
X151999500Y-114847273D01*
X151999500Y-114952727D01*
X152026793Y-115054587D01*
X152026794Y-115054589D01*
X152026794Y-115054590D01*
X152079518Y-115145910D01*
X152079520Y-115145913D01*
X152154087Y-115220480D01*
X152245413Y-115273207D01*
X152347273Y-115300500D01*
X152347275Y-115300500D01*
X152452725Y-115300500D01*
X152452727Y-115300500D01*
X152554587Y-115273207D01*
X152645913Y-115220480D01*
X152720480Y-115145913D01*
X152773207Y-115054587D01*
X152800500Y-114952727D01*
X152800500Y-114847273D01*
X152773207Y-114745413D01*
X152720480Y-114654087D01*
X152645913Y-114579520D01*
X152609270Y-114558364D01*
X152568330Y-114512894D01*
X152561935Y-114452044D01*
X152588765Y-114402627D01*
X152620480Y-114370913D01*
X152673207Y-114279587D01*
X152700500Y-114177727D01*
X152700500Y-114072273D01*
X152673207Y-113970413D01*
X152659847Y-113947273D01*
X153724500Y-113947273D01*
X153724500Y-114052727D01*
X153751793Y-114154587D01*
X153751794Y-114154589D01*
X153751794Y-114154590D01*
X153804518Y-114245910D01*
X153804520Y-114245913D01*
X153879087Y-114320480D01*
X153970413Y-114373207D01*
X154072273Y-114400500D01*
X154072275Y-114400500D01*
X154177725Y-114400500D01*
X154177727Y-114400500D01*
X154279587Y-114373207D01*
X154370913Y-114320480D01*
X154445480Y-114245913D01*
X154498207Y-114154587D01*
X154525500Y-114052727D01*
X154525500Y-113947273D01*
X154498207Y-113845413D01*
X154474597Y-113804520D01*
X154445481Y-113754089D01*
X154445480Y-113754087D01*
X154370913Y-113679520D01*
X154279587Y-113626793D01*
X154177727Y-113599500D01*
X154072273Y-113599500D01*
X153970413Y-113626793D01*
X153970412Y-113626793D01*
X153970410Y-113626794D01*
X153970409Y-113626794D01*
X153879089Y-113679518D01*
X153804518Y-113754089D01*
X153751794Y-113845409D01*
X153751794Y-113845410D01*
X153751793Y-113845412D01*
X153751793Y-113845413D01*
X153724500Y-113947273D01*
X152659847Y-113947273D01*
X152620480Y-113879087D01*
X152545913Y-113804520D01*
X152458560Y-113754087D01*
X152454589Y-113751794D01*
X152454588Y-113751793D01*
X152454587Y-113751793D01*
X152352727Y-113724500D01*
X152247273Y-113724500D01*
X152145413Y-113751793D01*
X152145412Y-113751793D01*
X152145410Y-113751794D01*
X152145409Y-113751794D01*
X152054089Y-113804518D01*
X151979518Y-113879089D01*
X151926794Y-113970409D01*
X151926794Y-113970410D01*
X151926793Y-113970412D01*
X151926793Y-113970413D01*
X151899500Y-114072273D01*
X142163672Y-114072273D01*
X142165500Y-114053717D01*
X142165500Y-113886281D01*
X142161551Y-113846190D01*
X142128886Y-113681972D01*
X142117192Y-113643421D01*
X142053117Y-113488731D01*
X142053115Y-113488726D01*
X142044389Y-113472402D01*
X142034127Y-113453204D01*
X141941105Y-113313986D01*
X141941102Y-113313982D01*
X141941096Y-113313974D01*
X141915554Y-113282852D01*
X141915552Y-113282850D01*
X141915548Y-113282845D01*
X141797154Y-113164451D01*
X141797148Y-113164446D01*
X141797146Y-113164444D01*
X141766024Y-113138902D01*
X141766016Y-113138896D01*
X141626803Y-113045877D01*
X141626800Y-113045875D01*
X141626795Y-113045872D01*
X141610498Y-113037161D01*
X141591272Y-113026883D01*
X141436578Y-112962807D01*
X141436567Y-112962803D01*
X141398030Y-112951113D01*
X141233804Y-112918447D01*
X141233808Y-112918447D01*
X141200905Y-112915207D01*
X141193718Y-112914499D01*
X141193716Y-112914499D01*
X139169500Y-112914499D01*
X139111309Y-112895592D01*
X139075345Y-112846092D01*
X139070500Y-112815499D01*
X139070500Y-112584500D01*
X139082596Y-112547273D01*
X142099500Y-112547273D01*
X142099500Y-112652727D01*
X142124834Y-112747274D01*
X142126794Y-112754589D01*
X142126794Y-112754590D01*
X142179518Y-112845910D01*
X142179520Y-112845913D01*
X142254087Y-112920480D01*
X142345413Y-112973207D01*
X142447273Y-113000500D01*
X142447275Y-113000500D01*
X142552725Y-113000500D01*
X142552727Y-113000500D01*
X142654587Y-112973207D01*
X142745913Y-112920480D01*
X142820480Y-112845913D01*
X142873207Y-112754587D01*
X142874209Y-112750844D01*
X142875166Y-112747273D01*
X144449500Y-112747273D01*
X144449500Y-112852727D01*
X144476659Y-112954087D01*
X144476794Y-112954589D01*
X144476794Y-112954590D01*
X144529231Y-113045413D01*
X144529520Y-113045913D01*
X144604087Y-113120480D01*
X144695413Y-113173207D01*
X144797273Y-113200500D01*
X144797275Y-113200500D01*
X144902725Y-113200500D01*
X144902727Y-113200500D01*
X145004587Y-113173207D01*
X145049506Y-113147273D01*
X146849500Y-113147273D01*
X146849500Y-113252727D01*
X146876793Y-113354587D01*
X146876794Y-113354589D01*
X146876794Y-113354590D01*
X146929518Y-113445910D01*
X146929520Y-113445913D01*
X147004087Y-113520480D01*
X147095413Y-113573207D01*
X147197273Y-113600500D01*
X147197275Y-113600500D01*
X147302725Y-113600500D01*
X147302727Y-113600500D01*
X147404587Y-113573207D01*
X147495913Y-113520480D01*
X147570480Y-113445913D01*
X147623207Y-113354587D01*
X147650500Y-113252727D01*
X147650500Y-113147273D01*
X148549500Y-113147273D01*
X148549500Y-113252727D01*
X148576793Y-113354587D01*
X148576794Y-113354589D01*
X148576794Y-113354590D01*
X148629518Y-113445910D01*
X148629520Y-113445913D01*
X148704087Y-113520480D01*
X148795413Y-113573207D01*
X148897273Y-113600500D01*
X148897275Y-113600500D01*
X149002725Y-113600500D01*
X149002727Y-113600500D01*
X149104587Y-113573207D01*
X149195913Y-113520480D01*
X149270480Y-113445913D01*
X149323207Y-113354587D01*
X149350500Y-113252727D01*
X149350500Y-113147273D01*
X149323207Y-113045413D01*
X149270480Y-112954087D01*
X149195913Y-112879520D01*
X149185815Y-112873690D01*
X149104589Y-112826794D01*
X149104588Y-112826793D01*
X149104587Y-112826793D01*
X149002727Y-112799500D01*
X148897273Y-112799500D01*
X148795413Y-112826793D01*
X148795412Y-112826793D01*
X148795410Y-112826794D01*
X148795409Y-112826794D01*
X148704089Y-112879518D01*
X148629518Y-112954089D01*
X148576794Y-113045409D01*
X148576794Y-113045410D01*
X148576793Y-113045412D01*
X148576793Y-113045413D01*
X148549500Y-113147273D01*
X147650500Y-113147273D01*
X147623207Y-113045413D01*
X147570480Y-112954087D01*
X147495913Y-112879520D01*
X147485815Y-112873690D01*
X147404589Y-112826794D01*
X147404588Y-112826793D01*
X147404587Y-112826793D01*
X147302727Y-112799500D01*
X147197273Y-112799500D01*
X147095413Y-112826793D01*
X147095412Y-112826793D01*
X147095410Y-112826794D01*
X147095409Y-112826794D01*
X147004089Y-112879518D01*
X146929518Y-112954089D01*
X146876794Y-113045409D01*
X146876794Y-113045410D01*
X146876793Y-113045412D01*
X146876793Y-113045413D01*
X146849500Y-113147273D01*
X145049506Y-113147273D01*
X145095913Y-113120480D01*
X145170480Y-113045913D01*
X145223207Y-112954587D01*
X145250500Y-112852727D01*
X145250500Y-112747273D01*
X145223207Y-112645413D01*
X145170480Y-112554087D01*
X145095913Y-112479520D01*
X145069071Y-112464023D01*
X145004589Y-112426794D01*
X145004588Y-112426793D01*
X145004587Y-112426793D01*
X144902727Y-112399500D01*
X144797273Y-112399500D01*
X144695413Y-112426793D01*
X144695412Y-112426793D01*
X144695410Y-112426794D01*
X144695409Y-112426794D01*
X144604089Y-112479518D01*
X144529518Y-112554089D01*
X144476794Y-112645409D01*
X144476794Y-112645410D01*
X144476793Y-112645412D01*
X144476793Y-112645413D01*
X144449500Y-112747273D01*
X142875166Y-112747273D01*
X142883772Y-112715160D01*
X142889639Y-112693258D01*
X142900500Y-112652727D01*
X142900500Y-112547273D01*
X142894565Y-112525123D01*
X142897766Y-112464023D01*
X142936271Y-112416472D01*
X142990191Y-112400500D01*
X143052725Y-112400500D01*
X143052727Y-112400500D01*
X143154587Y-112373207D01*
X143245913Y-112320480D01*
X143320480Y-112245913D01*
X143373207Y-112154587D01*
X143400500Y-112052727D01*
X143400500Y-111947273D01*
X143373207Y-111845413D01*
X143320480Y-111754087D01*
X143245913Y-111679520D01*
X143154587Y-111626793D01*
X143052727Y-111599500D01*
X142947273Y-111599500D01*
X142845413Y-111626793D01*
X142845412Y-111626793D01*
X142845410Y-111626794D01*
X142845409Y-111626794D01*
X142754089Y-111679518D01*
X142679518Y-111754089D01*
X142626794Y-111845409D01*
X142626794Y-111845410D01*
X142626793Y-111845412D01*
X142626793Y-111845413D01*
X142609147Y-111911272D01*
X142599500Y-111947274D01*
X142599500Y-112052728D01*
X142605435Y-112074876D01*
X142602234Y-112135977D01*
X142563729Y-112183528D01*
X142509809Y-112199500D01*
X142447273Y-112199500D01*
X142345413Y-112226793D01*
X142345412Y-112226793D01*
X142345410Y-112226794D01*
X142345409Y-112226794D01*
X142254089Y-112279518D01*
X142179518Y-112354089D01*
X142126794Y-112445409D01*
X142126794Y-112445410D01*
X142126793Y-112445412D01*
X142126793Y-112445413D01*
X142099500Y-112547273D01*
X139082596Y-112547273D01*
X139089407Y-112526309D01*
X139138907Y-112490345D01*
X139169500Y-112485500D01*
X141193716Y-112485500D01*
X141193718Y-112485500D01*
X141233809Y-112481551D01*
X141398027Y-112448886D01*
X141436578Y-112437192D01*
X141591268Y-112373117D01*
X141626795Y-112354127D01*
X141766013Y-112261105D01*
X141797154Y-112235548D01*
X141915548Y-112117154D01*
X141941105Y-112086013D01*
X142034127Y-111946795D01*
X142053117Y-111911268D01*
X142117192Y-111756578D01*
X142128886Y-111718027D01*
X142161551Y-111553809D01*
X142165500Y-111513718D01*
X142165500Y-111346282D01*
X142161551Y-111306191D01*
X142128886Y-111141973D01*
X142117192Y-111103422D01*
X142053117Y-110948732D01*
X142053115Y-110948727D01*
X142044388Y-110932402D01*
X142034127Y-110913205D01*
X141941105Y-110773987D01*
X141941102Y-110773983D01*
X141941096Y-110773975D01*
X141915554Y-110742853D01*
X141915552Y-110742851D01*
X141915548Y-110742846D01*
X141797154Y-110624452D01*
X141777474Y-110608301D01*
X141766015Y-110598896D01*
X141688755Y-110547273D01*
X147349500Y-110547273D01*
X147349500Y-110652727D01*
X147376295Y-110752727D01*
X147376794Y-110754589D01*
X147376794Y-110754590D01*
X147429518Y-110845910D01*
X147429520Y-110845913D01*
X147504087Y-110920480D01*
X147595413Y-110973207D01*
X147697273Y-111000500D01*
X147697275Y-111000500D01*
X147802725Y-111000500D01*
X147802727Y-111000500D01*
X147904587Y-110973207D01*
X147995913Y-110920480D01*
X148069120Y-110847273D01*
X153999500Y-110847273D01*
X153999500Y-110952727D01*
X154026793Y-111054587D01*
X154026794Y-111054589D01*
X154026794Y-111054590D01*
X154077243Y-111141969D01*
X154079520Y-111145913D01*
X154154087Y-111220480D01*
X154245413Y-111273207D01*
X154347273Y-111300500D01*
X154347275Y-111300500D01*
X154452725Y-111300500D01*
X154452727Y-111300500D01*
X154554587Y-111273207D01*
X154645913Y-111220480D01*
X154720480Y-111145913D01*
X154773207Y-111054587D01*
X154800500Y-110952727D01*
X154800500Y-110847273D01*
X154773207Y-110745413D01*
X154720480Y-110654087D01*
X154713666Y-110647273D01*
X154999500Y-110647273D01*
X154999500Y-110752727D01*
X155024834Y-110847274D01*
X155026794Y-110854589D01*
X155026794Y-110854590D01*
X155071719Y-110932402D01*
X155079520Y-110945913D01*
X155154087Y-111020480D01*
X155245413Y-111073207D01*
X155347273Y-111100500D01*
X155347275Y-111100500D01*
X155452725Y-111100500D01*
X155452727Y-111100500D01*
X155554587Y-111073207D01*
X155645913Y-111020480D01*
X155720480Y-110945913D01*
X155773207Y-110854587D01*
X155800500Y-110752727D01*
X155800500Y-110647273D01*
X155773207Y-110545413D01*
X155762457Y-110526794D01*
X155720481Y-110454089D01*
X155720480Y-110454087D01*
X155645913Y-110379520D01*
X155645878Y-110379500D01*
X155554589Y-110326794D01*
X155554588Y-110326793D01*
X155554587Y-110326793D01*
X155452727Y-110299500D01*
X155347273Y-110299500D01*
X155245413Y-110326793D01*
X155245412Y-110326793D01*
X155245410Y-110326794D01*
X155245409Y-110326794D01*
X155154089Y-110379518D01*
X155079518Y-110454089D01*
X155026794Y-110545409D01*
X155026794Y-110545410D01*
X155026793Y-110545412D01*
X155026793Y-110545413D01*
X154999500Y-110647273D01*
X154713666Y-110647273D01*
X154645913Y-110579520D01*
X154590061Y-110547274D01*
X154554589Y-110526794D01*
X154554588Y-110526793D01*
X154554587Y-110526793D01*
X154452727Y-110499500D01*
X154347273Y-110499500D01*
X154245413Y-110526793D01*
X154245412Y-110526793D01*
X154245410Y-110526794D01*
X154245409Y-110526794D01*
X154154089Y-110579518D01*
X154079518Y-110654089D01*
X154026794Y-110745409D01*
X154026794Y-110745410D01*
X154026793Y-110745412D01*
X154026793Y-110745413D01*
X153999500Y-110847273D01*
X148069120Y-110847273D01*
X148070480Y-110845913D01*
X148123207Y-110754587D01*
X148150500Y-110652727D01*
X148150500Y-110547273D01*
X148123207Y-110445413D01*
X148103404Y-110411114D01*
X148070481Y-110354089D01*
X148070480Y-110354087D01*
X147995913Y-110279520D01*
X147988950Y-110275500D01*
X147904589Y-110226794D01*
X147904588Y-110226793D01*
X147904587Y-110226793D01*
X147802727Y-110199500D01*
X147697273Y-110199500D01*
X147595413Y-110226793D01*
X147595412Y-110226793D01*
X147595410Y-110226794D01*
X147595409Y-110226794D01*
X147504089Y-110279518D01*
X147429518Y-110354089D01*
X147376794Y-110445409D01*
X147376794Y-110445410D01*
X147376793Y-110445412D01*
X147376793Y-110445413D01*
X147349500Y-110547273D01*
X141688755Y-110547273D01*
X141626803Y-110505878D01*
X141626800Y-110505876D01*
X141626795Y-110505873D01*
X141610498Y-110497162D01*
X141591272Y-110486884D01*
X141436578Y-110422808D01*
X141436567Y-110422804D01*
X141398030Y-110411114D01*
X141233804Y-110378448D01*
X141233808Y-110378448D01*
X141200905Y-110375208D01*
X141193718Y-110374500D01*
X141193716Y-110374500D01*
X139169500Y-110374500D01*
X139111309Y-110355593D01*
X139075345Y-110306093D01*
X139070500Y-110275500D01*
X139070500Y-110044500D01*
X139089407Y-109986309D01*
X139138907Y-109950345D01*
X139158305Y-109947273D01*
X143799500Y-109947273D01*
X143799500Y-110052727D01*
X143824469Y-110145913D01*
X143826794Y-110154589D01*
X143826794Y-110154590D01*
X143879518Y-110245910D01*
X143879520Y-110245913D01*
X143954087Y-110320480D01*
X144045413Y-110373207D01*
X144147273Y-110400500D01*
X144147275Y-110400500D01*
X144252725Y-110400500D01*
X144252727Y-110400500D01*
X144354587Y-110373207D01*
X144445913Y-110320480D01*
X144520480Y-110245913D01*
X144573207Y-110154587D01*
X144600500Y-110052727D01*
X144600500Y-109947273D01*
X144573705Y-109847273D01*
X151799500Y-109847273D01*
X151799500Y-109952727D01*
X151826295Y-110052727D01*
X151826794Y-110054589D01*
X151826794Y-110054590D01*
X151879518Y-110145910D01*
X151879520Y-110145913D01*
X151954087Y-110220480D01*
X152045413Y-110273207D01*
X152147273Y-110300500D01*
X152147275Y-110300500D01*
X152252725Y-110300500D01*
X152252727Y-110300500D01*
X152354587Y-110273207D01*
X152445913Y-110220480D01*
X152520480Y-110145913D01*
X152573207Y-110054587D01*
X152586072Y-110006571D01*
X152619394Y-109955259D01*
X152676515Y-109933332D01*
X152735616Y-109949167D01*
X152774122Y-109996716D01*
X152776267Y-110003316D01*
X152776794Y-110004590D01*
X152805662Y-110054590D01*
X152829520Y-110095913D01*
X152904087Y-110170480D01*
X152995413Y-110223207D01*
X153097273Y-110250500D01*
X153097275Y-110250500D01*
X153202725Y-110250500D01*
X153202727Y-110250500D01*
X153304587Y-110223207D01*
X153395913Y-110170480D01*
X153470480Y-110095913D01*
X153523207Y-110004587D01*
X153541874Y-109934919D01*
X153575197Y-109883607D01*
X153632318Y-109861680D01*
X153691419Y-109877515D01*
X153729924Y-109925065D01*
X153733122Y-109934908D01*
X153751793Y-110004587D01*
X153751794Y-110004589D01*
X153751794Y-110004590D01*
X153780662Y-110054590D01*
X153804520Y-110095913D01*
X153879087Y-110170480D01*
X153970413Y-110223207D01*
X154072273Y-110250500D01*
X154072275Y-110250500D01*
X154177725Y-110250500D01*
X154177727Y-110250500D01*
X154279587Y-110223207D01*
X154370913Y-110170480D01*
X154445480Y-110095913D01*
X154498207Y-110004587D01*
X154525500Y-109902727D01*
X154525500Y-109797273D01*
X154498207Y-109695413D01*
X154474347Y-109654087D01*
X154445481Y-109604089D01*
X154445480Y-109604087D01*
X154370913Y-109529520D01*
X154366191Y-109526794D01*
X154279589Y-109476794D01*
X154279588Y-109476793D01*
X154279587Y-109476793D01*
X154177727Y-109449500D01*
X154072273Y-109449500D01*
X153970413Y-109476793D01*
X153970412Y-109476793D01*
X153970410Y-109476794D01*
X153970409Y-109476794D01*
X153879089Y-109529518D01*
X153804518Y-109604089D01*
X153751794Y-109695409D01*
X153751794Y-109695410D01*
X153751793Y-109695412D01*
X153751793Y-109695413D01*
X153736288Y-109753281D01*
X153733127Y-109765078D01*
X153699803Y-109816392D01*
X153642681Y-109838319D01*
X153583581Y-109822484D01*
X153545076Y-109774934D01*
X153541873Y-109765078D01*
X153523207Y-109695413D01*
X153499347Y-109654087D01*
X153470481Y-109604089D01*
X153470480Y-109604087D01*
X153395913Y-109529520D01*
X153391191Y-109526794D01*
X153304589Y-109476794D01*
X153304588Y-109476793D01*
X153304587Y-109476793D01*
X153202727Y-109449500D01*
X153097273Y-109449500D01*
X152995413Y-109476793D01*
X152995412Y-109476793D01*
X152995410Y-109476794D01*
X152995409Y-109476794D01*
X152904089Y-109529518D01*
X152829518Y-109604089D01*
X152776794Y-109695409D01*
X152776791Y-109695416D01*
X152763927Y-109743427D01*
X152730603Y-109794741D01*
X152673481Y-109816667D01*
X152614381Y-109800831D01*
X152575876Y-109753281D01*
X152573732Y-109746681D01*
X152573205Y-109745409D01*
X152520481Y-109654089D01*
X152520480Y-109654087D01*
X152445913Y-109579520D01*
X152441801Y-109577146D01*
X152354589Y-109526794D01*
X152354588Y-109526793D01*
X152354587Y-109526793D01*
X152252727Y-109499500D01*
X152147273Y-109499500D01*
X152045413Y-109526793D01*
X152045412Y-109526793D01*
X152045410Y-109526794D01*
X152045409Y-109526794D01*
X151954089Y-109579518D01*
X151879518Y-109654089D01*
X151826794Y-109745409D01*
X151826794Y-109745410D01*
X151826793Y-109745412D01*
X151826793Y-109745413D01*
X151799500Y-109847273D01*
X144573705Y-109847273D01*
X144573207Y-109845413D01*
X144569111Y-109838319D01*
X144520481Y-109754089D01*
X144520480Y-109754087D01*
X144445913Y-109679520D01*
X144401865Y-109654089D01*
X144354589Y-109626794D01*
X144354588Y-109626793D01*
X144354587Y-109626793D01*
X144252727Y-109599500D01*
X144147273Y-109599500D01*
X144045413Y-109626793D01*
X144045412Y-109626793D01*
X144045410Y-109626794D01*
X144045409Y-109626794D01*
X143954089Y-109679518D01*
X143879518Y-109754089D01*
X143826794Y-109845409D01*
X143826794Y-109845410D01*
X143826793Y-109845412D01*
X143826793Y-109845413D01*
X143799500Y-109947273D01*
X139158305Y-109947273D01*
X139169500Y-109945500D01*
X141193716Y-109945500D01*
X141193718Y-109945500D01*
X141233809Y-109941551D01*
X141398027Y-109908886D01*
X141436578Y-109897192D01*
X141591268Y-109833117D01*
X141626795Y-109814127D01*
X141766013Y-109721105D01*
X141797154Y-109695548D01*
X141915548Y-109577154D01*
X141941105Y-109546013D01*
X141996074Y-109463745D01*
X142044122Y-109425867D01*
X142105260Y-109423465D01*
X142156134Y-109457457D01*
X142164122Y-109469244D01*
X142179520Y-109495913D01*
X142254087Y-109570480D01*
X142345413Y-109623207D01*
X142447273Y-109650500D01*
X142447275Y-109650500D01*
X142552725Y-109650500D01*
X142552727Y-109650500D01*
X142654587Y-109623207D01*
X142745913Y-109570480D01*
X142820480Y-109495913D01*
X142873207Y-109404587D01*
X142900500Y-109302727D01*
X142900500Y-109197273D01*
X145949500Y-109197273D01*
X145949500Y-109302727D01*
X145972241Y-109387597D01*
X145976794Y-109404589D01*
X145976794Y-109404590D01*
X146029518Y-109495910D01*
X146029520Y-109495913D01*
X146104087Y-109570480D01*
X146195413Y-109623207D01*
X146297273Y-109650500D01*
X146297275Y-109650500D01*
X146402725Y-109650500D01*
X146402727Y-109650500D01*
X146504587Y-109623207D01*
X146595913Y-109570480D01*
X146670480Y-109495913D01*
X146723207Y-109404587D01*
X146750500Y-109302727D01*
X146750500Y-109197273D01*
X146723207Y-109095413D01*
X146694943Y-109046459D01*
X146670481Y-109004089D01*
X146670480Y-109004087D01*
X146595913Y-108929520D01*
X146536001Y-108894930D01*
X146504589Y-108876794D01*
X146504588Y-108876793D01*
X146504587Y-108876793D01*
X146402727Y-108849500D01*
X146297273Y-108849500D01*
X146195413Y-108876793D01*
X146195412Y-108876793D01*
X146195410Y-108876794D01*
X146195409Y-108876794D01*
X146104089Y-108929518D01*
X146029518Y-109004089D01*
X145976794Y-109095409D01*
X145976794Y-109095410D01*
X145976793Y-109095412D01*
X145976793Y-109095413D01*
X145949500Y-109197273D01*
X142900500Y-109197273D01*
X142873207Y-109095413D01*
X142844943Y-109046459D01*
X142820481Y-109004089D01*
X142820480Y-109004087D01*
X142745913Y-108929520D01*
X142686001Y-108894930D01*
X142654589Y-108876794D01*
X142654588Y-108876793D01*
X142654587Y-108876793D01*
X142552727Y-108849500D01*
X142447273Y-108849500D01*
X142345413Y-108876793D01*
X142313998Y-108894930D01*
X142254152Y-108907651D01*
X142198256Y-108882764D01*
X142167663Y-108829776D01*
X142165500Y-108809193D01*
X142165500Y-108806283D01*
X142163555Y-108786535D01*
X142161551Y-108766191D01*
X142128886Y-108601973D01*
X142117192Y-108563422D01*
X142053117Y-108408732D01*
X142053115Y-108408729D01*
X142053113Y-108408723D01*
X142041744Y-108387454D01*
X142034124Y-108373200D01*
X142016800Y-108347273D01*
X151349500Y-108347273D01*
X151349500Y-108452727D01*
X151376793Y-108554587D01*
X151376794Y-108554589D01*
X151376794Y-108554590D01*
X151404151Y-108601973D01*
X151429520Y-108645913D01*
X151504087Y-108720480D01*
X151595413Y-108773207D01*
X151697273Y-108800500D01*
X151697275Y-108800500D01*
X151802725Y-108800500D01*
X151802727Y-108800500D01*
X151904587Y-108773207D01*
X151995913Y-108720480D01*
X152070480Y-108645913D01*
X152123207Y-108554587D01*
X152150500Y-108452727D01*
X152150500Y-108347273D01*
X152123207Y-108245413D01*
X152116603Y-108233975D01*
X152070481Y-108154089D01*
X152070480Y-108154087D01*
X151995913Y-108079520D01*
X151960203Y-108058903D01*
X151904589Y-108026794D01*
X151904588Y-108026793D01*
X151904587Y-108026793D01*
X151802727Y-107999500D01*
X151697273Y-107999500D01*
X151595413Y-108026793D01*
X151595412Y-108026793D01*
X151595410Y-108026794D01*
X151595409Y-108026794D01*
X151504089Y-108079518D01*
X151429518Y-108154089D01*
X151376794Y-108245409D01*
X151376794Y-108245410D01*
X151376793Y-108245412D01*
X151376793Y-108245413D01*
X151349500Y-108347273D01*
X142016800Y-108347273D01*
X141986668Y-108302177D01*
X141941105Y-108233987D01*
X141941102Y-108233983D01*
X141941096Y-108233975D01*
X141915554Y-108202853D01*
X141915552Y-108202851D01*
X141915548Y-108202846D01*
X141797154Y-108084452D01*
X141797148Y-108084447D01*
X141797146Y-108084445D01*
X141766024Y-108058903D01*
X141766016Y-108058897D01*
X141626803Y-107965878D01*
X141626800Y-107965876D01*
X141626795Y-107965873D01*
X141610498Y-107957162D01*
X141591272Y-107946884D01*
X141436578Y-107882808D01*
X141436567Y-107882804D01*
X141398030Y-107871114D01*
X141233804Y-107838448D01*
X141233808Y-107838448D01*
X141200905Y-107835208D01*
X141193718Y-107834500D01*
X141193716Y-107834500D01*
X139169500Y-107834500D01*
X139111309Y-107815593D01*
X139075345Y-107766093D01*
X139070500Y-107735500D01*
X139070500Y-107504500D01*
X139089407Y-107446309D01*
X139138907Y-107410345D01*
X139169500Y-107405500D01*
X141193716Y-107405500D01*
X141193718Y-107405500D01*
X141233809Y-107401551D01*
X141398027Y-107368886D01*
X141436578Y-107357192D01*
X141591268Y-107293117D01*
X141626795Y-107274127D01*
X141766013Y-107181105D01*
X141797154Y-107155548D01*
X141915548Y-107037154D01*
X141941105Y-107006013D01*
X142034127Y-106866795D01*
X142053117Y-106831268D01*
X142117192Y-106676578D01*
X142126081Y-106647273D01*
X142599500Y-106647273D01*
X142599500Y-106752727D01*
X142626793Y-106854587D01*
X142626794Y-106854589D01*
X142626794Y-106854590D01*
X142679518Y-106945910D01*
X142679520Y-106945913D01*
X142754087Y-107020480D01*
X142845413Y-107073207D01*
X142947273Y-107100500D01*
X142947275Y-107100500D01*
X143052725Y-107100500D01*
X143052727Y-107100500D01*
X143064770Y-107097273D01*
X145899500Y-107097273D01*
X145899500Y-107202727D01*
X145926793Y-107304587D01*
X145926794Y-107304589D01*
X145926794Y-107304590D01*
X145963915Y-107368885D01*
X145979520Y-107395913D01*
X146054087Y-107470480D01*
X146145413Y-107523207D01*
X146247273Y-107550500D01*
X146247275Y-107550500D01*
X146352725Y-107550500D01*
X146352727Y-107550500D01*
X146454587Y-107523207D01*
X146545913Y-107470480D01*
X146620480Y-107395913D01*
X146648562Y-107347273D01*
X154199500Y-107347273D01*
X154199500Y-107452727D01*
X154218385Y-107523207D01*
X154226794Y-107554589D01*
X154226794Y-107554590D01*
X154279518Y-107645910D01*
X154279520Y-107645913D01*
X154354087Y-107720480D01*
X154445413Y-107773207D01*
X154547273Y-107800500D01*
X154547275Y-107800500D01*
X154652725Y-107800500D01*
X154652727Y-107800500D01*
X154754587Y-107773207D01*
X154845913Y-107720480D01*
X154920480Y-107645913D01*
X154973207Y-107554587D01*
X155000500Y-107452727D01*
X155000500Y-107347273D01*
X154973207Y-107245413D01*
X154920480Y-107154087D01*
X154845913Y-107079520D01*
X154834975Y-107073205D01*
X154754589Y-107026794D01*
X154754588Y-107026793D01*
X154754587Y-107026793D01*
X154652727Y-106999500D01*
X154547273Y-106999500D01*
X154445413Y-107026793D01*
X154445412Y-107026793D01*
X154445410Y-107026794D01*
X154445409Y-107026794D01*
X154354089Y-107079518D01*
X154279518Y-107154089D01*
X154226794Y-107245409D01*
X154226794Y-107245410D01*
X154226793Y-107245412D01*
X154226793Y-107245413D01*
X154199500Y-107347273D01*
X146648562Y-107347273D01*
X146673207Y-107304587D01*
X146700500Y-107202727D01*
X146700500Y-107097273D01*
X146673207Y-106995413D01*
X146644626Y-106945910D01*
X146620481Y-106904089D01*
X146620480Y-106904087D01*
X146545913Y-106829520D01*
X146454587Y-106776793D01*
X146352727Y-106749500D01*
X146247273Y-106749500D01*
X146145413Y-106776793D01*
X146145412Y-106776793D01*
X146145410Y-106776794D01*
X146145409Y-106776794D01*
X146054089Y-106829518D01*
X145979518Y-106904089D01*
X145926794Y-106995409D01*
X145926794Y-106995410D01*
X145926793Y-106995412D01*
X145926793Y-106995413D01*
X145899500Y-107097273D01*
X143064770Y-107097273D01*
X143154587Y-107073207D01*
X143245913Y-107020480D01*
X143320480Y-106945913D01*
X143373207Y-106854587D01*
X143400500Y-106752727D01*
X143400500Y-106647273D01*
X143373207Y-106545413D01*
X143320480Y-106454087D01*
X143245913Y-106379520D01*
X143202731Y-106354589D01*
X143154589Y-106326794D01*
X143154588Y-106326793D01*
X143154587Y-106326793D01*
X143052727Y-106299500D01*
X142947273Y-106299500D01*
X142845413Y-106326793D01*
X142845412Y-106326793D01*
X142845410Y-106326794D01*
X142845409Y-106326794D01*
X142754089Y-106379518D01*
X142679518Y-106454089D01*
X142626794Y-106545409D01*
X142626794Y-106545410D01*
X142626793Y-106545412D01*
X142626793Y-106545413D01*
X142599500Y-106647273D01*
X142126081Y-106647273D01*
X142128886Y-106638027D01*
X142161551Y-106473809D01*
X142165500Y-106433718D01*
X142165500Y-106266282D01*
X142161551Y-106226191D01*
X142145853Y-106147273D01*
X147799500Y-106147273D01*
X147799500Y-106252727D01*
X147812033Y-106299500D01*
X147826794Y-106354589D01*
X147826794Y-106354590D01*
X147872478Y-106433716D01*
X147879520Y-106445913D01*
X147954087Y-106520480D01*
X148045413Y-106573207D01*
X148147273Y-106600500D01*
X148147275Y-106600500D01*
X148252725Y-106600500D01*
X148252727Y-106600500D01*
X148354587Y-106573207D01*
X148445913Y-106520480D01*
X148520480Y-106445913D01*
X148573207Y-106354587D01*
X148600500Y-106252727D01*
X148600500Y-106147273D01*
X150349500Y-106147273D01*
X150349500Y-106252727D01*
X150362033Y-106299500D01*
X150376794Y-106354589D01*
X150376794Y-106354590D01*
X150422478Y-106433716D01*
X150429520Y-106445913D01*
X150504087Y-106520480D01*
X150595413Y-106573207D01*
X150697273Y-106600500D01*
X150697275Y-106600500D01*
X150802725Y-106600500D01*
X150802727Y-106600500D01*
X150904587Y-106573207D01*
X150995913Y-106520480D01*
X151070480Y-106445913D01*
X151123207Y-106354587D01*
X151150500Y-106252727D01*
X151150500Y-106147273D01*
X151123207Y-106045413D01*
X151122149Y-106043581D01*
X151070481Y-105954089D01*
X151070480Y-105954087D01*
X150995913Y-105879520D01*
X150952731Y-105854589D01*
X150904589Y-105826794D01*
X150904588Y-105826793D01*
X150904587Y-105826793D01*
X150802727Y-105799500D01*
X150697273Y-105799500D01*
X150595413Y-105826793D01*
X150595412Y-105826793D01*
X150595410Y-105826794D01*
X150595409Y-105826794D01*
X150504089Y-105879518D01*
X150429518Y-105954089D01*
X150376794Y-106045409D01*
X150376794Y-106045410D01*
X150376793Y-106045412D01*
X150376793Y-106045413D01*
X150349500Y-106147273D01*
X148600500Y-106147273D01*
X148573207Y-106045413D01*
X148572149Y-106043581D01*
X148520481Y-105954089D01*
X148520480Y-105954087D01*
X148445913Y-105879520D01*
X148402731Y-105854589D01*
X148354589Y-105826794D01*
X148354588Y-105826793D01*
X148354587Y-105826793D01*
X148252727Y-105799500D01*
X148147273Y-105799500D01*
X148045413Y-105826793D01*
X148045412Y-105826793D01*
X148045410Y-105826794D01*
X148045409Y-105826794D01*
X147954089Y-105879518D01*
X147879518Y-105954089D01*
X147826794Y-106045409D01*
X147826794Y-106045410D01*
X147826793Y-106045412D01*
X147826793Y-106045413D01*
X147799500Y-106147273D01*
X142145853Y-106147273D01*
X142128886Y-106061973D01*
X142128885Y-106061972D01*
X142128885Y-106061968D01*
X142117195Y-106023432D01*
X142117192Y-106023422D01*
X142053117Y-105868732D01*
X142053115Y-105868727D01*
X142044388Y-105852402D01*
X142034127Y-105833205D01*
X141941105Y-105693987D01*
X141941103Y-105693984D01*
X141941096Y-105693975D01*
X141915554Y-105662853D01*
X141915552Y-105662851D01*
X141915548Y-105662846D01*
X141899975Y-105647273D01*
X149399500Y-105647273D01*
X149399500Y-105752727D01*
X149421064Y-105833205D01*
X149426794Y-105854589D01*
X149426794Y-105854590D01*
X149479518Y-105945910D01*
X149479520Y-105945913D01*
X149554087Y-106020480D01*
X149645413Y-106073207D01*
X149747273Y-106100500D01*
X149747275Y-106100500D01*
X149852725Y-106100500D01*
X149852727Y-106100500D01*
X149954587Y-106073207D01*
X150045913Y-106020480D01*
X150120480Y-105945913D01*
X150173207Y-105854587D01*
X150200500Y-105752727D01*
X150200500Y-105647273D01*
X150173207Y-105545413D01*
X150166629Y-105534020D01*
X150120481Y-105454089D01*
X150120480Y-105454087D01*
X150045913Y-105379520D01*
X149977235Y-105339869D01*
X149954589Y-105326794D01*
X149954588Y-105326793D01*
X149954587Y-105326793D01*
X149852727Y-105299500D01*
X149747273Y-105299500D01*
X149645413Y-105326793D01*
X149645412Y-105326793D01*
X149645410Y-105326794D01*
X149645409Y-105326794D01*
X149554089Y-105379518D01*
X149479518Y-105454089D01*
X149426794Y-105545409D01*
X149426794Y-105545410D01*
X149426793Y-105545412D01*
X149426793Y-105545413D01*
X149399500Y-105647273D01*
X141899975Y-105647273D01*
X141797154Y-105544452D01*
X141797148Y-105544447D01*
X141797146Y-105544445D01*
X141766024Y-105518903D01*
X141766016Y-105518897D01*
X141626803Y-105425878D01*
X141626800Y-105425876D01*
X141626795Y-105425873D01*
X141610498Y-105417162D01*
X141591272Y-105406884D01*
X141436578Y-105342808D01*
X141436567Y-105342804D01*
X141398030Y-105331114D01*
X141233804Y-105298448D01*
X141233808Y-105298448D01*
X141200905Y-105295208D01*
X141193718Y-105294500D01*
X141193716Y-105294500D01*
X139169500Y-105294500D01*
X139111309Y-105275593D01*
X139075345Y-105226093D01*
X139070500Y-105195500D01*
X139070500Y-104964499D01*
X139089407Y-104906308D01*
X139138907Y-104870344D01*
X139169500Y-104865499D01*
X141193716Y-104865499D01*
X141193718Y-104865499D01*
X141233809Y-104861550D01*
X141398027Y-104828885D01*
X141436578Y-104817191D01*
X141591268Y-104753116D01*
X141626795Y-104734126D01*
X141766013Y-104641104D01*
X141797154Y-104615547D01*
X141915548Y-104497153D01*
X141941105Y-104466012D01*
X142034127Y-104326794D01*
X142053117Y-104291267D01*
X142117192Y-104136577D01*
X142128886Y-104098026D01*
X142161551Y-103933808D01*
X142165500Y-103893717D01*
X142165500Y-103726281D01*
X142161551Y-103686190D01*
X142128886Y-103521972D01*
X142117192Y-103483421D01*
X142053117Y-103328731D01*
X142053115Y-103328726D01*
X142044389Y-103312402D01*
X142034127Y-103293204D01*
X141941105Y-103153986D01*
X141941102Y-103153982D01*
X141941096Y-103153974D01*
X141915554Y-103122852D01*
X141915552Y-103122850D01*
X141915548Y-103122845D01*
X141797154Y-103004451D01*
X141797148Y-103004446D01*
X141797146Y-103004444D01*
X141766024Y-102978902D01*
X141766016Y-102978896D01*
X141757340Y-102973099D01*
X141643858Y-102897273D01*
X147849500Y-102897273D01*
X147849500Y-103002727D01*
X147876793Y-103104586D01*
X147876794Y-103104589D01*
X147876794Y-103104590D01*
X147905311Y-103153982D01*
X147929520Y-103195913D01*
X148004087Y-103270480D01*
X148095413Y-103323207D01*
X148197273Y-103350500D01*
X148197275Y-103350500D01*
X148302725Y-103350500D01*
X148302727Y-103350500D01*
X148404587Y-103323207D01*
X148495913Y-103270480D01*
X148519120Y-103247273D01*
X152699500Y-103247273D01*
X152699500Y-103352727D01*
X152726793Y-103454587D01*
X152726794Y-103454589D01*
X152726794Y-103454590D01*
X152779518Y-103545910D01*
X152779520Y-103545913D01*
X152854087Y-103620480D01*
X152945413Y-103673207D01*
X153047273Y-103700500D01*
X153047275Y-103700500D01*
X153152725Y-103700500D01*
X153152727Y-103700500D01*
X153254587Y-103673207D01*
X153345913Y-103620480D01*
X153420480Y-103545913D01*
X153473207Y-103454587D01*
X153500500Y-103352727D01*
X153500500Y-103247273D01*
X153473207Y-103145413D01*
X153460181Y-103122852D01*
X153420481Y-103054089D01*
X153420480Y-103054087D01*
X153345913Y-102979520D01*
X153344832Y-102978896D01*
X153254589Y-102926794D01*
X153254588Y-102926793D01*
X153254587Y-102926793D01*
X153152727Y-102899500D01*
X153047273Y-102899500D01*
X152945413Y-102926793D01*
X152945412Y-102926793D01*
X152945410Y-102926794D01*
X152945409Y-102926794D01*
X152854089Y-102979518D01*
X152779518Y-103054089D01*
X152726794Y-103145409D01*
X152726794Y-103145410D01*
X152726793Y-103145412D01*
X152726793Y-103145413D01*
X152699500Y-103247273D01*
X148519120Y-103247273D01*
X148570480Y-103195913D01*
X148623207Y-103104587D01*
X148650500Y-103002727D01*
X148650500Y-102897273D01*
X148623207Y-102795413D01*
X148620724Y-102791113D01*
X148570481Y-102704089D01*
X148570480Y-102704087D01*
X148495913Y-102629520D01*
X148404587Y-102576793D01*
X148302727Y-102549500D01*
X148197273Y-102549500D01*
X148095413Y-102576793D01*
X148095412Y-102576793D01*
X148095410Y-102576794D01*
X148095409Y-102576794D01*
X148004089Y-102629518D01*
X147929518Y-102704089D01*
X147876794Y-102795409D01*
X147876794Y-102795410D01*
X147876793Y-102795412D01*
X147876793Y-102795413D01*
X147849500Y-102897273D01*
X141643858Y-102897273D01*
X141626803Y-102885877D01*
X141626800Y-102885875D01*
X141626795Y-102885872D01*
X141610498Y-102877161D01*
X141591272Y-102866883D01*
X141436578Y-102802807D01*
X141436567Y-102802803D01*
X141398030Y-102791113D01*
X141233804Y-102758447D01*
X141233808Y-102758447D01*
X141200905Y-102755207D01*
X141193718Y-102754499D01*
X141193716Y-102754499D01*
X139169500Y-102754499D01*
X139111309Y-102735592D01*
X139075345Y-102686092D01*
X139070500Y-102655499D01*
X139070500Y-102424500D01*
X139089407Y-102366309D01*
X139138907Y-102330345D01*
X139169500Y-102325500D01*
X141193716Y-102325500D01*
X141193718Y-102325500D01*
X141233809Y-102321551D01*
X141398027Y-102288886D01*
X141436578Y-102277192D01*
X141591268Y-102213117D01*
X141626795Y-102194127D01*
X141766013Y-102101105D01*
X141797154Y-102075548D01*
X141915548Y-101957154D01*
X141941105Y-101926013D01*
X142034127Y-101786795D01*
X142053117Y-101751268D01*
X142117192Y-101596578D01*
X142128886Y-101558027D01*
X142161551Y-101393809D01*
X142165500Y-101353718D01*
X142165500Y-101247273D01*
X146399500Y-101247273D01*
X146399500Y-101352727D01*
X146424335Y-101445413D01*
X146426794Y-101454589D01*
X146426794Y-101454590D01*
X146469268Y-101528156D01*
X146479520Y-101545913D01*
X146554087Y-101620480D01*
X146645413Y-101673207D01*
X146747273Y-101700500D01*
X146747275Y-101700500D01*
X146852725Y-101700500D01*
X146852727Y-101700500D01*
X146864770Y-101697273D01*
X149949500Y-101697273D01*
X149949500Y-101802727D01*
X149975000Y-101897895D01*
X149976794Y-101904589D01*
X149976794Y-101904590D01*
X150022422Y-101983619D01*
X150029520Y-101995913D01*
X150104087Y-102070480D01*
X150195413Y-102123207D01*
X150297273Y-102150500D01*
X150297275Y-102150500D01*
X150402725Y-102150500D01*
X150402727Y-102150500D01*
X150504587Y-102123207D01*
X150595913Y-102070480D01*
X150654998Y-102011394D01*
X150709513Y-101983619D01*
X150769945Y-101993190D01*
X150795000Y-102011393D01*
X150854087Y-102070480D01*
X150945413Y-102123207D01*
X151047273Y-102150500D01*
X151047275Y-102150500D01*
X151152725Y-102150500D01*
X151152727Y-102150500D01*
X151254587Y-102123207D01*
X151345913Y-102070480D01*
X151420480Y-101995913D01*
X151473207Y-101904587D01*
X151500500Y-101802727D01*
X151500500Y-101697273D01*
X151473207Y-101595413D01*
X151462241Y-101576420D01*
X151420481Y-101504089D01*
X151420480Y-101504087D01*
X151345913Y-101429520D01*
X151341191Y-101426794D01*
X151254589Y-101376794D01*
X151254588Y-101376793D01*
X151254587Y-101376793D01*
X151152727Y-101349500D01*
X151047273Y-101349500D01*
X150945413Y-101376793D01*
X150945412Y-101376793D01*
X150945410Y-101376794D01*
X150945409Y-101376794D01*
X150854089Y-101429518D01*
X150854087Y-101429519D01*
X150854087Y-101429520D01*
X150795001Y-101488605D01*
X150740487Y-101516381D01*
X150680055Y-101506810D01*
X150654999Y-101488606D01*
X150595913Y-101429520D01*
X150591191Y-101426794D01*
X150504589Y-101376794D01*
X150504588Y-101376793D01*
X150504587Y-101376793D01*
X150402727Y-101349500D01*
X150297273Y-101349500D01*
X150195413Y-101376793D01*
X150195412Y-101376793D01*
X150195410Y-101376794D01*
X150195409Y-101376794D01*
X150104089Y-101429518D01*
X150029518Y-101504089D01*
X149976794Y-101595409D01*
X149976794Y-101595410D01*
X149976793Y-101595412D01*
X149976793Y-101595413D01*
X149949500Y-101697273D01*
X146864770Y-101697273D01*
X146954587Y-101673207D01*
X147045913Y-101620480D01*
X147120480Y-101545913D01*
X147173207Y-101454587D01*
X147200500Y-101352727D01*
X147200500Y-101247273D01*
X147173207Y-101145413D01*
X147173059Y-101145157D01*
X147120481Y-101054089D01*
X147120480Y-101054087D01*
X147045913Y-100979520D01*
X147002731Y-100954589D01*
X146954589Y-100926794D01*
X146954588Y-100926793D01*
X146954587Y-100926793D01*
X146852727Y-100899500D01*
X146747273Y-100899500D01*
X146645413Y-100926793D01*
X146645412Y-100926793D01*
X146645410Y-100926794D01*
X146645409Y-100926794D01*
X146554089Y-100979518D01*
X146479518Y-101054089D01*
X146426794Y-101145409D01*
X146426794Y-101145410D01*
X146426793Y-101145412D01*
X146426793Y-101145413D01*
X146399500Y-101247273D01*
X142165500Y-101247273D01*
X142165500Y-101186282D01*
X142161551Y-101146191D01*
X142128886Y-100981973D01*
X142128141Y-100979518D01*
X142117195Y-100943432D01*
X142117192Y-100943422D01*
X142053117Y-100788732D01*
X142053115Y-100788727D01*
X142044388Y-100772402D01*
X142034127Y-100753205D01*
X142029170Y-100745787D01*
X142029170Y-100745785D01*
X141996755Y-100697273D01*
X144499500Y-100697273D01*
X144499500Y-100802727D01*
X144519346Y-100876793D01*
X144526794Y-100904589D01*
X144526794Y-100904590D01*
X144576847Y-100991284D01*
X144579520Y-100995913D01*
X144654087Y-101070480D01*
X144745413Y-101123207D01*
X144847273Y-101150500D01*
X144847275Y-101150500D01*
X144952725Y-101150500D01*
X144952727Y-101150500D01*
X145054587Y-101123207D01*
X145145913Y-101070480D01*
X145220480Y-100995913D01*
X145273207Y-100904587D01*
X145300500Y-100802727D01*
X145300500Y-100747273D01*
X147849500Y-100747273D01*
X147849500Y-100852727D01*
X147874335Y-100945413D01*
X147876794Y-100954589D01*
X147876794Y-100954590D01*
X147929518Y-101045910D01*
X147929520Y-101045913D01*
X148004087Y-101120480D01*
X148095413Y-101173207D01*
X148197273Y-101200500D01*
X148197275Y-101200500D01*
X148302725Y-101200500D01*
X148302727Y-101200500D01*
X148314770Y-101197273D01*
X151799500Y-101197273D01*
X151799500Y-101302727D01*
X151825430Y-101399500D01*
X151826794Y-101404589D01*
X151826794Y-101404590D01*
X151875300Y-101488604D01*
X151879520Y-101495913D01*
X151954087Y-101570480D01*
X151979716Y-101585277D01*
X152045409Y-101623205D01*
X152045410Y-101623205D01*
X152045413Y-101623207D01*
X152126164Y-101644844D01*
X152177478Y-101678167D01*
X152199405Y-101735288D01*
X152199192Y-101740784D01*
X152199500Y-101740784D01*
X152199500Y-101747273D01*
X152199500Y-101852727D01*
X152226793Y-101954587D01*
X152226794Y-101954589D01*
X152226794Y-101954590D01*
X152279518Y-102045910D01*
X152279520Y-102045913D01*
X152354087Y-102120480D01*
X152445413Y-102173207D01*
X152547273Y-102200500D01*
X152547275Y-102200500D01*
X152652725Y-102200500D01*
X152652727Y-102200500D01*
X152754587Y-102173207D01*
X152845913Y-102120480D01*
X152920480Y-102045913D01*
X152973207Y-101954587D01*
X153000500Y-101852727D01*
X153000500Y-101747273D01*
X152973207Y-101645413D01*
X152960386Y-101623207D01*
X152920481Y-101554089D01*
X152920480Y-101554087D01*
X152845913Y-101479520D01*
X152834975Y-101473205D01*
X152754589Y-101426794D01*
X152754588Y-101426793D01*
X152754587Y-101426793D01*
X152673834Y-101405155D01*
X152622521Y-101371832D01*
X152600594Y-101314710D01*
X152600816Y-101309216D01*
X152600500Y-101309216D01*
X152600500Y-101197274D01*
X152597555Y-101186282D01*
X152573207Y-101095413D01*
X152549347Y-101054087D01*
X152520481Y-101004089D01*
X152520480Y-101004087D01*
X152445913Y-100929520D01*
X152441191Y-100926794D01*
X152354589Y-100876794D01*
X152354588Y-100876793D01*
X152354587Y-100876793D01*
X152252727Y-100849500D01*
X152147273Y-100849500D01*
X152045413Y-100876793D01*
X152045412Y-100876793D01*
X152045410Y-100876794D01*
X152045409Y-100876794D01*
X151954089Y-100929518D01*
X151879518Y-101004089D01*
X151826794Y-101095409D01*
X151826794Y-101095410D01*
X151826793Y-101095412D01*
X151826793Y-101095413D01*
X151799500Y-101197273D01*
X148314770Y-101197273D01*
X148404587Y-101173207D01*
X148495913Y-101120480D01*
X148570480Y-101045913D01*
X148623207Y-100954587D01*
X148650500Y-100852727D01*
X148650500Y-100747273D01*
X148637103Y-100697273D01*
X152949500Y-100697273D01*
X152949500Y-100802727D01*
X152969346Y-100876793D01*
X152976794Y-100904589D01*
X152976794Y-100904590D01*
X153026847Y-100991284D01*
X153029520Y-100995913D01*
X153104087Y-101070480D01*
X153195413Y-101123207D01*
X153297273Y-101150500D01*
X153297275Y-101150500D01*
X153402725Y-101150500D01*
X153402727Y-101150500D01*
X153504587Y-101123207D01*
X153595913Y-101070480D01*
X153619120Y-101047273D01*
X155299500Y-101047273D01*
X155299500Y-101152727D01*
X155324834Y-101247274D01*
X155326794Y-101254589D01*
X155326794Y-101254590D01*
X155358333Y-101309216D01*
X155379520Y-101345913D01*
X155454087Y-101420480D01*
X155465023Y-101426794D01*
X155545409Y-101473205D01*
X155545410Y-101473205D01*
X155545413Y-101473207D01*
X155626123Y-101494833D01*
X155677437Y-101528156D01*
X155699364Y-101585277D01*
X155699500Y-101590459D01*
X155699500Y-101652727D01*
X155724834Y-101747274D01*
X155726794Y-101754589D01*
X155726794Y-101754590D01*
X155779518Y-101845910D01*
X155779520Y-101845913D01*
X155854087Y-101920480D01*
X155945413Y-101973207D01*
X156047273Y-102000500D01*
X156047275Y-102000500D01*
X156152725Y-102000500D01*
X156152727Y-102000500D01*
X156254587Y-101973207D01*
X156345913Y-101920480D01*
X156420480Y-101845913D01*
X156473207Y-101754587D01*
X156500500Y-101652727D01*
X156500500Y-101547273D01*
X156473207Y-101445413D01*
X156462457Y-101426794D01*
X156420481Y-101354089D01*
X156420480Y-101354087D01*
X156345913Y-101279520D01*
X156345910Y-101279518D01*
X156254590Y-101226794D01*
X156254588Y-101226793D01*
X156173877Y-101205167D01*
X156122562Y-101171842D01*
X156100636Y-101114721D01*
X156100500Y-101109540D01*
X156100500Y-101047274D01*
X156100500Y-101047273D01*
X156073207Y-100945413D01*
X156072063Y-100943432D01*
X156020481Y-100854089D01*
X156020480Y-100854087D01*
X155945913Y-100779520D01*
X155933584Y-100772402D01*
X155854589Y-100726794D01*
X155854588Y-100726793D01*
X155854587Y-100726793D01*
X155752727Y-100699500D01*
X155647273Y-100699500D01*
X155545413Y-100726793D01*
X155545412Y-100726793D01*
X155545410Y-100726794D01*
X155545409Y-100726794D01*
X155454089Y-100779518D01*
X155379518Y-100854089D01*
X155326794Y-100945409D01*
X155326794Y-100945410D01*
X155326793Y-100945412D01*
X155326793Y-100945413D01*
X155299500Y-101047273D01*
X153619120Y-101047273D01*
X153670480Y-100995913D01*
X153723207Y-100904587D01*
X153750500Y-100802727D01*
X153750500Y-100697273D01*
X153723207Y-100595413D01*
X153715955Y-100582853D01*
X153670481Y-100504089D01*
X153670480Y-100504087D01*
X153595913Y-100429520D01*
X153591191Y-100426794D01*
X153504589Y-100376794D01*
X153504588Y-100376793D01*
X153504587Y-100376793D01*
X153402727Y-100349500D01*
X153297273Y-100349500D01*
X153195413Y-100376793D01*
X153195412Y-100376793D01*
X153195410Y-100376794D01*
X153195409Y-100376794D01*
X153104089Y-100429518D01*
X153029518Y-100504089D01*
X152976794Y-100595409D01*
X152976794Y-100595410D01*
X152976793Y-100595412D01*
X152976793Y-100595413D01*
X152949500Y-100697273D01*
X148637103Y-100697273D01*
X148623207Y-100645413D01*
X148570480Y-100554087D01*
X148495913Y-100479520D01*
X148484975Y-100473205D01*
X148404589Y-100426794D01*
X148404588Y-100426793D01*
X148404587Y-100426793D01*
X148302727Y-100399500D01*
X148197273Y-100399500D01*
X148095413Y-100426793D01*
X148095412Y-100426793D01*
X148095410Y-100426794D01*
X148095409Y-100426794D01*
X148004089Y-100479518D01*
X147929518Y-100554089D01*
X147876794Y-100645409D01*
X147876794Y-100645410D01*
X147876793Y-100645412D01*
X147876793Y-100645413D01*
X147849500Y-100747273D01*
X145300500Y-100747273D01*
X145300500Y-100697273D01*
X145273207Y-100595413D01*
X145265955Y-100582853D01*
X145220481Y-100504089D01*
X145220480Y-100504087D01*
X145145913Y-100429520D01*
X145141191Y-100426794D01*
X145054589Y-100376794D01*
X145054588Y-100376793D01*
X145054587Y-100376793D01*
X144952727Y-100349500D01*
X144847273Y-100349500D01*
X144745413Y-100376793D01*
X144745412Y-100376793D01*
X144745410Y-100376794D01*
X144745409Y-100376794D01*
X144654089Y-100429518D01*
X144579518Y-100504089D01*
X144526794Y-100595409D01*
X144526794Y-100595410D01*
X144526793Y-100595412D01*
X144526793Y-100595413D01*
X144499500Y-100697273D01*
X141996755Y-100697273D01*
X141941109Y-100613992D01*
X141941096Y-100613975D01*
X141915554Y-100582853D01*
X141915552Y-100582851D01*
X141915548Y-100582846D01*
X141797154Y-100464452D01*
X141797148Y-100464447D01*
X141797146Y-100464445D01*
X141766024Y-100438903D01*
X141766016Y-100438897D01*
X141626803Y-100345878D01*
X141626800Y-100345876D01*
X141626795Y-100345873D01*
X141610498Y-100337162D01*
X141591272Y-100326884D01*
X141436578Y-100262808D01*
X141436567Y-100262804D01*
X141398030Y-100251114D01*
X141233804Y-100218448D01*
X141233808Y-100218448D01*
X141200905Y-100215208D01*
X141193718Y-100214500D01*
X141193716Y-100214500D01*
X139169500Y-100214500D01*
X139111309Y-100195593D01*
X139075345Y-100146093D01*
X139070500Y-100115500D01*
X139070500Y-99884500D01*
X139089407Y-99826309D01*
X139138907Y-99790345D01*
X139169500Y-99785500D01*
X141193716Y-99785500D01*
X141193718Y-99785500D01*
X141233809Y-99781551D01*
X141398027Y-99748886D01*
X141436578Y-99737192D01*
X141591268Y-99673117D01*
X141626795Y-99654127D01*
X141637053Y-99647273D01*
X145349500Y-99647273D01*
X145349500Y-99752727D01*
X145374469Y-99845913D01*
X145376794Y-99854589D01*
X145376794Y-99854590D01*
X145429231Y-99945413D01*
X145429520Y-99945913D01*
X145504087Y-100020480D01*
X145595413Y-100073207D01*
X145697273Y-100100500D01*
X145697275Y-100100500D01*
X145802725Y-100100500D01*
X145802727Y-100100500D01*
X145904587Y-100073207D01*
X145949506Y-100047273D01*
X150799500Y-100047273D01*
X150799500Y-100152727D01*
X150826793Y-100254587D01*
X150826794Y-100254589D01*
X150826794Y-100254590D01*
X150875562Y-100339058D01*
X150879520Y-100345913D01*
X150954087Y-100420480D01*
X151045413Y-100473207D01*
X151147273Y-100500500D01*
X151147275Y-100500500D01*
X151252725Y-100500500D01*
X151252727Y-100500500D01*
X151354587Y-100473207D01*
X151445913Y-100420480D01*
X151520480Y-100345913D01*
X151573207Y-100254587D01*
X151600500Y-100152727D01*
X151600500Y-100047273D01*
X151573207Y-99945413D01*
X151520480Y-99854087D01*
X151445913Y-99779520D01*
X151434975Y-99773205D01*
X151354589Y-99726794D01*
X151354588Y-99726793D01*
X151354587Y-99726793D01*
X151252727Y-99699500D01*
X151147273Y-99699500D01*
X151045413Y-99726793D01*
X151045412Y-99726793D01*
X151045410Y-99726794D01*
X151045409Y-99726794D01*
X150954089Y-99779518D01*
X150879518Y-99854089D01*
X150826794Y-99945409D01*
X150826794Y-99945410D01*
X150826793Y-99945412D01*
X150826793Y-99945413D01*
X150799500Y-100047273D01*
X145949506Y-100047273D01*
X145995913Y-100020480D01*
X146070480Y-99945913D01*
X146123207Y-99854587D01*
X146150500Y-99752727D01*
X146150500Y-99647273D01*
X146123705Y-99547273D01*
X146399500Y-99547273D01*
X146399500Y-99652727D01*
X146426295Y-99752727D01*
X146426794Y-99754589D01*
X146426794Y-99754590D01*
X146479518Y-99845910D01*
X146479520Y-99845913D01*
X146554087Y-99920480D01*
X146645413Y-99973207D01*
X146747273Y-100000500D01*
X146747275Y-100000500D01*
X146852725Y-100000500D01*
X146852727Y-100000500D01*
X146954587Y-99973207D01*
X147045913Y-99920480D01*
X147120480Y-99845913D01*
X147173207Y-99754587D01*
X147200500Y-99652727D01*
X147200500Y-99547273D01*
X147173207Y-99445413D01*
X147120480Y-99354087D01*
X147113666Y-99347273D01*
X153499500Y-99347273D01*
X153499500Y-99452727D01*
X153524834Y-99547274D01*
X153526794Y-99554589D01*
X153526794Y-99554590D01*
X153579518Y-99645910D01*
X153579520Y-99645913D01*
X153654087Y-99720480D01*
X153745413Y-99773207D01*
X153847273Y-99800500D01*
X153847275Y-99800500D01*
X153952725Y-99800500D01*
X153952727Y-99800500D01*
X154054587Y-99773207D01*
X154145913Y-99720480D01*
X154220480Y-99645913D01*
X154250786Y-99593421D01*
X154296252Y-99552481D01*
X154357103Y-99546084D01*
X154406522Y-99572915D01*
X154454087Y-99620480D01*
X154545413Y-99673207D01*
X154647273Y-99700500D01*
X154647275Y-99700500D01*
X154752725Y-99700500D01*
X154752727Y-99700500D01*
X154854587Y-99673207D01*
X154945913Y-99620480D01*
X155020480Y-99545913D01*
X155073207Y-99454587D01*
X155100500Y-99352727D01*
X155100500Y-99247273D01*
X155087103Y-99197273D01*
X156399500Y-99197273D01*
X156399500Y-99302727D01*
X156426793Y-99404587D01*
X156426794Y-99404589D01*
X156426794Y-99404590D01*
X156455662Y-99454590D01*
X156479520Y-99495913D01*
X156554087Y-99570480D01*
X156645413Y-99623207D01*
X156747273Y-99650500D01*
X156747275Y-99650500D01*
X156852725Y-99650500D01*
X156852727Y-99650500D01*
X156954587Y-99623207D01*
X157045913Y-99570480D01*
X157120480Y-99495913D01*
X157173207Y-99404587D01*
X157200500Y-99302727D01*
X157200500Y-99197273D01*
X157173207Y-99095413D01*
X157149347Y-99054087D01*
X157120481Y-99004089D01*
X157120480Y-99004087D01*
X157045913Y-98929520D01*
X157041191Y-98926794D01*
X156954589Y-98876794D01*
X156954588Y-98876793D01*
X156954587Y-98876793D01*
X156852727Y-98849500D01*
X156747273Y-98849500D01*
X156645413Y-98876793D01*
X156645412Y-98876793D01*
X156645410Y-98876794D01*
X156645409Y-98876794D01*
X156554089Y-98929518D01*
X156479518Y-99004089D01*
X156426794Y-99095409D01*
X156426794Y-99095410D01*
X156426793Y-99095412D01*
X156426793Y-99095413D01*
X156399500Y-99197273D01*
X155087103Y-99197273D01*
X155073207Y-99145413D01*
X155020480Y-99054087D01*
X154945913Y-98979520D01*
X154859310Y-98929520D01*
X154854589Y-98926794D01*
X154854588Y-98926793D01*
X154854587Y-98926793D01*
X154752727Y-98899500D01*
X154647273Y-98899500D01*
X154545413Y-98926793D01*
X154545412Y-98926793D01*
X154545410Y-98926794D01*
X154545409Y-98926794D01*
X154454089Y-98979518D01*
X154379518Y-99054089D01*
X154349214Y-99106578D01*
X154303745Y-99147519D01*
X154242895Y-99153915D01*
X154193476Y-99127083D01*
X154145913Y-99079520D01*
X154106176Y-99056578D01*
X154054589Y-99026794D01*
X154054588Y-99026793D01*
X154054587Y-99026793D01*
X153952727Y-98999500D01*
X153847273Y-98999500D01*
X153745413Y-99026793D01*
X153745412Y-99026793D01*
X153745410Y-99026794D01*
X153745409Y-99026794D01*
X153654089Y-99079518D01*
X153579518Y-99154089D01*
X153526794Y-99245409D01*
X153526794Y-99245410D01*
X153526793Y-99245412D01*
X153526793Y-99245413D01*
X153499500Y-99347273D01*
X147113666Y-99347273D01*
X147045913Y-99279520D01*
X146990061Y-99247274D01*
X146954589Y-99226794D01*
X146954588Y-99226793D01*
X146954587Y-99226793D01*
X146852727Y-99199500D01*
X146747273Y-99199500D01*
X146645413Y-99226793D01*
X146645412Y-99226793D01*
X146645410Y-99226794D01*
X146645409Y-99226794D01*
X146554089Y-99279518D01*
X146479518Y-99354089D01*
X146426794Y-99445409D01*
X146426794Y-99445410D01*
X146426793Y-99445412D01*
X146426793Y-99445413D01*
X146399500Y-99547273D01*
X146123705Y-99547273D01*
X146123207Y-99545413D01*
X146117511Y-99535548D01*
X146070481Y-99454089D01*
X146070480Y-99454087D01*
X145995913Y-99379520D01*
X145951865Y-99354089D01*
X145904589Y-99326794D01*
X145904588Y-99326793D01*
X145904587Y-99326793D01*
X145802727Y-99299500D01*
X145697273Y-99299500D01*
X145595413Y-99326793D01*
X145595412Y-99326793D01*
X145595410Y-99326794D01*
X145595409Y-99326794D01*
X145504089Y-99379518D01*
X145429518Y-99454089D01*
X145376794Y-99545409D01*
X145376794Y-99545410D01*
X145376793Y-99545412D01*
X145376793Y-99545413D01*
X145349500Y-99647273D01*
X141637053Y-99647273D01*
X141766013Y-99561105D01*
X141797154Y-99535548D01*
X141915548Y-99417154D01*
X141941105Y-99386013D01*
X142034127Y-99246795D01*
X142053117Y-99211268D01*
X142117192Y-99056578D01*
X142128886Y-99018027D01*
X142161551Y-98853809D01*
X142165500Y-98813718D01*
X142165500Y-98646282D01*
X142161551Y-98606191D01*
X142129940Y-98447273D01*
X145999500Y-98447273D01*
X145999500Y-98552727D01*
X146019276Y-98626532D01*
X146026794Y-98654589D01*
X146026794Y-98654590D01*
X146079518Y-98745910D01*
X146079520Y-98745913D01*
X146154087Y-98820480D01*
X146245413Y-98873207D01*
X146347273Y-98900500D01*
X146347275Y-98900500D01*
X146452725Y-98900500D01*
X146452727Y-98900500D01*
X146554587Y-98873207D01*
X146645913Y-98820480D01*
X146720480Y-98745913D01*
X146773207Y-98654587D01*
X146800500Y-98552727D01*
X146800500Y-98447273D01*
X146773207Y-98345413D01*
X146720480Y-98254087D01*
X146645913Y-98179520D01*
X146634975Y-98173205D01*
X146554589Y-98126794D01*
X146554588Y-98126793D01*
X146554587Y-98126793D01*
X146452727Y-98099500D01*
X146347273Y-98099500D01*
X146245413Y-98126793D01*
X146245412Y-98126793D01*
X146245410Y-98126794D01*
X146245409Y-98126794D01*
X146154089Y-98179518D01*
X146079518Y-98254089D01*
X146026794Y-98345409D01*
X146026794Y-98345410D01*
X146026793Y-98345412D01*
X146026793Y-98345413D01*
X145999500Y-98447273D01*
X142129940Y-98447273D01*
X142128886Y-98441973D01*
X142117192Y-98403422D01*
X142053117Y-98248732D01*
X142053115Y-98248727D01*
X142044388Y-98232402D01*
X142034127Y-98213205D01*
X141941105Y-98073987D01*
X141941102Y-98073983D01*
X141941096Y-98073975D01*
X141915554Y-98042853D01*
X141915552Y-98042851D01*
X141915548Y-98042846D01*
X141797154Y-97924452D01*
X141797148Y-97924447D01*
X141797146Y-97924445D01*
X141766024Y-97898903D01*
X141766016Y-97898897D01*
X141652576Y-97823099D01*
X141626803Y-97805878D01*
X141626800Y-97805876D01*
X141626795Y-97805873D01*
X141610498Y-97797162D01*
X141591272Y-97786884D01*
X141495642Y-97747273D01*
X147349500Y-97747273D01*
X147349500Y-97852727D01*
X147376793Y-97954587D01*
X147376794Y-97954589D01*
X147376794Y-97954590D01*
X147427749Y-98042846D01*
X147429520Y-98045913D01*
X147504087Y-98120480D01*
X147595413Y-98173207D01*
X147697273Y-98200500D01*
X147697275Y-98200500D01*
X147802725Y-98200500D01*
X147802727Y-98200500D01*
X147904587Y-98173207D01*
X147995913Y-98120480D01*
X148070480Y-98045913D01*
X148123207Y-97954587D01*
X148150500Y-97852727D01*
X148150500Y-97747273D01*
X148123207Y-97645413D01*
X148116439Y-97633691D01*
X148070481Y-97554089D01*
X148070480Y-97554087D01*
X147995913Y-97479520D01*
X147904587Y-97426793D01*
X147802727Y-97399500D01*
X147697273Y-97399500D01*
X147595413Y-97426793D01*
X147595412Y-97426793D01*
X147595410Y-97426794D01*
X147595409Y-97426794D01*
X147504089Y-97479518D01*
X147429518Y-97554089D01*
X147376794Y-97645409D01*
X147376794Y-97645410D01*
X147376793Y-97645412D01*
X147376793Y-97645413D01*
X147349500Y-97747273D01*
X141495642Y-97747273D01*
X141436578Y-97722808D01*
X141436567Y-97722804D01*
X141398030Y-97711114D01*
X141233804Y-97678448D01*
X141233808Y-97678448D01*
X141200905Y-97675208D01*
X141193718Y-97674500D01*
X141193716Y-97674500D01*
X139169500Y-97674500D01*
X139111309Y-97655593D01*
X139075345Y-97606093D01*
X139070500Y-97575500D01*
X139070500Y-97344500D01*
X139089407Y-97286309D01*
X139138907Y-97250345D01*
X139169500Y-97245500D01*
X141193716Y-97245500D01*
X141193718Y-97245500D01*
X141233809Y-97241551D01*
X141398027Y-97208886D01*
X141436578Y-97197192D01*
X141591268Y-97133117D01*
X141626795Y-97114127D01*
X141766013Y-97021105D01*
X141797154Y-96995548D01*
X141915548Y-96877154D01*
X141941105Y-96846013D01*
X142034127Y-96706795D01*
X142053117Y-96671268D01*
X142117192Y-96516578D01*
X142128886Y-96478027D01*
X142161551Y-96313809D01*
X142165500Y-96273718D01*
X142165500Y-96147273D01*
X145899500Y-96147273D01*
X145899500Y-96252727D01*
X145915866Y-96313806D01*
X145926794Y-96354589D01*
X145926794Y-96354590D01*
X145972227Y-96433281D01*
X145979520Y-96445913D01*
X146054087Y-96520480D01*
X146145413Y-96573207D01*
X146247273Y-96600500D01*
X146247275Y-96600500D01*
X146352725Y-96600500D01*
X146352727Y-96600500D01*
X146454587Y-96573207D01*
X146545913Y-96520480D01*
X146569120Y-96497273D01*
X147849500Y-96497273D01*
X147849500Y-96602727D01*
X147874469Y-96695913D01*
X147876794Y-96704589D01*
X147876794Y-96704590D01*
X147917517Y-96775123D01*
X147929520Y-96795913D01*
X148004087Y-96870480D01*
X148095413Y-96923207D01*
X148197273Y-96950500D01*
X148197275Y-96950500D01*
X148302725Y-96950500D01*
X148302727Y-96950500D01*
X148404587Y-96923207D01*
X148495913Y-96870480D01*
X148570480Y-96795913D01*
X148599638Y-96745409D01*
X148625856Y-96700000D01*
X148641233Y-96686153D01*
X148653401Y-96669407D01*
X148663463Y-96666137D01*
X148671325Y-96659059D01*
X148711592Y-96650500D01*
X148773206Y-96650500D01*
X148831397Y-96669407D01*
X148867361Y-96718907D01*
X148868832Y-96775120D01*
X148849500Y-96847273D01*
X148849500Y-96952727D01*
X148867821Y-97021102D01*
X148876794Y-97054589D01*
X148876794Y-97054590D01*
X148911168Y-97114127D01*
X148929520Y-97145913D01*
X149004087Y-97220480D01*
X149095413Y-97273207D01*
X149197273Y-97300500D01*
X149197275Y-97300500D01*
X149302725Y-97300500D01*
X149302727Y-97300500D01*
X149404587Y-97273207D01*
X149495913Y-97220480D01*
X149570480Y-97145913D01*
X149623207Y-97054587D01*
X149650500Y-96952727D01*
X149650500Y-96847273D01*
X149623207Y-96745413D01*
X149594626Y-96695910D01*
X149577437Y-96666137D01*
X149570480Y-96654087D01*
X149495913Y-96579520D01*
X149484975Y-96573205D01*
X149404589Y-96526794D01*
X149404588Y-96526793D01*
X149404587Y-96526793D01*
X149302727Y-96499500D01*
X149226794Y-96499500D01*
X149200036Y-96490806D01*
X149172878Y-96483530D01*
X149171176Y-96481429D01*
X149168603Y-96480593D01*
X149152064Y-96457829D01*
X149134371Y-96435982D01*
X149134229Y-96433281D01*
X149132639Y-96431093D01*
X149131753Y-96397273D01*
X154799500Y-96397273D01*
X154799500Y-96502727D01*
X154826295Y-96602727D01*
X154826794Y-96604589D01*
X154826794Y-96604590D01*
X154874719Y-96687598D01*
X154879520Y-96695913D01*
X154954087Y-96770480D01*
X155045413Y-96823207D01*
X155147273Y-96850500D01*
X155147275Y-96850500D01*
X155252725Y-96850500D01*
X155252727Y-96850500D01*
X155354587Y-96823207D01*
X155445913Y-96770480D01*
X155520480Y-96695913D01*
X155573207Y-96604587D01*
X155600500Y-96502727D01*
X155600500Y-96397273D01*
X155573207Y-96295413D01*
X155572083Y-96293467D01*
X155520481Y-96204089D01*
X155520480Y-96204087D01*
X155445913Y-96129520D01*
X155405665Y-96106283D01*
X155354589Y-96076794D01*
X155354588Y-96076793D01*
X155354587Y-96076793D01*
X155252727Y-96049500D01*
X155147273Y-96049500D01*
X155045413Y-96076793D01*
X155045412Y-96076793D01*
X155045410Y-96076794D01*
X155045409Y-96076794D01*
X154954089Y-96129518D01*
X154879518Y-96204089D01*
X154826794Y-96295409D01*
X154826794Y-96295410D01*
X154826793Y-96295412D01*
X154826793Y-96295413D01*
X154799500Y-96397273D01*
X149131753Y-96397273D01*
X149131166Y-96374883D01*
X149150500Y-96302727D01*
X149150500Y-96197273D01*
X149123207Y-96095413D01*
X149118081Y-96086535D01*
X149070481Y-96004089D01*
X149070480Y-96004087D01*
X148995913Y-95929520D01*
X148948193Y-95901969D01*
X148904589Y-95876794D01*
X148904588Y-95876793D01*
X148904587Y-95876793D01*
X148802727Y-95849500D01*
X148697273Y-95849500D01*
X148595413Y-95876793D01*
X148595412Y-95876793D01*
X148595410Y-95876794D01*
X148595409Y-95876794D01*
X148504089Y-95929518D01*
X148429518Y-96004089D01*
X148374144Y-96100000D01*
X148328675Y-96140941D01*
X148288408Y-96149500D01*
X148197273Y-96149500D01*
X148095413Y-96176793D01*
X148095412Y-96176793D01*
X148095410Y-96176794D01*
X148095409Y-96176794D01*
X148004089Y-96229518D01*
X147929518Y-96304089D01*
X147876794Y-96395409D01*
X147876794Y-96395410D01*
X147876793Y-96395412D01*
X147876793Y-96395413D01*
X147849500Y-96497273D01*
X146569120Y-96497273D01*
X146620480Y-96445913D01*
X146673207Y-96354587D01*
X146700500Y-96252727D01*
X146700500Y-96147273D01*
X146673207Y-96045413D01*
X146649347Y-96004087D01*
X146620481Y-95954089D01*
X146620480Y-95954087D01*
X146545913Y-95879520D01*
X146541191Y-95876794D01*
X146454589Y-95826794D01*
X146454588Y-95826793D01*
X146454587Y-95826793D01*
X146352727Y-95799500D01*
X146247273Y-95799500D01*
X146145413Y-95826793D01*
X146145412Y-95826793D01*
X146145410Y-95826794D01*
X146145409Y-95826794D01*
X146054089Y-95879518D01*
X145979518Y-95954089D01*
X145926794Y-96045409D01*
X145926794Y-96045410D01*
X145926793Y-96045412D01*
X145926793Y-96045413D01*
X145899500Y-96147273D01*
X142165500Y-96147273D01*
X142165500Y-96106282D01*
X142161551Y-96066191D01*
X142128886Y-95901973D01*
X142117192Y-95863422D01*
X142053117Y-95708732D01*
X142053115Y-95708727D01*
X142044388Y-95692402D01*
X142034127Y-95673205D01*
X141941105Y-95533987D01*
X141941102Y-95533983D01*
X141941096Y-95533975D01*
X141915554Y-95502853D01*
X141915552Y-95502851D01*
X141915548Y-95502846D01*
X141797154Y-95384452D01*
X141797148Y-95384447D01*
X141797146Y-95384445D01*
X141766024Y-95358903D01*
X141766016Y-95358897D01*
X141626803Y-95265878D01*
X141626800Y-95265876D01*
X141626795Y-95265873D01*
X141610498Y-95257162D01*
X141591272Y-95246884D01*
X141436578Y-95182808D01*
X141436567Y-95182804D01*
X141398030Y-95171114D01*
X141233804Y-95138448D01*
X141233808Y-95138448D01*
X141200905Y-95135208D01*
X141193718Y-95134500D01*
X141193716Y-95134500D01*
X139169500Y-95134500D01*
X139111309Y-95115593D01*
X139075345Y-95066093D01*
X139070500Y-95035500D01*
X139070500Y-94804501D01*
X139089407Y-94746310D01*
X139138907Y-94710346D01*
X139169500Y-94705501D01*
X141193716Y-94705501D01*
X141193718Y-94705501D01*
X141233809Y-94701552D01*
X141398027Y-94668887D01*
X141436578Y-94657193D01*
X141591268Y-94593118D01*
X141626795Y-94574128D01*
X141766013Y-94481106D01*
X141797154Y-94455549D01*
X141915548Y-94337155D01*
X141941105Y-94306014D01*
X142034127Y-94166796D01*
X142053117Y-94131269D01*
X142117192Y-93976579D01*
X142128886Y-93938028D01*
X142161551Y-93773810D01*
X142165500Y-93733719D01*
X142165500Y-93566283D01*
X142161551Y-93526192D01*
X142128886Y-93361974D01*
X142117192Y-93323423D01*
X142053117Y-93168733D01*
X142053115Y-93168728D01*
X142044388Y-93152402D01*
X142034127Y-93133206D01*
X141941105Y-92993988D01*
X141941102Y-92993984D01*
X141941096Y-92993976D01*
X141915554Y-92962854D01*
X141915552Y-92962852D01*
X141915548Y-92962847D01*
X141797154Y-92844453D01*
X141797148Y-92844448D01*
X141797146Y-92844446D01*
X141766024Y-92818904D01*
X141766016Y-92818898D01*
X141626803Y-92725879D01*
X141626800Y-92725877D01*
X141626795Y-92725874D01*
X141610498Y-92717163D01*
X141591272Y-92706885D01*
X141436578Y-92642809D01*
X141436567Y-92642805D01*
X141398030Y-92631115D01*
X141233804Y-92598449D01*
X141233808Y-92598449D01*
X141200905Y-92595209D01*
X141193718Y-92594501D01*
X141193716Y-92594501D01*
X139169500Y-92594501D01*
X139111309Y-92575594D01*
X139075345Y-92526094D01*
X139070500Y-92495501D01*
X139070500Y-92264500D01*
X139089407Y-92206309D01*
X139138907Y-92170345D01*
X139169500Y-92165500D01*
X141193716Y-92165500D01*
X141193718Y-92165500D01*
X141233809Y-92161551D01*
X141398027Y-92128886D01*
X141436578Y-92117192D01*
X141591268Y-92053117D01*
X141626795Y-92034127D01*
X141766013Y-91941105D01*
X141797154Y-91915548D01*
X141915548Y-91797154D01*
X141941105Y-91766013D01*
X142034127Y-91626795D01*
X142053117Y-91591268D01*
X142117192Y-91436578D01*
X142128886Y-91398027D01*
X142161551Y-91233809D01*
X142165500Y-91193718D01*
X142165500Y-91026282D01*
X142161551Y-90986191D01*
X142128886Y-90821973D01*
X142117192Y-90783422D01*
X142081201Y-90696532D01*
X143549500Y-90696532D01*
X143549500Y-90903467D01*
X143589869Y-91106418D01*
X143669058Y-91297597D01*
X143784020Y-91469651D01*
X143784023Y-91469655D01*
X143930345Y-91615977D01*
X144102402Y-91730941D01*
X144293580Y-91810130D01*
X144496535Y-91850500D01*
X144496536Y-91850500D01*
X144703464Y-91850500D01*
X144703465Y-91850500D01*
X144906420Y-91810130D01*
X145097598Y-91730941D01*
X145269655Y-91615977D01*
X145415977Y-91469655D01*
X145530941Y-91297598D01*
X145610130Y-91106420D01*
X145650500Y-90903465D01*
X145650500Y-90696535D01*
X145650499Y-90696532D01*
X147149500Y-90696532D01*
X147149500Y-90903467D01*
X147189869Y-91106418D01*
X147269058Y-91297597D01*
X147384020Y-91469651D01*
X147384023Y-91469655D01*
X147530345Y-91615977D01*
X147702402Y-91730941D01*
X147893580Y-91810130D01*
X148096535Y-91850500D01*
X148096536Y-91850500D01*
X148303464Y-91850500D01*
X148303465Y-91850500D01*
X148506420Y-91810130D01*
X148697598Y-91730941D01*
X148869655Y-91615977D01*
X149015977Y-91469655D01*
X149130941Y-91297598D01*
X149210130Y-91106420D01*
X149250500Y-90903465D01*
X149250500Y-90696535D01*
X149210130Y-90493580D01*
X149130941Y-90302402D01*
X149015977Y-90130345D01*
X148869655Y-89984023D01*
X148869651Y-89984020D01*
X148697597Y-89869058D01*
X148506418Y-89789869D01*
X148303467Y-89749500D01*
X148303465Y-89749500D01*
X148096535Y-89749500D01*
X148096532Y-89749500D01*
X147893581Y-89789869D01*
X147702402Y-89869058D01*
X147530348Y-89984020D01*
X147384020Y-90130348D01*
X147269058Y-90302402D01*
X147189869Y-90493581D01*
X147149500Y-90696532D01*
X145650499Y-90696532D01*
X145610130Y-90493580D01*
X145530941Y-90302402D01*
X145415977Y-90130345D01*
X145269655Y-89984023D01*
X145269651Y-89984020D01*
X145097597Y-89869058D01*
X144906418Y-89789869D01*
X144703467Y-89749500D01*
X144703465Y-89749500D01*
X144496535Y-89749500D01*
X144496532Y-89749500D01*
X144293581Y-89789869D01*
X144102402Y-89869058D01*
X143930348Y-89984020D01*
X143784020Y-90130348D01*
X143669058Y-90302402D01*
X143589869Y-90493581D01*
X143549500Y-90696532D01*
X142081201Y-90696532D01*
X142053117Y-90628732D01*
X142053115Y-90628727D01*
X142044388Y-90612402D01*
X142034127Y-90593205D01*
X141941105Y-90453987D01*
X141941102Y-90453983D01*
X141941096Y-90453975D01*
X141915554Y-90422853D01*
X141915552Y-90422851D01*
X141915548Y-90422846D01*
X141797154Y-90304452D01*
X141797148Y-90304447D01*
X141797146Y-90304445D01*
X141766024Y-90278903D01*
X141766016Y-90278897D01*
X141626803Y-90185878D01*
X141626800Y-90185876D01*
X141626795Y-90185873D01*
X141610498Y-90177162D01*
X141591272Y-90166884D01*
X141436578Y-90102808D01*
X141436567Y-90102804D01*
X141398030Y-90091114D01*
X141233804Y-90058448D01*
X141233808Y-90058448D01*
X141200905Y-90055208D01*
X141193718Y-90054500D01*
X141193716Y-90054500D01*
X139169500Y-90054500D01*
X139111309Y-90035593D01*
X139075345Y-89986093D01*
X139070500Y-89955500D01*
X139070500Y-89724500D01*
X139089407Y-89666309D01*
X139138907Y-89630345D01*
X139169500Y-89625500D01*
X141193716Y-89625500D01*
X141193718Y-89625500D01*
X141233809Y-89621551D01*
X141398027Y-89588886D01*
X141436578Y-89577192D01*
X141591268Y-89513117D01*
X141626795Y-89494127D01*
X141766013Y-89401105D01*
X141797154Y-89375548D01*
X141915548Y-89257154D01*
X141941105Y-89226013D01*
X142034127Y-89086795D01*
X142053117Y-89051268D01*
X142117192Y-88896578D01*
X142128886Y-88858027D01*
X142161551Y-88693809D01*
X142165500Y-88653718D01*
X142165500Y-88486282D01*
X142161551Y-88446191D01*
X142128886Y-88281973D01*
X142117192Y-88243422D01*
X142081201Y-88156533D01*
X143549500Y-88156533D01*
X143549500Y-88363468D01*
X143589869Y-88566419D01*
X143669058Y-88757598D01*
X143761921Y-88896578D01*
X143784023Y-88929656D01*
X143930345Y-89075978D01*
X144102402Y-89190942D01*
X144293580Y-89270131D01*
X144496535Y-89310501D01*
X144496536Y-89310501D01*
X144703464Y-89310501D01*
X144703465Y-89310501D01*
X144906420Y-89270131D01*
X145097598Y-89190942D01*
X145269655Y-89075978D01*
X145415977Y-88929656D01*
X145530941Y-88757599D01*
X145610130Y-88566421D01*
X145650500Y-88363466D01*
X145650500Y-88156536D01*
X145650499Y-88156533D01*
X147149500Y-88156533D01*
X147149500Y-88363468D01*
X147189869Y-88566419D01*
X147269058Y-88757598D01*
X147361921Y-88896578D01*
X147384023Y-88929656D01*
X147530345Y-89075978D01*
X147702402Y-89190942D01*
X147893580Y-89270131D01*
X148096535Y-89310501D01*
X148096536Y-89310501D01*
X148303464Y-89310501D01*
X148303465Y-89310501D01*
X148369967Y-89297273D01*
X151749500Y-89297273D01*
X151749500Y-89402727D01*
X151776793Y-89504587D01*
X151776794Y-89504589D01*
X151776794Y-89504590D01*
X151825462Y-89588885D01*
X151829520Y-89595913D01*
X151904087Y-89670480D01*
X151995413Y-89723207D01*
X152097273Y-89750500D01*
X152097275Y-89750500D01*
X152202725Y-89750500D01*
X152202727Y-89750500D01*
X152304587Y-89723207D01*
X152395913Y-89670480D01*
X152470480Y-89595913D01*
X152523207Y-89504587D01*
X152550500Y-89402727D01*
X152550500Y-89297273D01*
X152523207Y-89195413D01*
X152470480Y-89104087D01*
X152395913Y-89029520D01*
X152304587Y-88976793D01*
X152202727Y-88949500D01*
X152097273Y-88949500D01*
X151995413Y-88976793D01*
X151995412Y-88976793D01*
X151995410Y-88976794D01*
X151995409Y-88976794D01*
X151904089Y-89029518D01*
X151829518Y-89104089D01*
X151776794Y-89195409D01*
X151776794Y-89195410D01*
X151776793Y-89195412D01*
X151776793Y-89195413D01*
X151749500Y-89297273D01*
X148369967Y-89297273D01*
X148506420Y-89270131D01*
X148697598Y-89190942D01*
X148869655Y-89075978D01*
X149015977Y-88929656D01*
X149130941Y-88757599D01*
X149210130Y-88566421D01*
X149250500Y-88363466D01*
X149250500Y-88156536D01*
X149210130Y-87953581D01*
X149130941Y-87762403D01*
X149015977Y-87590346D01*
X148869655Y-87444024D01*
X148826966Y-87415500D01*
X148724856Y-87347273D01*
X152799500Y-87347273D01*
X152799500Y-87452727D01*
X152826793Y-87554587D01*
X152826794Y-87554589D01*
X152826794Y-87554590D01*
X152875562Y-87639058D01*
X152879520Y-87645913D01*
X152954087Y-87720480D01*
X153045413Y-87773207D01*
X153147273Y-87800500D01*
X153147275Y-87800500D01*
X153252725Y-87800500D01*
X153252727Y-87800500D01*
X153354587Y-87773207D01*
X153445913Y-87720480D01*
X153520480Y-87645913D01*
X153573207Y-87554587D01*
X153600500Y-87452727D01*
X153600500Y-87347273D01*
X153573207Y-87245413D01*
X153520480Y-87154087D01*
X153445913Y-87079520D01*
X153392853Y-87048886D01*
X153354589Y-87026794D01*
X153354588Y-87026793D01*
X153354587Y-87026793D01*
X153252727Y-86999500D01*
X153147273Y-86999500D01*
X153045413Y-87026793D01*
X153045412Y-87026793D01*
X153045410Y-87026794D01*
X153045409Y-87026794D01*
X152954089Y-87079518D01*
X152879518Y-87154089D01*
X152826794Y-87245409D01*
X152826794Y-87245410D01*
X152826793Y-87245412D01*
X152826793Y-87245413D01*
X152799500Y-87347273D01*
X148724856Y-87347273D01*
X148697597Y-87329059D01*
X148506418Y-87249870D01*
X148303467Y-87209501D01*
X148303465Y-87209501D01*
X148096535Y-87209501D01*
X148096532Y-87209501D01*
X147893581Y-87249870D01*
X147702402Y-87329059D01*
X147530348Y-87444021D01*
X147384020Y-87590349D01*
X147269058Y-87762403D01*
X147189869Y-87953582D01*
X147149500Y-88156533D01*
X145650499Y-88156533D01*
X145610130Y-87953581D01*
X145530941Y-87762403D01*
X145415977Y-87590346D01*
X145269655Y-87444024D01*
X145226966Y-87415500D01*
X145097597Y-87329059D01*
X144906418Y-87249870D01*
X144703467Y-87209501D01*
X144703465Y-87209501D01*
X144496535Y-87209501D01*
X144496532Y-87209501D01*
X144293581Y-87249870D01*
X144102402Y-87329059D01*
X143930348Y-87444021D01*
X143784020Y-87590349D01*
X143669058Y-87762403D01*
X143589869Y-87953582D01*
X143549500Y-88156533D01*
X142081201Y-88156533D01*
X142053117Y-88088732D01*
X142053117Y-88088731D01*
X142044388Y-88072402D01*
X142034127Y-88053205D01*
X141941105Y-87913987D01*
X141941102Y-87913983D01*
X141941096Y-87913975D01*
X141915554Y-87882853D01*
X141915552Y-87882851D01*
X141915548Y-87882846D01*
X141797154Y-87764452D01*
X141797148Y-87764447D01*
X141797146Y-87764445D01*
X141766024Y-87738903D01*
X141766016Y-87738897D01*
X141626803Y-87645878D01*
X141626800Y-87645876D01*
X141626795Y-87645873D01*
X141610498Y-87637162D01*
X141591272Y-87626884D01*
X141436578Y-87562808D01*
X141436567Y-87562804D01*
X141398030Y-87551114D01*
X141233804Y-87518448D01*
X141233808Y-87518448D01*
X141200905Y-87515208D01*
X141193718Y-87514500D01*
X141193716Y-87514500D01*
X139169500Y-87514500D01*
X139111309Y-87495593D01*
X139075345Y-87446093D01*
X139070500Y-87415500D01*
X139070500Y-87184500D01*
X139089407Y-87126309D01*
X139138907Y-87090345D01*
X139169500Y-87085500D01*
X141193716Y-87085500D01*
X141193718Y-87085500D01*
X141233809Y-87081551D01*
X141398027Y-87048886D01*
X141436578Y-87037192D01*
X141591268Y-86973117D01*
X141626795Y-86954127D01*
X141766013Y-86861105D01*
X141797154Y-86835548D01*
X141915548Y-86717154D01*
X141941105Y-86686013D01*
X142034127Y-86546795D01*
X142053117Y-86511268D01*
X142117192Y-86356578D01*
X142128886Y-86318027D01*
X142161551Y-86153809D01*
X142165500Y-86113718D01*
X142165500Y-85946282D01*
X142161551Y-85906191D01*
X142128886Y-85741973D01*
X142117192Y-85703422D01*
X142053117Y-85548732D01*
X142053115Y-85548727D01*
X142041505Y-85527008D01*
X142034127Y-85513205D01*
X141941105Y-85373987D01*
X141941102Y-85373983D01*
X141941096Y-85373975D01*
X141915554Y-85342853D01*
X141915552Y-85342851D01*
X141915548Y-85342846D01*
X141797154Y-85224452D01*
X141797148Y-85224447D01*
X141797146Y-85224445D01*
X141766024Y-85198903D01*
X141766016Y-85198897D01*
X141626803Y-85105878D01*
X141626800Y-85105876D01*
X141626795Y-85105873D01*
X141610498Y-85097162D01*
X141591272Y-85086884D01*
X141436578Y-85022808D01*
X141436567Y-85022804D01*
X141398030Y-85011114D01*
X141233804Y-84978448D01*
X141233808Y-84978448D01*
X141200905Y-84975208D01*
X141193718Y-84974500D01*
X141193716Y-84974500D01*
X139169500Y-84974500D01*
X139154588Y-84969655D01*
X139138907Y-84969655D01*
X139126221Y-84960438D01*
X139111309Y-84955593D01*
X139102092Y-84942907D01*
X139089407Y-84933691D01*
X139084561Y-84918778D01*
X139075345Y-84906093D01*
X139070500Y-84875500D01*
X139070500Y-84850300D01*
X143550000Y-84850300D01*
X143550000Y-85470000D01*
X143550001Y-85470001D01*
X144166988Y-85470001D01*
X144134075Y-85527008D01*
X144100000Y-85654175D01*
X144100000Y-85785827D01*
X144134075Y-85912994D01*
X144166988Y-85970001D01*
X143550001Y-85970001D01*
X143550000Y-85970002D01*
X143550000Y-86589701D01*
X143561603Y-86648037D01*
X143605806Y-86714190D01*
X143605810Y-86714194D01*
X143671963Y-86758397D01*
X143730299Y-86770000D01*
X143730303Y-86770001D01*
X144349999Y-86770001D01*
X144350000Y-86770000D01*
X144350000Y-86153013D01*
X144407007Y-86185926D01*
X144534174Y-86220001D01*
X144665826Y-86220001D01*
X144792993Y-86185926D01*
X144850000Y-86153013D01*
X144850000Y-86770000D01*
X144850001Y-86770001D01*
X145469697Y-86770001D01*
X145469700Y-86770000D01*
X145528036Y-86758397D01*
X145594189Y-86714194D01*
X145594193Y-86714190D01*
X145638396Y-86648037D01*
X145649999Y-86589701D01*
X145650000Y-86589698D01*
X145650000Y-85970002D01*
X145649999Y-85970001D01*
X145033012Y-85970001D01*
X145065925Y-85912994D01*
X145100000Y-85785827D01*
X145100000Y-85654175D01*
X145065925Y-85527008D01*
X145033012Y-85470001D01*
X145649999Y-85470001D01*
X145650000Y-85470000D01*
X145650000Y-84850303D01*
X145649999Y-84850300D01*
X147150000Y-84850300D01*
X147150000Y-85470000D01*
X147150001Y-85470001D01*
X147766988Y-85470001D01*
X147734075Y-85527008D01*
X147700000Y-85654175D01*
X147700000Y-85785827D01*
X147734075Y-85912994D01*
X147766988Y-85970001D01*
X147150001Y-85970001D01*
X147150000Y-85970002D01*
X147150000Y-86589701D01*
X147161603Y-86648037D01*
X147205806Y-86714190D01*
X147205810Y-86714194D01*
X147271963Y-86758397D01*
X147330299Y-86770000D01*
X147330303Y-86770001D01*
X147949999Y-86770001D01*
X147950000Y-86770000D01*
X147950000Y-86153013D01*
X148007007Y-86185926D01*
X148134174Y-86220001D01*
X148265826Y-86220001D01*
X148392993Y-86185926D01*
X148450000Y-86153013D01*
X148450000Y-86770000D01*
X148450001Y-86770001D01*
X149069697Y-86770001D01*
X149069700Y-86770000D01*
X149128036Y-86758397D01*
X149144684Y-86747273D01*
X149399500Y-86747273D01*
X149399500Y-86852727D01*
X149426670Y-86954127D01*
X149426794Y-86954589D01*
X149426794Y-86954590D01*
X149476181Y-87040130D01*
X149479520Y-87045913D01*
X149554087Y-87120480D01*
X149645413Y-87173207D01*
X149747273Y-87200500D01*
X149747275Y-87200500D01*
X149852725Y-87200500D01*
X149852727Y-87200500D01*
X149954587Y-87173207D01*
X150045913Y-87120480D01*
X150120480Y-87045913D01*
X150173207Y-86954587D01*
X150200500Y-86852727D01*
X150200500Y-86747273D01*
X150173207Y-86645413D01*
X150120480Y-86554087D01*
X150045913Y-86479520D01*
X150030255Y-86470480D01*
X149954589Y-86426794D01*
X149954588Y-86426793D01*
X149954587Y-86426793D01*
X149852727Y-86399500D01*
X149747273Y-86399500D01*
X149645413Y-86426793D01*
X149645412Y-86426793D01*
X149645410Y-86426794D01*
X149645409Y-86426794D01*
X149554089Y-86479518D01*
X149479518Y-86554089D01*
X149440128Y-86622314D01*
X149440126Y-86622318D01*
X149426793Y-86645413D01*
X149399500Y-86747273D01*
X149144684Y-86747273D01*
X149194189Y-86714194D01*
X149194192Y-86714191D01*
X149211595Y-86688146D01*
X149250000Y-86566854D01*
X149250000Y-86097273D01*
X150599500Y-86097273D01*
X150599500Y-86202727D01*
X150604129Y-86220001D01*
X150626794Y-86304589D01*
X150626794Y-86304590D01*
X150679518Y-86395910D01*
X150679520Y-86395913D01*
X150754087Y-86470480D01*
X150845413Y-86523207D01*
X150947273Y-86550500D01*
X150947275Y-86550500D01*
X151052725Y-86550500D01*
X151052727Y-86550500D01*
X151154587Y-86523207D01*
X151245913Y-86470480D01*
X151320480Y-86395913D01*
X151373207Y-86304587D01*
X151400500Y-86202727D01*
X151400500Y-86097273D01*
X151373207Y-85995413D01*
X151358535Y-85970001D01*
X151320481Y-85904089D01*
X151320480Y-85904087D01*
X151245913Y-85829520D01*
X151170234Y-85785827D01*
X151154589Y-85776794D01*
X151154588Y-85776793D01*
X151154587Y-85776793D01*
X151052727Y-85749500D01*
X150947273Y-85749500D01*
X150845413Y-85776793D01*
X150845412Y-85776793D01*
X150845410Y-85776794D01*
X150845409Y-85776794D01*
X150754089Y-85829518D01*
X150679518Y-85904089D01*
X150626794Y-85995409D01*
X150626794Y-85995410D01*
X150626793Y-85995412D01*
X150626793Y-85995413D01*
X150599500Y-86097273D01*
X149250000Y-86097273D01*
X149250000Y-85970002D01*
X149249999Y-85970001D01*
X148633012Y-85970001D01*
X148665925Y-85912994D01*
X148700000Y-85785827D01*
X148700000Y-85654175D01*
X148665925Y-85527008D01*
X148633012Y-85470001D01*
X149249999Y-85470001D01*
X149250000Y-85470000D01*
X149250000Y-84850303D01*
X149249999Y-84850300D01*
X149238396Y-84791964D01*
X149194193Y-84725811D01*
X149194189Y-84725807D01*
X149128036Y-84681604D01*
X149069700Y-84670001D01*
X148450001Y-84670001D01*
X148450000Y-84670002D01*
X148450000Y-85286989D01*
X148392993Y-85254076D01*
X148265826Y-85220001D01*
X148134174Y-85220001D01*
X148007007Y-85254076D01*
X147950000Y-85286989D01*
X147950000Y-84670002D01*
X147949999Y-84670001D01*
X147330299Y-84670001D01*
X147271963Y-84681604D01*
X147205810Y-84725807D01*
X147205806Y-84725811D01*
X147161603Y-84791964D01*
X147150000Y-84850300D01*
X145649999Y-84850300D01*
X145638396Y-84791964D01*
X145594193Y-84725811D01*
X145594189Y-84725807D01*
X145528036Y-84681604D01*
X145469700Y-84670001D01*
X144850001Y-84670001D01*
X144850000Y-84670002D01*
X144850000Y-85286989D01*
X144792993Y-85254076D01*
X144665826Y-85220001D01*
X144534174Y-85220001D01*
X144407007Y-85254076D01*
X144350000Y-85286989D01*
X144350000Y-84670002D01*
X144349999Y-84670001D01*
X143730299Y-84670001D01*
X143671963Y-84681604D01*
X143605810Y-84725807D01*
X143605806Y-84725811D01*
X143561603Y-84791964D01*
X143550000Y-84850300D01*
X139070500Y-84850300D01*
X139070500Y-84644500D01*
X139089407Y-84586309D01*
X139138907Y-84550345D01*
X139169500Y-84545500D01*
X141193716Y-84545500D01*
X141193718Y-84545500D01*
X141233809Y-84541551D01*
X141398027Y-84508886D01*
X141436578Y-84497192D01*
X141557093Y-84447273D01*
X156699500Y-84447273D01*
X156699500Y-84552727D01*
X156726793Y-84654587D01*
X156726794Y-84654589D01*
X156726794Y-84654590D01*
X156767914Y-84725811D01*
X156779520Y-84745913D01*
X156854087Y-84820480D01*
X156945413Y-84873207D01*
X157047273Y-84900500D01*
X157047275Y-84900500D01*
X157152725Y-84900500D01*
X157152727Y-84900500D01*
X157254587Y-84873207D01*
X157345913Y-84820480D01*
X157420480Y-84745913D01*
X157473207Y-84654587D01*
X157500500Y-84552727D01*
X157500500Y-84447273D01*
X157473207Y-84345413D01*
X157444417Y-84295548D01*
X157420481Y-84254089D01*
X157420480Y-84254087D01*
X157345913Y-84179520D01*
X157341801Y-84177146D01*
X157254589Y-84126794D01*
X157254588Y-84126793D01*
X157254587Y-84126793D01*
X157152727Y-84099500D01*
X157047273Y-84099500D01*
X156945413Y-84126793D01*
X156945412Y-84126793D01*
X156945410Y-84126794D01*
X156945409Y-84126794D01*
X156854089Y-84179518D01*
X156779518Y-84254089D01*
X156726794Y-84345409D01*
X156726794Y-84345410D01*
X156726793Y-84345412D01*
X156726793Y-84345413D01*
X156699500Y-84447273D01*
X141557093Y-84447273D01*
X141591268Y-84433117D01*
X141626795Y-84414127D01*
X141626802Y-84414121D01*
X141626808Y-84414119D01*
X141710070Y-84358485D01*
X141710094Y-84358469D01*
X141729639Y-84345409D01*
X141766013Y-84321105D01*
X141797154Y-84295548D01*
X141915548Y-84177154D01*
X141941105Y-84146013D01*
X142034127Y-84006795D01*
X142053117Y-83971268D01*
X142117192Y-83816578D01*
X142128886Y-83778027D01*
X142161551Y-83613809D01*
X142165500Y-83573718D01*
X142165500Y-83406282D01*
X142161551Y-83366191D01*
X142128886Y-83201973D01*
X142117192Y-83163422D01*
X142053117Y-83008732D01*
X142053115Y-83008727D01*
X142044388Y-82992402D01*
X142034127Y-82973205D01*
X141941105Y-82833987D01*
X141941102Y-82833983D01*
X141941096Y-82833975D01*
X141915554Y-82802853D01*
X141915552Y-82802851D01*
X141915548Y-82802846D01*
X141809975Y-82697273D01*
X156749500Y-82697273D01*
X156749500Y-82802727D01*
X156776793Y-82904587D01*
X156776794Y-82904589D01*
X156776794Y-82904590D01*
X156827493Y-82992402D01*
X156829520Y-82995913D01*
X156904087Y-83070480D01*
X156995413Y-83123207D01*
X157097273Y-83150500D01*
X157097275Y-83150500D01*
X157202725Y-83150500D01*
X157202727Y-83150500D01*
X157304587Y-83123207D01*
X157395913Y-83070480D01*
X157470480Y-82995913D01*
X157523207Y-82904587D01*
X157550500Y-82802727D01*
X157550500Y-82697273D01*
X157523207Y-82595413D01*
X157502217Y-82559058D01*
X157470481Y-82504089D01*
X157470480Y-82504087D01*
X157395913Y-82429520D01*
X157333855Y-82393691D01*
X157304589Y-82376794D01*
X157304588Y-82376793D01*
X157304587Y-82376793D01*
X157202727Y-82349500D01*
X157097273Y-82349500D01*
X156995413Y-82376793D01*
X156995412Y-82376793D01*
X156995410Y-82376794D01*
X156995409Y-82376794D01*
X156904089Y-82429518D01*
X156829518Y-82504089D01*
X156776794Y-82595409D01*
X156776794Y-82595410D01*
X156776793Y-82595412D01*
X156776793Y-82595413D01*
X156749500Y-82697273D01*
X141809975Y-82697273D01*
X141797154Y-82684452D01*
X141797148Y-82684447D01*
X141797146Y-82684445D01*
X141766024Y-82658903D01*
X141766016Y-82658897D01*
X141626803Y-82565878D01*
X141626800Y-82565876D01*
X141626795Y-82565873D01*
X141610498Y-82557162D01*
X141591272Y-82546884D01*
X141436578Y-82482808D01*
X141436567Y-82482804D01*
X141398030Y-82471114D01*
X141233804Y-82438448D01*
X141233808Y-82438448D01*
X141200905Y-82435208D01*
X141193718Y-82434500D01*
X141193716Y-82434500D01*
X139169500Y-82434500D01*
X139111309Y-82415593D01*
X139075345Y-82366093D01*
X139070500Y-82335500D01*
X139070500Y-82104499D01*
X139089407Y-82046308D01*
X139138907Y-82010344D01*
X139169500Y-82005499D01*
X141193716Y-82005499D01*
X141193718Y-82005499D01*
X141233809Y-82001550D01*
X141398027Y-81968885D01*
X141436578Y-81957191D01*
X141591268Y-81893116D01*
X141626795Y-81874126D01*
X141766013Y-81781104D01*
X141797154Y-81755547D01*
X141855428Y-81697273D01*
X148349500Y-81697273D01*
X148349500Y-81802727D01*
X148376793Y-81904587D01*
X148376794Y-81904589D01*
X148376794Y-81904590D01*
X148413915Y-81968885D01*
X148429520Y-81995913D01*
X148504087Y-82070480D01*
X148595413Y-82123207D01*
X148697273Y-82150500D01*
X148697275Y-82150500D01*
X148802725Y-82150500D01*
X148802727Y-82150500D01*
X148904587Y-82123207D01*
X148995913Y-82070480D01*
X149070480Y-81995913D01*
X149123207Y-81904587D01*
X149150500Y-81802727D01*
X149150500Y-81697273D01*
X153549500Y-81697273D01*
X153549500Y-81802727D01*
X153576793Y-81904587D01*
X153576794Y-81904589D01*
X153576794Y-81904590D01*
X153613915Y-81968885D01*
X153629520Y-81995913D01*
X153704087Y-82070480D01*
X153795413Y-82123207D01*
X153897273Y-82150500D01*
X153897275Y-82150500D01*
X154002725Y-82150500D01*
X154002727Y-82150500D01*
X154104587Y-82123207D01*
X154195913Y-82070480D01*
X154270480Y-81995913D01*
X154323207Y-81904587D01*
X154350500Y-81802727D01*
X154350500Y-81697273D01*
X154323207Y-81595413D01*
X154270480Y-81504087D01*
X154195913Y-81429520D01*
X154104587Y-81376793D01*
X154002727Y-81349500D01*
X153897273Y-81349500D01*
X153795413Y-81376793D01*
X153795412Y-81376793D01*
X153795410Y-81376794D01*
X153795409Y-81376794D01*
X153704089Y-81429518D01*
X153629518Y-81504089D01*
X153576794Y-81595409D01*
X153576794Y-81595410D01*
X153576793Y-81595412D01*
X153576793Y-81595413D01*
X153549500Y-81697273D01*
X149150500Y-81697273D01*
X149123207Y-81595413D01*
X149070480Y-81504087D01*
X148995913Y-81429520D01*
X148904587Y-81376793D01*
X148802727Y-81349500D01*
X148697273Y-81349500D01*
X148595413Y-81376793D01*
X148595412Y-81376793D01*
X148595410Y-81376794D01*
X148595409Y-81376794D01*
X148504089Y-81429518D01*
X148429518Y-81504089D01*
X148376794Y-81595409D01*
X148376794Y-81595410D01*
X148376793Y-81595412D01*
X148376793Y-81595413D01*
X148349500Y-81697273D01*
X141855428Y-81697273D01*
X141915548Y-81637153D01*
X141941105Y-81606012D01*
X142034127Y-81466794D01*
X142053117Y-81431267D01*
X142117192Y-81276577D01*
X142128886Y-81238026D01*
X142161551Y-81073808D01*
X142165500Y-81033717D01*
X142165500Y-80866281D01*
X142161551Y-80826190D01*
X142128886Y-80661972D01*
X142126646Y-80654589D01*
X142117195Y-80623431D01*
X142117192Y-80623421D01*
X142056852Y-80477749D01*
X142053118Y-80468732D01*
X142053117Y-80468731D01*
X142041647Y-80447273D01*
X147099500Y-80447273D01*
X147099500Y-80552727D01*
X147118445Y-80623431D01*
X147126794Y-80654589D01*
X147126794Y-80654590D01*
X147179518Y-80745910D01*
X147179520Y-80745913D01*
X147254087Y-80820480D01*
X147345413Y-80873207D01*
X147447273Y-80900500D01*
X147447275Y-80900500D01*
X147552725Y-80900500D01*
X147552727Y-80900500D01*
X147654587Y-80873207D01*
X147745913Y-80820480D01*
X147820480Y-80745913D01*
X147873207Y-80654587D01*
X147900500Y-80552727D01*
X147900500Y-80447273D01*
X151499500Y-80447273D01*
X151499500Y-80552727D01*
X151518445Y-80623431D01*
X151526794Y-80654589D01*
X151526794Y-80654590D01*
X151579518Y-80745910D01*
X151579520Y-80745913D01*
X151654087Y-80820480D01*
X151745413Y-80873207D01*
X151847273Y-80900500D01*
X151847275Y-80900500D01*
X151952725Y-80900500D01*
X151952727Y-80900500D01*
X152054587Y-80873207D01*
X152145913Y-80820480D01*
X152220480Y-80745913D01*
X152273207Y-80654587D01*
X152300500Y-80552727D01*
X152300500Y-80447273D01*
X152273207Y-80345413D01*
X152220480Y-80254087D01*
X152145913Y-80179520D01*
X152085159Y-80144444D01*
X152054589Y-80126794D01*
X152054588Y-80126793D01*
X152054587Y-80126793D01*
X151952727Y-80099500D01*
X151847273Y-80099500D01*
X151745413Y-80126793D01*
X151745412Y-80126793D01*
X151745410Y-80126794D01*
X151745409Y-80126794D01*
X151654089Y-80179518D01*
X151579518Y-80254089D01*
X151526794Y-80345409D01*
X151526794Y-80345410D01*
X151526793Y-80345412D01*
X151526793Y-80345413D01*
X151499500Y-80447273D01*
X147900500Y-80447273D01*
X147873207Y-80345413D01*
X147820480Y-80254087D01*
X147745913Y-80179520D01*
X147685159Y-80144444D01*
X147654589Y-80126794D01*
X147654588Y-80126793D01*
X147654587Y-80126793D01*
X147552727Y-80099500D01*
X147447273Y-80099500D01*
X147345413Y-80126793D01*
X147345412Y-80126793D01*
X147345410Y-80126794D01*
X147345409Y-80126794D01*
X147254089Y-80179518D01*
X147179518Y-80254089D01*
X147126794Y-80345409D01*
X147126794Y-80345410D01*
X147126793Y-80345412D01*
X147126793Y-80345413D01*
X147099500Y-80447273D01*
X142041647Y-80447273D01*
X142034127Y-80433204D01*
X141941105Y-80293986D01*
X141941102Y-80293982D01*
X141941096Y-80293974D01*
X141915554Y-80262852D01*
X141915552Y-80262850D01*
X141915548Y-80262845D01*
X141797154Y-80144451D01*
X141797148Y-80144446D01*
X141797146Y-80144444D01*
X141766024Y-80118902D01*
X141766016Y-80118896D01*
X141626803Y-80025877D01*
X141626800Y-80025875D01*
X141626795Y-80025872D01*
X141610498Y-80017161D01*
X141591272Y-80006883D01*
X141436578Y-79942807D01*
X141436567Y-79942803D01*
X141398030Y-79931113D01*
X141233804Y-79898447D01*
X141233808Y-79898447D01*
X141200905Y-79895207D01*
X141193718Y-79894499D01*
X141193716Y-79894499D01*
X139169500Y-79894499D01*
X139111309Y-79875592D01*
X139075345Y-79826092D01*
X139070500Y-79795499D01*
X139070500Y-79564500D01*
X139089407Y-79506309D01*
X139138907Y-79470345D01*
X139169500Y-79465500D01*
X141193716Y-79465500D01*
X141193718Y-79465500D01*
X141233809Y-79461551D01*
X141305589Y-79447273D01*
X154149500Y-79447273D01*
X154149500Y-79552727D01*
X154152655Y-79564500D01*
X154176794Y-79654589D01*
X154176794Y-79654590D01*
X154229518Y-79745910D01*
X154229520Y-79745913D01*
X154304087Y-79820480D01*
X154395413Y-79873207D01*
X154497273Y-79900500D01*
X154497275Y-79900500D01*
X154602725Y-79900500D01*
X154602727Y-79900500D01*
X154704587Y-79873207D01*
X154795913Y-79820480D01*
X154870480Y-79745913D01*
X154923207Y-79654587D01*
X154950500Y-79552727D01*
X154950500Y-79447273D01*
X154923207Y-79345413D01*
X154894626Y-79295910D01*
X154870481Y-79254089D01*
X154870480Y-79254087D01*
X154795913Y-79179520D01*
X154704587Y-79126793D01*
X154602727Y-79099500D01*
X154497273Y-79099500D01*
X154395413Y-79126793D01*
X154395412Y-79126793D01*
X154395410Y-79126794D01*
X154395409Y-79126794D01*
X154304089Y-79179518D01*
X154229518Y-79254089D01*
X154176794Y-79345409D01*
X154176794Y-79345410D01*
X154176793Y-79345412D01*
X154176793Y-79345413D01*
X154149500Y-79447273D01*
X141305589Y-79447273D01*
X141398027Y-79428886D01*
X141436578Y-79417192D01*
X141591268Y-79353117D01*
X141626795Y-79334127D01*
X141766013Y-79241105D01*
X141797154Y-79215548D01*
X141915548Y-79097154D01*
X141941105Y-79066013D01*
X141987035Y-78997273D01*
X155099500Y-78997273D01*
X155099500Y-79102727D01*
X155126793Y-79204587D01*
X155126794Y-79204589D01*
X155126794Y-79204590D01*
X155179518Y-79295910D01*
X155179520Y-79295913D01*
X155254087Y-79370480D01*
X155345413Y-79423207D01*
X155447273Y-79450500D01*
X155447275Y-79450500D01*
X155552725Y-79450500D01*
X155552727Y-79450500D01*
X155654587Y-79423207D01*
X155745913Y-79370480D01*
X155820480Y-79295913D01*
X155873207Y-79204587D01*
X155900500Y-79102727D01*
X155900500Y-78997273D01*
X155873207Y-78895413D01*
X155820480Y-78804087D01*
X155745913Y-78729520D01*
X155723223Y-78716420D01*
X155654589Y-78676794D01*
X155654588Y-78676793D01*
X155654587Y-78676793D01*
X155552727Y-78649500D01*
X155447273Y-78649500D01*
X155345413Y-78676793D01*
X155345412Y-78676793D01*
X155345410Y-78676794D01*
X155345409Y-78676794D01*
X155254089Y-78729518D01*
X155179518Y-78804089D01*
X155126794Y-78895409D01*
X155126794Y-78895410D01*
X155126793Y-78895412D01*
X155126793Y-78895413D01*
X155099500Y-78997273D01*
X141987035Y-78997273D01*
X142034127Y-78926795D01*
X142053117Y-78891268D01*
X142117192Y-78736578D01*
X142128886Y-78698027D01*
X142161551Y-78533809D01*
X142165500Y-78493718D01*
X142165500Y-78326282D01*
X142161551Y-78286191D01*
X142128886Y-78121973D01*
X142117192Y-78083422D01*
X142053117Y-77928732D01*
X142053115Y-77928727D01*
X142044388Y-77912402D01*
X142034127Y-77893205D01*
X141941105Y-77753987D01*
X141941102Y-77753983D01*
X141941096Y-77753975D01*
X141915554Y-77722853D01*
X141915552Y-77722851D01*
X141915548Y-77722846D01*
X141797154Y-77604452D01*
X141797148Y-77604447D01*
X141797146Y-77604445D01*
X141766024Y-77578903D01*
X141766016Y-77578897D01*
X141626803Y-77485878D01*
X141626800Y-77485876D01*
X141626795Y-77485873D01*
X141610498Y-77477162D01*
X141591272Y-77466884D01*
X141436578Y-77402808D01*
X141436567Y-77402804D01*
X141398030Y-77391114D01*
X141233804Y-77358448D01*
X141233808Y-77358448D01*
X141200905Y-77355208D01*
X141193718Y-77354500D01*
X141193716Y-77354500D01*
X139169500Y-77354500D01*
X139111309Y-77335593D01*
X139075345Y-77286093D01*
X139070500Y-77255500D01*
X139070500Y-77024500D01*
X139089407Y-76966309D01*
X139138907Y-76930345D01*
X139169500Y-76925500D01*
X141193716Y-76925500D01*
X141193718Y-76925500D01*
X141233809Y-76921551D01*
X141398027Y-76888886D01*
X141436578Y-76877192D01*
X141591268Y-76813117D01*
X141626795Y-76794127D01*
X141766013Y-76701105D01*
X141797154Y-76675548D01*
X141915548Y-76557154D01*
X141932906Y-76536004D01*
X144979500Y-76536004D01*
X144979500Y-77773995D01*
X145006420Y-77909327D01*
X145006420Y-77909329D01*
X145059222Y-78036806D01*
X145059228Y-78036817D01*
X145135885Y-78151541D01*
X145233458Y-78249114D01*
X145348182Y-78325771D01*
X145348193Y-78325777D01*
X145349415Y-78326283D01*
X145475672Y-78378580D01*
X145611007Y-78405500D01*
X145611008Y-78405500D01*
X145748992Y-78405500D01*
X145748993Y-78405500D01*
X145884328Y-78378580D01*
X146011811Y-78325775D01*
X146126542Y-78249114D01*
X146224114Y-78151542D01*
X146300775Y-78036811D01*
X146353580Y-77909328D01*
X146380500Y-77773993D01*
X146380500Y-76598982D01*
X146684500Y-76598982D01*
X146684500Y-76711018D01*
X146706767Y-76794121D01*
X146713498Y-76819241D01*
X146769513Y-76916260D01*
X146769515Y-76916263D01*
X146848737Y-76995485D01*
X146848739Y-76995486D01*
X146945759Y-77051501D01*
X146945757Y-77051501D01*
X146945761Y-77051502D01*
X146945763Y-77051503D01*
X147053982Y-77080500D01*
X147053984Y-77080500D01*
X147166016Y-77080500D01*
X147166018Y-77080500D01*
X147274237Y-77051503D01*
X147274239Y-77051501D01*
X147274241Y-77051501D01*
X147303064Y-77034859D01*
X147371263Y-76995485D01*
X147450485Y-76916263D01*
X147506503Y-76819237D01*
X147535500Y-76711018D01*
X147535500Y-76598982D01*
X152464500Y-76598982D01*
X152464500Y-76711018D01*
X152486767Y-76794121D01*
X152493498Y-76819241D01*
X152549513Y-76916260D01*
X152549515Y-76916263D01*
X152628737Y-76995485D01*
X152628739Y-76995486D01*
X152725759Y-77051501D01*
X152725757Y-77051501D01*
X152725761Y-77051502D01*
X152725763Y-77051503D01*
X152833982Y-77080500D01*
X152833984Y-77080500D01*
X152946016Y-77080500D01*
X152946018Y-77080500D01*
X153054237Y-77051503D01*
X153054239Y-77051501D01*
X153054241Y-77051501D01*
X153083064Y-77034859D01*
X153151263Y-76995485D01*
X153230485Y-76916263D01*
X153286503Y-76819237D01*
X153315500Y-76711018D01*
X153315500Y-76598982D01*
X153298625Y-76536004D01*
X153619500Y-76536004D01*
X153619500Y-77773995D01*
X153646420Y-77909327D01*
X153646420Y-77909329D01*
X153699222Y-78036806D01*
X153699228Y-78036817D01*
X153775885Y-78151541D01*
X153873458Y-78249114D01*
X153988182Y-78325771D01*
X153988193Y-78325777D01*
X153989415Y-78326283D01*
X154115672Y-78378580D01*
X154251007Y-78405500D01*
X154251008Y-78405500D01*
X154388992Y-78405500D01*
X154388993Y-78405500D01*
X154524328Y-78378580D01*
X154651811Y-78325775D01*
X154766542Y-78249114D01*
X154864114Y-78151542D01*
X154940775Y-78036811D01*
X154993580Y-77909328D01*
X155005924Y-77847273D01*
X156199500Y-77847273D01*
X156199500Y-77952727D01*
X156222029Y-78036806D01*
X156226794Y-78054589D01*
X156226794Y-78054590D01*
X156265696Y-78121969D01*
X156279520Y-78145913D01*
X156354087Y-78220480D01*
X156445413Y-78273207D01*
X156547273Y-78300500D01*
X156547275Y-78300500D01*
X156652725Y-78300500D01*
X156652727Y-78300500D01*
X156754587Y-78273207D01*
X156845913Y-78220480D01*
X156920480Y-78145913D01*
X156973207Y-78054587D01*
X157000500Y-77952727D01*
X157000500Y-77847273D01*
X156973207Y-77745413D01*
X156920480Y-77654087D01*
X156845913Y-77579520D01*
X156844844Y-77578903D01*
X156754589Y-77526794D01*
X156754588Y-77526793D01*
X156754587Y-77526793D01*
X156652727Y-77499500D01*
X156547273Y-77499500D01*
X156445413Y-77526793D01*
X156445412Y-77526793D01*
X156445410Y-77526794D01*
X156445409Y-77526794D01*
X156354089Y-77579518D01*
X156279518Y-77654089D01*
X156226794Y-77745409D01*
X156226794Y-77745410D01*
X156226793Y-77745412D01*
X156226793Y-77745413D01*
X156199500Y-77847273D01*
X155005924Y-77847273D01*
X155020500Y-77773993D01*
X155020500Y-76536007D01*
X154993580Y-76400672D01*
X154940775Y-76273189D01*
X154940774Y-76273187D01*
X154940771Y-76273182D01*
X154864114Y-76158458D01*
X154766541Y-76060885D01*
X154651817Y-75984228D01*
X154651806Y-75984222D01*
X154524328Y-75931420D01*
X154388995Y-75904500D01*
X154388993Y-75904500D01*
X154251007Y-75904500D01*
X154251004Y-75904500D01*
X154115672Y-75931420D01*
X154115670Y-75931420D01*
X153988193Y-75984222D01*
X153988182Y-75984228D01*
X153873458Y-76060885D01*
X153775885Y-76158458D01*
X153699228Y-76273182D01*
X153699222Y-76273193D01*
X153646420Y-76400670D01*
X153646420Y-76400672D01*
X153619500Y-76536004D01*
X153298625Y-76536004D01*
X153286503Y-76490763D01*
X153286501Y-76490760D01*
X153286501Y-76490758D01*
X153230486Y-76393739D01*
X153230485Y-76393737D01*
X153151263Y-76314515D01*
X153151260Y-76314513D01*
X153054240Y-76258498D01*
X153054242Y-76258498D01*
X153012251Y-76247247D01*
X152946018Y-76229500D01*
X152833982Y-76229500D01*
X152767748Y-76247247D01*
X152725758Y-76258498D01*
X152628739Y-76314513D01*
X152549513Y-76393739D01*
X152493498Y-76490758D01*
X152477286Y-76551263D01*
X152464500Y-76598982D01*
X147535500Y-76598982D01*
X147506503Y-76490763D01*
X147506501Y-76490760D01*
X147506501Y-76490758D01*
X147450486Y-76393739D01*
X147450485Y-76393737D01*
X147371263Y-76314515D01*
X147371260Y-76314513D01*
X147274240Y-76258498D01*
X147274242Y-76258498D01*
X147232251Y-76247247D01*
X147166018Y-76229500D01*
X147053982Y-76229500D01*
X146987748Y-76247247D01*
X146945758Y-76258498D01*
X146848739Y-76314513D01*
X146769513Y-76393739D01*
X146713498Y-76490758D01*
X146697286Y-76551263D01*
X146684500Y-76598982D01*
X146380500Y-76598982D01*
X146380500Y-76536007D01*
X146353580Y-76400672D01*
X146300775Y-76273189D01*
X146300774Y-76273187D01*
X146300771Y-76273182D01*
X146224114Y-76158458D01*
X146126541Y-76060885D01*
X146011817Y-75984228D01*
X146011806Y-75984222D01*
X145884328Y-75931420D01*
X145748995Y-75904500D01*
X145748993Y-75904500D01*
X145611007Y-75904500D01*
X145611004Y-75904500D01*
X145475672Y-75931420D01*
X145475670Y-75931420D01*
X145348193Y-75984222D01*
X145348182Y-75984228D01*
X145233458Y-76060885D01*
X145135885Y-76158458D01*
X145059228Y-76273182D01*
X145059222Y-76273193D01*
X145006420Y-76400670D01*
X145006420Y-76400672D01*
X144979500Y-76536004D01*
X141932906Y-76536004D01*
X141941105Y-76526013D01*
X142034127Y-76386795D01*
X142053117Y-76351268D01*
X142117192Y-76196578D01*
X142128886Y-76158027D01*
X142161551Y-75993809D01*
X142165500Y-75953718D01*
X142165500Y-75786282D01*
X142161551Y-75746191D01*
X142128886Y-75581973D01*
X142117192Y-75543422D01*
X142053117Y-75388732D01*
X142053115Y-75388727D01*
X142044388Y-75372402D01*
X142034127Y-75353205D01*
X141941105Y-75213987D01*
X141941102Y-75213983D01*
X141941096Y-75213975D01*
X141915554Y-75182853D01*
X141915552Y-75182851D01*
X141915548Y-75182846D01*
X141797154Y-75064452D01*
X141797148Y-75064447D01*
X141797146Y-75064445D01*
X141766024Y-75038903D01*
X141766016Y-75038897D01*
X141626803Y-74945878D01*
X141626800Y-74945876D01*
X141626795Y-74945873D01*
X141610498Y-74937162D01*
X141591272Y-74926884D01*
X141436578Y-74862808D01*
X141436567Y-74862804D01*
X141398030Y-74851114D01*
X141233804Y-74818448D01*
X141233808Y-74818448D01*
X141200905Y-74815208D01*
X141193718Y-74814500D01*
X141193716Y-74814500D01*
X139169500Y-74814500D01*
X139111309Y-74795593D01*
X139075345Y-74746093D01*
X139070500Y-74715500D01*
X139070500Y-72506004D01*
X144979500Y-72506004D01*
X144979500Y-73443995D01*
X145006420Y-73579327D01*
X145006420Y-73579329D01*
X145059222Y-73706806D01*
X145059228Y-73706817D01*
X145135885Y-73821541D01*
X145233458Y-73919114D01*
X145348182Y-73995771D01*
X145348193Y-73995777D01*
X145395283Y-74015282D01*
X145475672Y-74048580D01*
X145611007Y-74075500D01*
X145611008Y-74075500D01*
X145748992Y-74075500D01*
X145748993Y-74075500D01*
X145884328Y-74048580D01*
X146011811Y-73995775D01*
X146126542Y-73919114D01*
X146224114Y-73821542D01*
X146300775Y-73706811D01*
X146353580Y-73579328D01*
X146380500Y-73443993D01*
X146380500Y-72506007D01*
X146380499Y-72506004D01*
X153619500Y-72506004D01*
X153619500Y-73443995D01*
X153646420Y-73579327D01*
X153646420Y-73579329D01*
X153699222Y-73706806D01*
X153699228Y-73706817D01*
X153775885Y-73821541D01*
X153873458Y-73919114D01*
X153988182Y-73995771D01*
X153988193Y-73995777D01*
X154035283Y-74015282D01*
X154115672Y-74048580D01*
X154251007Y-74075500D01*
X154251008Y-74075500D01*
X154388992Y-74075500D01*
X154388993Y-74075500D01*
X154524328Y-74048580D01*
X154651811Y-73995775D01*
X154766542Y-73919114D01*
X154864114Y-73821542D01*
X154940775Y-73706811D01*
X154993580Y-73579328D01*
X155020500Y-73443993D01*
X155020500Y-72506007D01*
X154993580Y-72370672D01*
X154940775Y-72243189D01*
X154940774Y-72243187D01*
X154940771Y-72243182D01*
X154864114Y-72128458D01*
X154766541Y-72030885D01*
X154651817Y-71954228D01*
X154651806Y-71954222D01*
X154524328Y-71901420D01*
X154388995Y-71874500D01*
X154388993Y-71874500D01*
X154251007Y-71874500D01*
X154251004Y-71874500D01*
X154115672Y-71901420D01*
X154115670Y-71901420D01*
X153988193Y-71954222D01*
X153988182Y-71954228D01*
X153873458Y-72030885D01*
X153775885Y-72128458D01*
X153699228Y-72243182D01*
X153699222Y-72243193D01*
X153646420Y-72370670D01*
X153646420Y-72370672D01*
X153619500Y-72506004D01*
X146380499Y-72506004D01*
X146353580Y-72370672D01*
X146300775Y-72243189D01*
X146300774Y-72243187D01*
X146300771Y-72243182D01*
X146224114Y-72128458D01*
X146126541Y-72030885D01*
X146011817Y-71954228D01*
X146011806Y-71954222D01*
X145884328Y-71901420D01*
X145748995Y-71874500D01*
X145748993Y-71874500D01*
X145611007Y-71874500D01*
X145611004Y-71874500D01*
X145475672Y-71901420D01*
X145475670Y-71901420D01*
X145348193Y-71954222D01*
X145348182Y-71954228D01*
X145233458Y-72030885D01*
X145135885Y-72128458D01*
X145059228Y-72243182D01*
X145059222Y-72243193D01*
X145006420Y-72370670D01*
X145006420Y-72370672D01*
X144979500Y-72506004D01*
X139070500Y-72506004D01*
X139070500Y-72064861D01*
X139070977Y-72055157D01*
X139084330Y-71919579D01*
X139088116Y-71900548D01*
X139126246Y-71774848D01*
X139133668Y-71756931D01*
X139195592Y-71641079D01*
X139206361Y-71624961D01*
X139289698Y-71523414D01*
X139303414Y-71509698D01*
X139404961Y-71426361D01*
X139421079Y-71415592D01*
X139536931Y-71353668D01*
X139554848Y-71346246D01*
X139680550Y-71308115D01*
X139699579Y-71304330D01*
X139835157Y-71290976D01*
X139844861Y-71290500D01*
X139905892Y-71290500D01*
X143144759Y-71290500D01*
X143202950Y-71309407D01*
G37*
%TD.AperFunction*%
%TD*%
M02*
