%TF.GenerationSoftware,KiCad,Pcbnew,9.0.0*%
%TF.CreationDate,2025-04-02T16:35:10+02:00*%
%TF.ProjectId,stm32f103-core-board,73746d33-3266-4313-9033-2d636f72652d,1*%
%TF.SameCoordinates,Original*%
%TF.FileFunction,Paste,Top*%
%TF.FilePolarity,Positive*%
%FSLAX46Y46*%
G04 Gerber Fmt 4.6, Leading zero omitted, Abs format (unit mm)*
G04 Created by KiCad (PCBNEW 9.0.0) date 2025-04-02 16:35:10*
%MOMM*%
%LPD*%
G01*
G04 APERTURE LIST*
G04 Aperture macros list*
%AMFreePoly0*
4,1,11,1.100000,3.800000,1.100000,1.600000,0.500000,1.000000,0.500000,-0.700000,-0.500000,-0.700000,-0.500000,1.000000,-1.100000,1.600000,-1.100000,3.800000,-0.500000,4.400000,0.500000,4.400000,1.100000,3.800000,1.100000,3.800000,$1*%
G04 Aperture macros list end*
%ADD10R,0.800000X0.800000*%
%ADD11R,1.900000X1.100000*%
%ADD12R,0.550000X0.500000*%
%ADD13R,0.650000X1.050000*%
%ADD14R,0.500000X0.550000*%
%ADD15R,0.500000X0.600000*%
%ADD16R,1.200000X1.000000*%
%ADD17R,1.100000X1.300000*%
%ADD18R,1.200000X0.300000*%
%ADD19R,0.300000X1.200000*%
%ADD20R,0.300000X1.150000*%
%ADD21R,0.600000X0.500000*%
%ADD22R,0.800000X1.400000*%
%ADD23FreePoly0,180.000000*%
G04 APERTURE END LIST*
D10*
%TO.C,LED2*%
X149200001Y-95200000D03*
X150799999Y-95200000D03*
%TD*%
D11*
%TO.C,X2*%
X148000000Y-118287500D03*
X148000000Y-115787502D03*
%TD*%
D12*
%TO.C,C10*%
X151550000Y-120125000D03*
X150600000Y-120125000D03*
%TD*%
%TO.C,C18*%
X144725000Y-109250000D03*
X145675000Y-109250000D03*
%TD*%
D13*
%TO.C,SW1*%
X156275000Y-114850000D03*
X156275000Y-119000000D03*
X154125000Y-114850000D03*
X154125000Y-119000000D03*
%TD*%
D12*
%TO.C,C11*%
X148000000Y-114125000D03*
X148950000Y-114125000D03*
%TD*%
D14*
%TO.C,C6*%
X155200000Y-80875000D03*
X155200000Y-79925000D03*
%TD*%
D12*
%TO.C,C5*%
X153000000Y-81000000D03*
X153950000Y-81000000D03*
%TD*%
D15*
%TO.C,R1*%
X149250000Y-79400000D03*
X149250000Y-80500000D03*
%TD*%
D16*
%TO.C,C2*%
X156600000Y-75000000D03*
X156600000Y-77000000D03*
%TD*%
D17*
%TO.C,X1*%
X152400000Y-115912500D03*
X152400000Y-118212500D03*
X150600000Y-118212500D03*
X150600000Y-115912500D03*
%TD*%
D12*
%TO.C,C9*%
X150600000Y-114125000D03*
X151550000Y-114125000D03*
%TD*%
D15*
%TO.C,R4*%
X150800000Y-88250000D03*
X150800000Y-89350000D03*
%TD*%
D12*
%TO.C,C3*%
X153000000Y-79670000D03*
X153950000Y-79670000D03*
%TD*%
D15*
%TO.C,R3*%
X150800000Y-90650000D03*
X150800000Y-91750000D03*
%TD*%
D16*
%TO.C,C4*%
X151000000Y-83000000D03*
X151000000Y-85000000D03*
%TD*%
D15*
%TO.C,R10*%
X143525000Y-109250000D03*
X143525000Y-108150000D03*
%TD*%
%TO.C,R5*%
X151249999Y-79400000D03*
X151249999Y-80500000D03*
%TD*%
%TO.C,R2*%
X143600000Y-75650000D03*
X143600000Y-76750000D03*
%TD*%
%TO.C,R6*%
X148250000Y-79400000D03*
X148250000Y-80500000D03*
%TD*%
D13*
%TO.C,SW2*%
X145675000Y-114850000D03*
X145675000Y-119000000D03*
X143525000Y-114850000D03*
X143525000Y-119000000D03*
%TD*%
D10*
%TO.C,LED1*%
X143600000Y-73999999D03*
X143600000Y-72400001D03*
%TD*%
D12*
%TO.C,C14*%
X151250000Y-109250000D03*
X152200000Y-109250000D03*
%TD*%
D18*
%TO.C,U2*%
X145750000Y-105750000D03*
X145750000Y-105250000D03*
X145750000Y-104750000D03*
X145750000Y-104250000D03*
X145750000Y-103750000D03*
X145750000Y-103250000D03*
X145750000Y-102750000D03*
X145750000Y-102250000D03*
X145750000Y-101750000D03*
X145750000Y-101250000D03*
X145750000Y-100750000D03*
X145750000Y-100250000D03*
D19*
X147250000Y-98750000D03*
X147750000Y-98750000D03*
X148250000Y-98750000D03*
X148750000Y-98750000D03*
X149250000Y-98750000D03*
X149750000Y-98750000D03*
X150250000Y-98750000D03*
X150750000Y-98750000D03*
X151250000Y-98750000D03*
X151750000Y-98750000D03*
X152250000Y-98750000D03*
X152750000Y-98750000D03*
D18*
X154250000Y-100250000D03*
X154250000Y-100750000D03*
X154250000Y-101250000D03*
X154250000Y-101750000D03*
X154250000Y-102250000D03*
X154250000Y-102750000D03*
X154250000Y-103250000D03*
X154250000Y-103750000D03*
X154250000Y-104250000D03*
X154250000Y-104750000D03*
X154250000Y-105250000D03*
X154250000Y-105750000D03*
D19*
X152750000Y-107250000D03*
X152250000Y-107250000D03*
X151750000Y-107250000D03*
X151250000Y-107250000D03*
X150750000Y-107250000D03*
X150250000Y-107250000D03*
X149750000Y-107250000D03*
X149250000Y-107250000D03*
X148750000Y-107250000D03*
X148250000Y-107250000D03*
X147750000Y-107250000D03*
X147250000Y-107250000D03*
%TD*%
D20*
%TO.C,CN1*%
X153050000Y-77730000D03*
X152250000Y-77730000D03*
X151750000Y-77730000D03*
X150750000Y-77730000D03*
X149250000Y-77730000D03*
X148250000Y-77730000D03*
X147750000Y-77730000D03*
X146950000Y-77730000D03*
X146650000Y-77730000D03*
X147450000Y-77730000D03*
X148750001Y-77730000D03*
X149750000Y-77730000D03*
X150250000Y-77730000D03*
X151249999Y-77730000D03*
X152550000Y-77730000D03*
X153350000Y-77730000D03*
%TD*%
D12*
%TO.C,C16*%
X147250000Y-97000000D03*
X146300000Y-97000000D03*
%TD*%
%TO.C,C13*%
X155075000Y-109250000D03*
X154125000Y-109250000D03*
%TD*%
%TO.C,C12*%
X148000000Y-120125000D03*
X148950000Y-120125000D03*
%TD*%
D14*
%TO.C,C17*%
X144000000Y-105750000D03*
X144000000Y-106700000D03*
%TD*%
D15*
%TO.C,R9*%
X156275000Y-109250000D03*
X156275000Y-108150000D03*
%TD*%
D16*
%TO.C,C7*%
X156600000Y-80875000D03*
X156600000Y-78875000D03*
%TD*%
D21*
%TO.C,R8*%
X146250000Y-95200000D03*
X147350000Y-95200000D03*
%TD*%
D22*
%TO.C,U1*%
X153000000Y-83200000D03*
D23*
X154500000Y-83200000D03*
D22*
X156000000Y-83200000D03*
%TD*%
D14*
%TO.C,C15*%
X156000000Y-100250000D03*
X156000000Y-99300000D03*
%TD*%
M02*
